<?xml version="1.0" encoding="UTF-8"?>
<!-- Created with Inkscape (http://www.inkscape.org/) -->
<svg width="682.66" height="682.66" version="1.1" viewBox="0 0 180.62 180.62" xml:space="preserve" xmlns="http://www.w3.org/2000/svg" xmlns:xlink="http://www.w3.org/1999/xlink"><image x="-81.828" y="-46.544" width="142.98" height="27.097" image-rendering="optimizeQuality" preserveAspectRatio="none" xlink:href="../../../Desktop/HS/OrcaSlicer_about.png"/><g transform="translate(-21.758 198.89)"><path d="m126.59-15.387c0-0.2894 0.0969-0.2898 69.312-0.2898 69.215 0 69.312 4.05e-4 69.312 0.2898s-0.0969 0.2898-69.312 0.2898c-69.215 0-69.312-4.05e-4 -69.312-0.2898zm41.704-5.925c-0.31252-0.08609-0.36946-0.1954-0.40756-0.78252-0.0344-0.5297 5e-3 -0.68246 0.17371-0.68246 0.1199 0 0.30389 0.17872 0.40888 0.39716 0.25183 0.52396 0.87864 0.81466 1.5042 0.69764 0.58083-0.10866 0.93632-0.55183 0.93632-1.1672 0-0.64147-0.31992-1.0064-1.4688-1.6755-1.5247-0.88798-1.9362-1.8018-1.2884-2.8614 0.41834-0.68424 1.1446-0.94724 2.3736-0.85955 1.1154 0.07958 1.2781 0.20964 1.2206 0.97574-0.0425 0.5672-0.47826 0.79684-0.64125 0.33794-0.47569-1.3393-2.2302-1.154-2.2302 0.23563 0 0.63901 0.35395 1.0122 1.6031 1.6902 0.87925 0.47721 1.3031 1.1042 1.3031 1.9277 0 0.81664-0.35031 1.4401-0.94949 1.6897-0.50877 0.21198-1.8951 0.25404-2.5379 0.07699zm11.98-0.09586c-0.87703-0.43163-1.0043-0.87149-1.0581-3.6576-0.0441-2.2831-0.0732-2.5213-0.32695-2.6793-0.48892-0.30448-0.30531-0.39354 0.8113-0.39354 0.5994 0 1.0898 0.0326 1.0898 0.07245s-0.1361 0.20817-0.30244 0.37404c-0.28725 0.28645-0.30002 0.42816-0.25429 2.8219 0.0548 2.8711 0.12801 3.0581 1.2549 3.2089 0.52378 0.07006 0.64891 0.02644 1.0385-0.36205l0.44294-0.4417v-2.5457c0-2.3888-0.0179-2.5569-0.29062-2.7267-0.49555-0.30861-0.32805-0.40108 0.72654-0.40108 0.55944 0 1.0172 0.05072 1.0172 0.1127s-0.13078 0.22436-0.29062 0.36084c-0.26845 0.22922-0.29065 0.42782-0.29116 2.6042-6e-4 2.6351-0.11273 3.0177-1.0516 3.5885-0.57744 0.35109-1.8656 0.38397-2.5154 0.06421zm16.7 0.01665c-0.52089-0.22607-1.1026-0.94566-1.3428-1.661-0.21446-0.63875-0.21257-2.5046 3e-3 -3.223 0.22865-0.76104 1.0302-1.66 1.667-1.8696 0.69635-0.22918 1.871-0.10286 2.3528 0.25301 1.3384 0.98851 1.6893 3.7029 0.70511 5.455-0.61087 1.0875-2.1754 1.5707-3.3854 1.0455zm2.1366-0.59965c0.49843-0.44982 0.75332-1.5677 0.68652-3.0109-0.0732-1.5811-0.37475-2.3319-1.0693-2.6622-1.4289-0.67949-2.3968 0.85152-2.1951 3.4723 0.0957 1.2434 0.32703 1.8128 0.92822 2.2844 0.46045 0.36118 1.1983 0.3238 1.6497-0.08359zm-25.005 0.55286c0-0.06053 0.13077-0.19149 0.29061-0.29103 0.27488-0.17118 0.29062-0.33792 0.29062-3.0778v-2.8968h-0.43592c-0.49647 0-0.96646 0.40017-1.1019 0.93818-0.0579 0.22998-0.19423 0.36594-0.36697 0.36594-0.23907 0-0.27487-0.11321-0.27487-0.86942v-0.86942h5.3472l0.051 0.62805c0.028 0.34543 0.0298 0.73666 4e-3 0.86941-0.0794 0.40814-0.44658 0.2679-0.66531-0.25413-0.23025-0.54952-0.60425-0.80863-1.1672-0.80863h-0.37282v2.893c0 2.7446 0.0149 2.9009 0.29062 3.048 0.54982 0.29343 0.29009 0.43471-0.7992 0.43471-0.5994 0-1.0898-0.04952-1.0898-0.11005zm11.334 0.03484c0-0.06061 0.11443-0.19352 0.25429-0.29535 0.22381-0.16296 0.25969-0.51553 0.29933-2.9416 0.0429-2.6217 0.0304-2.771-0.25428-3.0549-0.16464-0.16417-0.29934-0.3311-0.29934-0.37095 0-0.03985 0.73562-0.07102 1.6347-0.06927 1.8587 0.0036 2.5398 0.21592 3.199 0.9971 0.53836 0.63801 0.73656 1.4814 0.64304 2.736-0.0948 1.2714-0.55127 2.1548-1.3683 2.6477-0.4702 0.28372-0.8022 0.3402-2.3284 0.39612-0.97902 0.03587-1.78 0.01563-1.78-0.04498zm3.4619-0.7471c0.67356-0.49059 0.97-1.28 0.97-2.5829 0-1.8547-0.60268-2.7289-2.0123-2.9189-0.52625-0.07091-0.73712-0.04362-0.83329 0.10784-0.15594 0.2456-0.17846 5.5424-0.0242 5.6989 0.19351 0.19636 1.4993-0.01326 1.8998-0.30499zm3.3676 0.69515c0-0.06994 0.0981-0.20833 0.21796-0.30755 0.18002-0.14898 0.21797-0.66901 0.21797-2.987 0-2.6497-0.0163-2.8167-0.29062-2.9876-0.50155-0.31235-0.32474-0.40108 0.7992-0.40108s1.3007 0.08873 0.79919 0.40108c-0.27479 0.17113-0.29061 0.33792-0.29061 3.0623 0 2.4275 0.0343 2.8945 0.21796 2.9647 0.51514 0.19713 0.16322 0.38231-0.72654 0.38231-0.51948 0-0.94451-0.05722-0.94451-0.12716zm-54.94-2.9633c-0.83905-0.44194-1.4496-1.3045-1.4024-1.9811l0.0354-0.50716 0.89628-0.04283c0.7839-0.03746 0.90764-0.0072 0.98682 0.24163 0.18299 0.57493 0.65912 1.0073 1.2118 1.1004 0.93129 0.1569 1.7578-0.3235 1.7683-1.0279 6e-3 -0.42822-0.16834-0.53614-1.728-1.0671-1.5823-0.53872-2.1674-0.88404-2.6242-1.5488-0.27776-0.40423-0.31812-0.61852-0.26707-1.418 0.0506-0.79288 0.12552-1.0098 0.47377-1.3723 0.67527-0.70286 1.2135-0.87861 2.6906-0.87861 2.039 0 3.0264 0.57957 3.2795 1.9248l0.1013 0.53849h-1.0254c-0.96711 0-1.0362-0.022-1.215-0.38708-0.3668-0.74898-1.9338-0.86847-2.3055-0.17581-0.16353 0.3047 0.47055 1.1425 0.86468 1.1425 0.13675 0 0.31779 0.06896 0.40231 0.15324 0.0845 0.08428 0.52841 0.19181 0.98643 0.23895 0.49872 0.05133 0.86299 0.16423 0.9081 0.28147 0.0414 0.10767 0.15418 0.19576 0.25056 0.19576 0.27145 0 0.91613 0.73826 1.1664 1.3357 0.41665 0.99466 0.26976 1.7517-0.51221 2.6399-0.67314 0.76452-1.2401 0.95113-2.8897 0.95113-1.1985 0-1.5095-0.0511-2.0529-0.33732zm-9.2522 0.07155c-0.14285-0.09042-0.17532-1.0368-0.14531-4.2362l0.0386-4.1197h1.889l0.0411 1.6353 0.0411 1.6353 2.8239-0.08284 0.0726-1.5939 0.0727-1.5939h1.7437v8.4043l-0.78362 0.04452c-0.43099 0.02448-0.83628-0.0081-0.90065-0.07245-0.0644-0.06433-0.13677-0.91566-0.16089-1.8918l-0.0438-1.7749-2.8122-3.45e-4 -0.011 1.7531c-6e-3 0.96423-0.0474 1.8119-0.0919 1.8837-0.10008 0.16147-1.5214 0.16926-1.7735 0.0097z" fill="#9df619"/><path d="m128.52-19.727c-0.77349-0.18889-1.4363-0.79546-1.6943-1.5506-0.19942-0.58362-0.23302-1.569-0.23302-6.8339 0-4.3741 0.0505-6.3201 0.17479-6.7337 0.21816-0.7261 0.9535-1.4534 1.6927-1.6743 0.39224-0.11719 2.4819-0.16662 6.8678-0.16247 6.2051 0.0059 6.3142 0.011 6.9492 0.32603 0.75674 0.37544 1.1399 0.84912 1.3227 1.6354 0.1859 0.79932 0.16958 12.433-0.0186 13.247-0.16394 0.70974-0.54385 1.198-1.2227 1.5715-0.38522 0.21192-1.1881 0.2427-6.9022 0.26468-3.5564 0.01368-6.6778-0.02681-6.9365-0.08997zm12.382-3.3568c0.69919-0.19357 1.6239-1.0755 1.7399-1.6594 0.0464-0.23371 0.14874-0.70299 0.22738-1.0428 0.19756-0.85371 0.17977-1.2598-0.0827-1.8863-0.25621-0.61162-0.89693-1.3357-1.182-1.3357-0.10493 0-0.19077-0.06521-0.19077-0.1449 0-0.0797 0.22886-0.1449 0.50857-0.1449 0.27972 0 0.51309-0.04891 0.5186-0.10868 6e-3 -0.05977 0.0476-0.3043 0.0936-0.54338 0.38845-2.0204-0.62273-2.9705-3.1615-2.9705-1.4758 0-2.0155 0.17585-2.6881 0.87595-0.33695 0.35072-0.4227 0.58812-0.47553 1.3165-0.083 1.1442 0.18667 2.3307 0.6562 2.8872 0.44794 0.53086 1.061 0.84207 2.5502 1.2947 0.61937 0.18824 1.1261 0.42352 1.1261 0.52286 0 0.267-0.94607 0.53097-1.4899 0.41571-0.57987-0.1229-0.89911-0.39178-1.1326-0.95401-0.17399-0.41886-0.20311-0.42946-1.0668-0.38801l-0.8879 0.04261 0.0369 0.9336c0.0604 1.5278 0.75357 2.5242 2.019 2.9025 0.60183 0.17989 2.211 0.1727 2.8813-0.01286zm-1.0139-6.4623c-0.15984-0.03834-0.35274-0.12858-0.42866-0.20054-0.0759-0.07196-0.24774-0.13084-0.38181-0.13084s-0.32028-0.09194-0.41381-0.20432c-0.13843-0.16634-0.0877-0.22235 0.27283-0.30132 0.24358-0.05335 0.64192-0.0534 0.8852-1.18e-4 0.42129 0.09227 1.0108 0.57217 1.0108 0.82288 0 0.12417-0.45746 0.13108-0.9445 0.01425zm-10.179 5.9356c0.0532-0.29886 0.13213-1.1488 0.1754-1.8888l0.0787-1.3454 2.8051 0.0826 0.0939 1.3766c0.0516 0.75712 0.12836 1.507 0.17052 1.6664 0.0422 0.15939 0.0817 0.37472 0.0878 0.4785 8e-3 0.13558 0.22586 0.17637 0.77399 0.1449l0.76287-0.0438v-9.5636h-1.7437l-0.0727 1.5939-0.0726 1.5939-2.8239 0.08284-0.0822-3.2707h-1.889v4.5644c0 2.5104 0.047 4.6785 0.10442 4.818 0.0795 0.19305 0.27513 0.25358 0.81963 0.25358 0.71239 0 0.71558-0.0021 0.81193-0.54338zm16.21 2.1722c0-0.06053 0.13078-0.19149 0.29062-0.29103 0.27405-0.17067 0.29062-0.33792 0.29062-2.9329 0-2.5587-0.0204-2.7723-0.29062-3.0417-0.15984-0.15939-0.29062-0.32241-0.29062-0.36226 0-0.03985 0.49042-0.07245 1.0898-0.07245 1.0893 0 1.349 0.14127 0.79919 0.43471-0.25548 0.13635-0.29061 0.3034-0.29061 1.3817v1.2266h2.6156v-1.2266c0-1.0783-0.0351-1.2453-0.29062-1.3817-0.54982-0.29343-0.2901-0.43471 0.7992-0.43471 0.59939 0 1.0898 0.05072 1.0898 0.1127s-0.13078 0.22436-0.29062 0.36084c-0.27169 0.23198-0.29061 0.42745-0.29061 3.0015 0 2.5964 0.0166 2.7637 0.29061 2.9343 0.50155 0.31235 0.32474 0.40108-0.79919 0.40108-1.0443 0-1.4141-0.16764-0.7992-0.36226 0.26492-0.08385 0.29062-0.21924 0.29062-1.5312v-1.4393h-2.6156v1.3753c0 1.2184 0.0332 1.396 0.29061 1.5563 0.50155 0.31235 0.32475 0.40108-0.79919 0.40108-0.5994 0-1.0898-0.04952-1.0898-0.11005zm6.9748 0c0-0.06053 0.13077-0.19149 0.29061-0.29103 0.27405-0.17067 0.29062-0.33792 0.29062-2.9329 0-2.5587-0.0204-2.7723-0.29062-3.0417-0.15984-0.15939-0.29061-0.32241-0.29061-0.36226 0-0.03985 0.49041-0.07245 1.0898-0.07245 1.0893 0 1.349 0.14127 0.79919 0.43471-0.27532 0.14694-0.29061 0.3034-0.29061 2.9744 0 2.6623 0.0162 2.8293 0.29061 3.0003 0.50155 0.31235 0.32475 0.40108-0.79919 0.40108-0.5994 0-1.0898-0.04952-1.0898-0.11005zm3.3421 0.0376c0-0.03985 0.13078-0.20286 0.29062-0.36226 0.26967-0.26892 0.29061-0.48301 0.29061-2.9705s-0.0209-2.7016-0.29061-2.9705c-0.15984-0.15939-0.29062-0.32241-0.29062-0.36226 0-0.03985 0.40895-0.07245 0.90878-0.07245h0.90878l0.7921 2.2558c0.43566 1.2407 0.83503 2.2823 0.8875 2.3146 0.0525 0.03234 0.50243-0.98278 0.99991-2.2558l0.90451-2.3146h0.85927c0.9225 0 1.0241 0.08463 0.56864 0.47354-0.27119 0.23155-0.29062 0.42745-0.29062 2.9303 0 2.4889 0.0209 2.703 0.29062 2.9719 0.15984 0.15939 0.29062 0.32241 0.29062 0.36226 0 0.03985-0.45772 0.07245-1.0172 0.07245-0.96875 0-1.2564-0.13802-0.81539-0.39128 0.15623-0.08973 0.21441-0.67988 0.25783-2.6154 0.0308-1.3748 0.0471-2.4996 0.036-2.4996-0.011 0-0.43764 1.0782-0.94805 2.396-0.86356 2.2296-0.95218 2.3931-1.2761 2.3547-0.30833-0.03661-0.43732-0.28859-1.1292-2.2059-0.42962-1.1905-0.81244-2.1958-0.85071-2.2339-0.0383-0.03816-0.0696 1.013-0.0696 2.3359 0 2.278 0.0154 2.4101 0.29062 2.4973 0.58554 0.18532 0.26617 0.36226-0.65389 0.36226-0.51947 0-0.9445-0.0326-0.9445-0.07245z" fill="#2573d9"/></g><path d="m0.029961 12.737a13.189 13.128 0 0 1 3.8435-8.8781 13.189 13.128 0 0 1 8.8565-3.8219h-12.7z" fill="#9df619" stroke-width=".25704"/></svg>
