<?xml version="1.0" encoding="UTF-8" standalone="no"?>
<!-- Created with Inkscape (http://www.inkscape.org/) -->

<svg
   width="682.65997"
   height="682.65997"
   viewBox="0 0 180.62045 180.62045"
   version="1.1"
   id="svg1"
   xml:space="preserve"
   xmlns="http://www.w3.org/2000/svg"
   xmlns:svg="http://www.w3.org/2000/svg"><defs
     id="defs1"><linearGradient
       id="swatch48"><stop
         style="stop-color:#ff0000;stop-opacity:1;"
         offset="0"
         id="stop48" /></linearGradient></defs><g
     id="layer1"><g
       id="g43"
       transform="translate(-35.927549,199.44054)"><path
         style="fill:#9df619"
         d="m 126.59386,-15.387167 c 0,-0.2894 0.0969,-0.289805 69.31209,-0.289805 69.21522,0 69.31209,4.05e-4 69.31209,0.289805 0,0.2894 -0.0969,0.289805 -69.31209,0.289805 -69.21522,0 -69.31209,-4.05e-4 -69.31209,-0.289805 z m 41.7035,-5.92505 c -0.31252,-0.08609 -0.36946,-0.195401 -0.40756,-0.782519 -0.0344,-0.529697 0.005,-0.682455 0.17371,-0.682455 0.1199,0 0.30389,0.178722 0.40888,0.397161 0.25183,0.523957 0.87864,0.814665 1.5042,0.697636 0.58083,-0.108659 0.93632,-0.551832 0.93632,-1.167249 0,-0.641473 -0.31992,-1.006423 -1.46878,-1.675523 -1.5247,-0.887983 -1.93616,-1.801831 -1.28835,-2.861397 0.41834,-0.684239 1.1446,-0.947238 2.37361,-0.859549 1.11537,0.07958 1.27807,0.209639 1.22064,0.97574 -0.0425,0.567199 -0.47826,0.796843 -0.64125,0.337945 -0.47569,-1.339327 -2.23018,-1.153953 -2.23018,0.235634 0,0.639007 0.35395,1.012183 1.60309,1.69015 0.87925,0.477212 1.30307,1.1042 1.30307,1.92772 0,0.816644 -0.35031,1.440069 -0.94949,1.68972 -0.50877,0.211984 -1.89514,0.254039 -2.53791,0.07699 z m 11.98048,-0.09586 c -0.87703,-0.431631 -1.00428,-0.87149 -1.05812,-3.657637 -0.0441,-2.283126 -0.0732,-2.521293 -0.32695,-2.679326 -0.48892,-0.304481 -0.30531,-0.393544 0.8113,-0.393544 0.5994,0 1.08981,0.0326 1.08981,0.07245 0,0.03985 -0.1361,0.208168 -0.30244,0.374045 -0.28725,0.286448 -0.30002,0.428162 -0.25429,2.821863 0.0548,2.871082 0.12801,3.058146 1.25494,3.208876 0.52378,0.07006 0.64891,0.02644 1.03848,-0.362046 l 0.44294,-0.441702 v -2.545711 c 0,-2.388781 -0.0179,-2.556868 -0.29062,-2.726697 -0.49555,-0.308613 -0.32805,-0.40108 0.72654,-0.40108 0.55944,0 1.01716,0.05072 1.01716,0.1127 0,0.06198 -0.13078,0.224361 -0.29062,0.360837 -0.26845,0.229215 -0.29065,0.427824 -0.29116,2.604222 -6e-4,2.635082 -0.11273,3.017691 -1.05161,3.588536 -0.57744,0.351088 -1.86563,0.383973 -2.51536,0.06421 z m 16.70036,0.01665 c -0.52089,-0.226072 -1.10263,-0.945655 -1.3428,-1.660966 -0.21446,-0.63875 -0.21257,-2.504588 0.003,-3.222968 0.22865,-0.761037 1.0302,-1.659991 1.66699,-1.869564 0.69635,-0.229175 1.87096,-0.102861 2.35281,0.253014 1.33841,0.988511 1.68928,3.702942 0.70511,5.45496 -0.61087,1.087469 -2.17542,1.570659 -3.38538,1.045524 z m 2.13656,-0.599648 c 0.49843,-0.449821 0.75332,-1.567666 0.68652,-3.010878 -0.0732,-1.58112 -0.37475,-2.331929 -1.06932,-2.662221 -1.4289,-0.67949 -2.39676,0.851516 -2.19511,3.472333 0.0957,1.24339 0.32703,1.812788 0.92822,2.284359 0.46045,0.361183 1.19826,0.323796 1.64969,-0.08359 z m -25.00506,0.552862 c 0,-0.06053 0.13077,-0.19149 0.29061,-0.291032 0.27488,-0.171182 0.29062,-0.337917 0.29062,-3.077807 v -2.896821 h -0.43592 c -0.49647,0 -0.96646,0.400173 -1.10187,0.93818 -0.0579,0.229979 -0.19423,0.365942 -0.36697,0.365942 -0.23907,0 -0.27487,-0.113211 -0.27487,-0.869415 v -0.869415 h 2.67358 2.67357 l 0.051,0.628053 c 0.028,0.345428 0.0298,0.736665 0.004,0.869414 -0.0794,0.408135 -0.44658,0.267898 -0.66531,-0.254133 -0.23025,-0.549515 -0.60425,-0.808626 -1.16717,-0.808626 h -0.37282 v 2.89295 c 0,2.74465 0.0149,2.900902 0.29062,3.04805 0.54982,0.293434 0.29009,0.434707 -0.7992,0.434707 -0.5994,0 -1.08981,-0.04952 -1.08981,-0.110047 z m 11.33405,0.03484 c 0,-0.06061 0.11443,-0.193516 0.25429,-0.295352 0.22381,-0.162965 0.25969,-0.515528 0.29933,-2.941554 0.0429,-2.621663 0.0304,-2.770988 -0.25428,-3.054897 -0.16464,-0.164174 -0.29934,-0.331102 -0.29934,-0.37095 0,-0.03985 0.73562,-0.07102 1.63472,-0.06927 1.85869,0.0036 2.53981,0.215918 3.19897,0.997104 0.53836,0.638012 0.73656,1.48135 0.64304,2.736035 -0.0948,1.271394 -0.55127,2.154765 -1.36828,2.647746 -0.4702,0.283721 -0.8022,0.340201 -2.32842,0.396117 -0.97902,0.03587 -1.78003,0.01563 -1.78003,-0.04498 z m 3.4619,-0.747097 c 0.67356,-0.490591 0.97,-1.27995 0.97,-2.5829 0,-1.854723 -0.60268,-2.72892 -2.01232,-2.91887 -0.52625,-0.07091 -0.73712,-0.04362 -0.83329,0.107843 -0.15594,0.2456 -0.17846,5.542407 -0.0242,5.698914 0.19351,0.196363 1.49931,-0.01326 1.89984,-0.304987 z m 3.36759,0.695147 c 0,-0.06994 0.0981,-0.208334 0.21796,-0.307547 0.18002,-0.148983 0.21797,-0.669009 0.21797,-2.987015 0,-2.649697 -0.0163,-2.816747 -0.29062,-2.987613 -0.50155,-0.312348 -0.32474,-0.40108 0.7992,-0.40108 1.12394,0 1.30074,0.08873 0.79919,0.40108 -0.27479,0.171129 -0.29061,0.337916 -0.29061,3.062304 0,2.4275 0.0343,2.894455 0.21796,2.964724 0.51514,0.197127 0.16322,0.382307 -0.72654,0.382307 -0.51948,0 -0.94451,-0.05722 -0.94451,-0.12716 z m -54.94003,-2.963303 c -0.83905,-0.441942 -1.4496,-1.304469 -1.40236,-1.981122 l 0.0354,-0.507159 0.89628,-0.04283 c 0.7839,-0.03746 0.90764,-0.0072 0.98682,0.24163 0.18299,0.574928 0.65912,1.007285 1.2118,1.100399 0.93129,0.156901 1.75775,-0.323503 1.76831,-1.027875 0.006,-0.428215 -0.16834,-0.536141 -1.72802,-1.067147 -1.58232,-0.538715 -2.16742,-0.884037 -2.62418,-1.548771 -0.27776,-0.404234 -0.31812,-0.618524 -0.26707,-1.417953 0.0506,-0.79288 0.12552,-1.009812 0.47377,-1.372289 0.67527,-0.702863 1.21348,-0.878613 2.69064,-0.878613 2.03899,0 3.02645,0.579567 3.27953,1.92485 l 0.1013,0.538491 h -1.0254 c -0.96711,0 -1.03617,-0.022 -1.21496,-0.387078 -0.3668,-0.748977 -1.93377,-0.868471 -2.30551,-0.175813 -0.16353,0.304696 0.47055,1.142501 0.86468,1.142501 0.13675,0 0.31779,0.06896 0.40231,0.153242 0.0845,0.08428 0.52841,0.19181 0.98643,0.23895 0.49872,0.05133 0.86299,0.164233 0.9081,0.281466 0.0414,0.107666 0.15418,0.195757 0.25056,0.195757 0.27145,0 0.91613,0.738257 1.1664,1.335693 0.41665,0.99466 0.26976,1.751733 -0.51221,2.639861 -0.67314,0.764517 -1.2401,0.951129 -2.88972,0.951129 -1.19853,0 -1.50949,-0.0511 -2.0529,-0.337317 z m -9.25224,0.07155 c -0.14285,-0.09042 -0.17532,-1.036831 -0.14531,-4.236178 l 0.0386,-4.119745 h 0.94451 0.9445 l 0.0411,1.635341 0.0411,1.635342 1.41195,-0.04142 1.41195,-0.04142 0.0726,-1.593927 0.0727,-1.593926 h 0.87185 0.87185 v 4.20217 4.202171 l -0.78362,0.04452 c -0.43099,0.02448 -0.83628,-0.0081 -0.90065,-0.07245 -0.0644,-0.06433 -0.13677,-0.915663 -0.16089,-1.891849 l -0.0438,-1.774882 -1.40609,-1.72e-4 -1.40609,-1.73e-4 -0.011,1.753144 c -0.006,0.964229 -0.0474,1.811908 -0.0919,1.883732 -0.10008,0.161474 -1.52141,0.169263 -1.77346,0.0097 z"
         id="path45" /><path
         style="fill:#2573d9"
         d="m 128.52118,-19.726891 c -0.77349,-0.188887 -1.4363,-0.795465 -1.6943,-1.550564 -0.19942,-0.583617 -0.23302,-1.568997 -0.23302,-6.833902 0,-4.374081 0.0505,-6.320084 0.17479,-6.73373 0.21816,-0.726101 0.9535,-1.453437 1.69274,-1.674298 0.39224,-0.11719 2.48186,-0.166623 6.86783,-0.162468 6.20509,0.0059 6.31419,0.011 6.94917,0.326031 0.75674,0.375435 1.13986,0.849118 1.32273,1.635394 0.1859,0.799322 0.16958,12.432718 -0.0186,13.247359 -0.16394,0.709741 -0.54385,1.198012 -1.22271,1.571468 -0.38522,0.211916 -1.18811,0.242705 -6.90215,0.264681 -3.55642,0.01368 -6.67784,-0.02681 -6.93649,-0.08997 z m 12.38228,-3.356825 c 0.69919,-0.193567 1.6239,-1.075535 1.73987,-1.659439 0.0464,-0.233709 0.14874,-0.702988 0.22738,-1.042842 0.19756,-0.853713 0.17977,-1.259802 -0.0827,-1.886306 -0.25621,-0.611621 -0.89693,-1.335693 -1.18195,-1.335693 -0.10493,0 -0.19077,-0.06521 -0.19077,-0.144903 0,-0.0797 0.22886,-0.144902 0.50857,-0.144902 0.27972,0 0.51309,-0.04891 0.5186,-0.108677 0.006,-0.05977 0.0476,-0.304295 0.0936,-0.543384 0.38845,-2.020403 -0.62273,-2.9705 -3.16148,-2.9705 -1.47582,0 -2.01547,0.175853 -2.68809,0.875952 -0.33695,0.350718 -0.4227,0.588116 -0.47553,1.316491 -0.083,1.144221 0.18667,2.330734 0.6562,2.887175 0.44794,0.530856 1.06095,0.842073 2.55015,1.294664 0.61937,0.188239 1.12614,0.423525 1.12614,0.522858 0,0.267001 -0.94607,0.53097 -1.48992,0.415709 -0.57987,-0.122896 -0.89911,-0.391784 -1.13264,-0.954007 -0.17399,-0.418862 -0.20311,-0.429457 -1.06676,-0.388006 l -0.8879,0.04261 0.0369,0.933596 c 0.0604,1.527789 0.75357,2.524235 2.01895,2.902461 0.60183,0.179888 2.21103,0.172705 2.88132,-0.01286 z m -1.01388,-6.462313 c -0.15984,-0.03834 -0.35274,-0.128584 -0.42866,-0.200544 -0.0759,-0.07196 -0.24774,-0.130838 -0.38181,-0.130838 -0.13407,0 -0.32028,-0.09194 -0.41381,-0.204319 -0.13843,-0.166343 -0.0877,-0.222349 0.27283,-0.301318 0.24358,-0.05335 0.64192,-0.0534 0.8852,-1.18e-4 0.42129,0.09227 1.01075,0.572171 1.01075,0.822883 0,0.124171 -0.45746,0.131075 -0.9445,0.01425 z m -10.17931,5.935649 c 0.0532,-0.298862 0.13213,-1.148825 0.1754,-1.888809 l 0.0787,-1.345424 1.40256,0.0413 1.40256,0.0413 0.0939,1.376573 c 0.0516,0.757115 0.12836,1.506985 0.17052,1.666378 0.0422,0.159392 0.0817,0.37472 0.0878,0.478505 0.008,0.135584 0.22586,0.176372 0.77399,0.144903 l 0.76287,-0.0438 v -4.78178 -4.78178 h -0.87185 -0.87185 l -0.0727,1.593926 -0.0726,1.593927 -1.41195,0.04142 -1.41195,0.04142 -0.0411,-1.635342 -0.0411,-1.635341 h -0.9445 -0.94451 v 4.564426 c 0,2.510435 0.047,4.678538 0.10442,4.818006 0.0795,0.193054 0.27513,0.25358 0.81963,0.25358 0.71239,0 0.71558,-0.0021 0.81193,-0.543384 z m 16.2096,2.172166 c 0,-0.06053 0.13078,-0.19149 0.29062,-0.291032 0.27405,-0.170666 0.29062,-0.337917 0.29062,-2.932905 0,-2.558715 -0.0204,-2.772265 -0.29062,-3.041723 -0.15984,-0.159393 -0.29062,-0.322408 -0.29062,-0.362256 0,-0.03985 0.49042,-0.07245 1.08982,-0.07245 1.08929,0 1.34902,0.141274 0.79919,0.434708 -0.25548,0.136346 -0.29061,0.3034 -0.29061,1.381671 v 1.226573 h 1.30777 1.30778 v -1.226573 c 0,-1.078271 -0.0351,-1.245325 -0.29062,-1.381671 -0.54982,-0.293434 -0.2901,-0.434708 0.7992,-0.434708 0.59939,0 1.08981,0.05072 1.08981,0.1127 0,0.06198 -0.13078,0.224361 -0.29062,0.360837 -0.27169,0.231979 -0.29061,0.427454 -0.29061,3.001476 0,2.596406 0.0166,2.763652 0.29061,2.934323 0.50155,0.312348 0.32474,0.401079 -0.79919,0.401079 -1.04428,0 -1.41411,-0.167636 -0.7992,-0.362256 0.26492,-0.08385 0.29062,-0.219242 0.29062,-1.53124 v -1.43926 h -1.30778 -1.30777 v 1.375345 c 0,1.218415 0.0332,1.395996 0.29061,1.556332 0.50155,0.312348 0.32475,0.401079 -0.79919,0.401079 -0.5994,0 -1.08982,-0.04952 -1.08982,-0.110047 z m 6.97481,0 c 0,-0.06053 0.13077,-0.19149 0.29061,-0.291032 0.27405,-0.170666 0.29062,-0.337917 0.29062,-2.932905 0,-2.558715 -0.0204,-2.772265 -0.29062,-3.041723 -0.15984,-0.159393 -0.29061,-0.322408 -0.29061,-0.362256 0,-0.03985 0.49041,-0.07245 1.08981,-0.07245 1.08929,0 1.34902,0.141274 0.79919,0.434708 -0.27532,0.14694 -0.29061,0.3034 -0.29061,2.97437 0,2.662341 0.0162,2.829346 0.29061,3.000258 0.50155,0.312348 0.32475,0.401079 -0.79919,0.401079 -0.5994,0 -1.08981,-0.04952 -1.08981,-0.110047 z m 3.34209,0.0376 c 0,-0.03985 0.13078,-0.202864 0.29062,-0.362256 0.26967,-0.268918 0.29061,-0.483008 0.29061,-2.9705 0,-2.487492 -0.0209,-2.701582 -0.29061,-2.9705 -0.15984,-0.159393 -0.29062,-0.322408 -0.29062,-0.362256 0,-0.03985 0.40895,-0.07245 0.90878,-0.07245 h 0.90878 l 0.7921,2.255825 c 0.43566,1.240703 0.83503,2.282283 0.8875,2.314621 0.0525,0.03234 0.50243,-0.982783 0.99991,-2.255825 l 0.90451,-2.314621 h 0.85927 c 0.9225,0 1.02412,0.08463 0.56864,0.473537 -0.27119,0.23155 -0.29062,0.427454 -0.29062,2.930252 0,2.488911 0.0209,2.70299 0.29062,2.971919 0.15984,0.159392 0.29062,0.322408 0.29062,0.362256 0,0.03985 -0.45772,0.07245 -1.01716,0.07245 -0.96875,0 -1.25637,-0.13802 -0.81539,-0.391282 0.15623,-0.08973 0.21441,-0.679879 0.25783,-2.615444 0.0308,-1.374762 0.0471,-2.499567 0.036,-2.499567 -0.011,0 -0.43764,1.078198 -0.94805,2.395996 -0.86356,2.229605 -0.95218,2.393125 -1.2761,2.354664 -0.30833,-0.03661 -0.43732,-0.288593 -1.12921,-2.205857 -0.42962,-1.19049 -0.81244,-2.19575 -0.85071,-2.233913 -0.0383,-0.03816 -0.0696,1.012989 -0.0696,2.33589 0,2.278015 0.0154,2.410143 0.29062,2.497257 0.58554,0.185323 0.26617,0.362256 -0.65389,0.362256 -0.51947,0 -0.9445,-0.0326 -0.9445,-0.07245 z"
         id="path44" /></g><path
       d="M 0.02139127,12.721673 A 13.189453,13.127675 0 0 1 3.8648803,3.8435699 13.189453,13.127675 0 0 1 12.721391,0.02167294 H 0.02139127 Z"
       style="fill:#9df619;stroke-width:0.257044"
       id="path55" /><path
       d="m 180.59982,167.92282 a 13.189453,13.127675 0 0 1 -3.84349,8.87811 13.189453,13.127675 0 0 1 -8.85651,3.82189 h 12.7 z"
       style="fill:#9df619;stroke-width:0.257044"
       id="path55-8" /></g></svg>
