<?xml version="1.0" standalone="no"?><!DOCTYPE svg PUBLIC "-//W3C//DTD SVG 1.1//EN" "http://www.w3.org/Graphics/SVG/1.1/DTD/svg11.dtd"><svg t="1754468725858" class="icon" viewBox="0 0 1024 1024" version="1.1" xmlns="http://www.w3.org/2000/svg" p-id="5792" width="18" height="18" xmlns:xlink="http://www.w3.org/1999/xlink"><path d="M73.142857 877.275429C73.142857 917.942857 106.057143 950.857143 146.724571 950.857143h730.550858C917.942857 950.857143 950.857143 917.942857 950.857143 877.275429V146.724571C950.857143 106.057143 917.942857 73.142857 877.275429 73.142857H146.724571C106.057143 73.142857 73.142857 106.057143 73.142857 146.724571v730.550858zM146.724571 0h730.550858C958.317714 0 1024 65.609143 1024 146.724571v730.550858A146.651429 146.651429 0 0 1 877.275429 1024H146.724571A146.651429 146.651429 0 0 1 0 877.275429V146.724571C0 65.682286 65.609143 0 146.724571 0z" fill="#2573D9" p-id="5793"></path></svg>