<?xml version="1.0" standalone="no"?><!DOCTYPE svg PUBLIC "-//W3C//DTD SVG 1.1//EN" "http://www.w3.org/Graphics/SVG/1.1/DTD/svg11.dtd"><svg t="1754469394789" class="icon" viewBox="0 0 1024 1024" version="1.1" xmlns="http://www.w3.org/2000/svg" p-id="15283" width="18" height="18" xmlns:xlink="http://www.w3.org/1999/xlink"><path d="M853.333333 0a170.666667 170.666667 0 0 1 170.666667 170.666667v682.666666a170.666667 170.666667 0 0 1-170.666667 170.666667H170.666667a170.666667 170.666667 0 0 1-170.666667-170.666667V170.666667a170.666667 170.666667 0 0 1 170.666667-170.666667h682.666666z m91.306667 171.093333a47.957333 47.957333 0 0 0-67.84 3.584l-537.941333 597.333334L147.882667 559.786667l-6.4-5.973334a48.042667 48.042667 0 0 0-64.938667 70.229334l226.133333 251.136 5.717334 5.376c12.202667 9.813333 28.16 12.8 42.752 8.704a47.786667 47.786667 0 0 0 24.576-14.506667L948.224 238.933333a47.957333 47.957333 0 0 0-3.584-67.84z" fill="#2573D9" p-id="15284"></path></svg>