<?xml version="1.0" standalone="no"?><!DOCTYPE svg PUBLIC "-//W3C//DTD SVG 1.1//EN" "http://www.w3.org/Graphics/SVG/1.1/DTD/svg11.dtd"><svg t="1763535625136" class="icon" viewBox="0 0 1024 1024" version="1.1" xmlns="http://www.w3.org/2000/svg" p-id="17324" width="16" height="16" xmlns:xlink="http://www.w3.org/1999/xlink"><path d="M419.2 464H134.4c-25.6 0-44.8-19.2-44.8-44.8V134.4c0-25.6 19.2-44.8 44.8-44.8H416c25.6 0 44.8 19.2 44.8 44.8V416c3.2 25.6-19.2 48-41.6 48z m-268.8-60.8h256v-256h-256v256zM870.4 464h-281.6c-25.6 0-44.8-19.2-44.8-44.8V134.4c0-25.6 19.2-44.8 44.8-44.8h281.6c25.6 0 44.8 19.2 44.8 44.8V416c0 25.6-22.4 48-44.8 48z m-268.8-60.8h256v-256h-256v256zM419.2 915.2H134.4c-25.6 0-44.8-19.2-44.8-44.8v-281.6c0-25.6 19.2-44.8 44.8-44.8H416c25.6 0 44.8 19.2 44.8 44.8v281.6c3.2 22.4-19.2 44.8-41.6 44.8z m-268.8-60.8h256v-256h-256v256zM902.4 758.4h-352c-16 0-28.8-12.8-28.8-28.8s12.8-28.8 28.8-28.8h352c16 0 28.8 12.8 28.8 28.8 3.2 12.8-9.6 28.8-28.8 28.8z" fill="#2573D9" p-id="17325"></path><path d="M726.4 934.4c-16 0-28.8-12.8-28.8-28.8v-352c0-16 12.8-28.8 28.8-28.8s28.8 12.8 28.8 28.8v352c3.2 16-12.8 28.8-28.8 28.8z" fill="#2573D9" p-id="17326"></path></svg>