<?xml version="1.0" standalone="no"?><!DOCTYPE svg PUBLIC "-//W3C//DTD SVG 1.1//EN" "http://www.w3.org/Graphics/SVG/1.1/DTD/svg11.dtd"><svg t="1754533885588" class="icon" viewBox="0 0 1024 1024" version="1.1" xmlns="http://www.w3.org/2000/svg" p-id="5275" width="18" height="18" xmlns:xlink="http://www.w3.org/1999/xlink"><path d="M840.533333 482.133333c-187.733333-157.866667-465.066667-157.866667-657.066666 0-17.066667 12.8-21.333333 42.666667-8.533334 59.733334 12.8 17.066667 42.666667 21.333333 59.733334 8.533333l4.266666-4.266667c157.866667-132.266667 388.266667-132.266667 546.133334 0 8.533333 8.533333 17.066667 8.533333 25.6 8.533334 12.8 0 25.6-4.266667 34.133333-17.066667 17.066667-12.8 17.066667-38.4-4.266667-55.466667z m153.6-149.333333C721.066667 89.6 307.2 89.6 34.133333 332.8c-17.066667 17.066667-21.333333 42.666667-4.266666 59.733333s42.666667 21.333333 59.733333 4.266667c243.2-213.333333 605.866667-213.333333 849.066667 0 8.533333 8.533333 17.066667 12.8 29.866666 8.533333 25.6 0 42.666667-17.066667 42.666667-42.666666-4.266667-12.8-8.533333-21.333333-17.066667-29.866667z m-307.2 298.666667c-102.4-72.533333-243.2-76.8-345.6 0-17.066667 12.8-21.333333 42.666667-8.533333 59.733333 12.8 17.066667 38.4 21.333333 55.466667 8.533333 34.133333-25.6 81.066667-38.4 123.733333-38.4s89.6 12.8 123.733333 38.4c8.533333 4.266667 17.066667 8.533333 25.6 8.533334 25.6 0 42.666667-21.333333 42.666667-42.666667 0-12.8-8.533333-25.6-17.066667-34.133333zM512 768c-34.133333 0-64 29.866667-64 64S477.866667 896 512 896s64-29.866667 64-64c0-17.066667-8.533333-34.133333-17.066667-46.933333-12.8-8.533333-29.866667-17.066667-46.933333-17.066667z" p-id="5276" fill="#2573D9"></path></svg>