<?xml version="1.0" encoding="UTF-8" standalone="no"?>
<!-- Created with Inkscape (http://www.inkscape.org/) -->

<svg
   width="64"
   height="64"
   viewBox="0 0 16.933333 16.933333"
   version="1.1"
   id="svg1"
   xml:space="preserve"
   inkscape:version="1.4 (86a8ad7, 2024-10-11)"
   sodipodi:docname="orca.svg"
   xmlns:inkscape="http://www.inkscape.org/namespaces/inkscape"
   xmlns:sodipodi="http://sodipodi.sourceforge.net/DTD/sodipodi-0.dtd"
   xmlns:xlink="http://www.w3.org/1999/xlink"
   xmlns="http://www.w3.org/2000/svg"
   xmlns:svg="http://www.w3.org/2000/svg"><sodipodi:namedview
     id="namedview1"
     pagecolor="#ffffff"
     bordercolor="#000000"
     borderopacity="0.25"
     inkscape:showpageshadow="2"
     inkscape:pageopacity="0.0"
     inkscape:pagecheckerboard="0"
     inkscape:deskcolor="#d1d1d1"
     inkscape:document-units="px"
     inkscape:zoom="1.4378367"
     inkscape:cx="272.63179"
     inkscape:cy="12.171062"
     inkscape:window-width="1920"
     inkscape:window-height="1009"
     inkscape:window-x="-8"
     inkscape:window-y="-8"
     inkscape:window-maximized="1"
     inkscape:current-layer="layer1" /><defs
     id="defs1" /><g
     inkscape:label="图层 1"
     inkscape:groupmode="layer"
     id="layer1"><image
       width="20.637501"
       height="20.637501"
       preserveAspectRatio="none"
       style="image-rendering:optimizeQuality"
       xlink:href="../Desktop/HS/OrcaSlicer.png"
       id="image1"
       x="-0.23164541"
       y="-29.200712" /><g
       id="g993"
       transform="matrix(0.76480203,0,0,0.79202333,0.87287368,23.558078)"><path
         style="fill:#b3b4b5"
         d="m 12.804295,-12.907636 c -1.023044,-0.464608 -1.921462,-1.835344 -1.921462,-2.931617 v -0.79375 l 0.4971,0.79375 c 0.612882,0.978624 1.413675,1.655471 1.804497,1.525197 0.161571,-0.05386 0.371234,0.02743 0.465918,0.180628 0.252272,0.408184 1.718632,0.339919 3.14608,-0.146461 0.873018,-0.297467 1.447129,-0.714318 1.913098,-1.389063 l 0.665761,-0.964051 -0.16768,0.79375 c -0.309555,1.465338 -0.702883,2.220236 -1.392126,2.671845 -0.938605,0.614998 -3.891889,0.768092 -5.011186,0.259772 z M 1.3558547,-13.524149 c 0,-0.686221 0.067884,-0.727604 1.1935499,-0.727604 0.8852302,0 1.1586206,0.09102 1.0583334,0.352368 -0.074369,0.193803 -0.1352166,0.521225 -0.1352166,0.727605 0,0.261385 -0.3211075,0.375235 -1.0583334,0.375235 -0.9781566,0 -1.0583333,-0.05512 -1.0583333,-0.727604 z m 6.0854168,0.352369 c 0,-0.20638 -0.060847,-0.533802 -0.1352165,-0.727605 -0.1002873,-0.261344 0.1731032,-0.352368 1.0583333,-0.352368 1.1256656,0 1.19355,0.04138 1.19355,0.727604 0,0.672483 -0.080177,0.727604 -1.0583334,0.727604 -0.7372259,0 -1.0583334,-0.11385 -1.0583334,-0.375235 z m 8.0697925,-3.53283 c -3.283934,-1.172194 -4.025042,-1.759356 -4.286621,-3.396183 l -0.164623,-1.030127 0.758059,0.895872 c 0.633437,0.748594 2.130327,1.671829 2.81124,1.733886 0.09701,0.0088 0.257482,0.09717 0.356596,0.196283 0.09911,0.09911 0.347161,0.116141 0.551216,0.03784 0.204054,-0.0783 0.371008,-0.0035 0.371008,0.166137 0,0.169678 0.105571,0.243258 0.234604,0.163512 0.413233,-0.255392 0.920597,0.611783 0.662914,1.133038 -0.21711,0.439181 -0.32102,0.447188 -1.294393,0.09974 z M 3.7371047,-17.669697 c 0,-0.20638 -0.060847,-0.533802 -0.1352165,-0.727604 -0.1052168,-0.274191 0.3063447,-0.352369 1.8550083,-0.352369 1.5486635,0 1.960225,0.07818 1.8550083,0.352369 -0.074369,0.193802 -0.1352166,0.521224 -0.1352166,0.727604 0,0.285439 -0.4115566,0.375235 -1.7197917,0.375235 -1.3082352,0 -1.7197918,-0.0898 -1.7197918,-0.375235 z M 16.569592,-20.73343 c -0.188101,-0.592655 -1.133231,-0.917641 -2.12007,-0.728995 -0.387937,0.07416 -0.786892,-0.03386 -0.978718,-0.264999 -0.263749,-0.317797 -0.211253,-0.481347 0.282951,-0.881529 0.841399,-0.681323 2.110964,-0.49116 2.842042,0.425699 0.463118,0.580806 0.739994,0.700118 1.399927,0.60326 0.75492,-0.110799 0.822631,-0.05917 0.822631,0.627189 0,0.694056 -0.07494,0.747926 -1.040503,0.747926 -0.807728,0 -1.078034,-0.118244 -1.20826,-0.528551 z"
         id="path997" /><path
         style="fill:#3381fc"
         d="m 0.87515108,-9.5762735 c -0.44895542,-0.4193871 -0.87557416525,-1.1464635 -0.97029245,-1.6536455 -0.09297385,-0.497842 -0.13195639,-4.326117 -0.08662787,-8.507276 l 0.08241551,-7.602109 0.86456571,-0.864558 0.86456572,-0.864559 7.7343929,-0.08468 c 8.3459704,-0.09138 9.3182494,0.02121 10.2337404,1.185067 0.521944,0.663545 0.543361,1.018909 0.543361,9.015924 v 8.325152 l -0.899583,0.8995838 -0.899584,0.8995834 H 10.009253 1.6764002 Z M 18.529522,-10.157675 c 0.591799,-0.585914 1.155025,-1.380169 1.251614,-1.765012 0.09659,-0.384843 0.10043,-2.778547 0.0085,-5.319343 -0.131759,-3.642946 -0.266083,-4.818463 -0.635345,-5.560101 -0.733145,-1.472471 -1.667495,-2.001194 -3.743807,-2.118516 -1.943535,-0.10982 -2.689623,0.144444 -4.121154,1.404475 l -0.782115,0.688416 -0.480977,-0.93752 c -0.4280799,-0.834414 -0.5960029,-0.937519 -1.5268895,-0.937519 -1.1845334,0 -1.5844239,0.433529 -2.1354697,2.315104 -0.2574355,0.879027 -0.4554197,1.124479 -0.9070173,1.124479 -0.4515977,0 -0.6495819,-0.245452 -0.9070174,-1.124479 -0.5538964,-1.891309 -0.948689,-2.315104 -2.1566681,-2.315104 -1.015192,0 -1.0953523,0.06115 -1.6475465,1.256771 -0.53819428,1.16531 -0.58043489,1.654265 -0.58043489,6.718807 0,4.968125 0.0448338,5.511604 0.49580405,6.010184 0.64443894,0.712473 2.36088654,1.0405511 3.86582454,0.7389048 0.8393348,-0.1682348 1.5487198,-0.1370608 2.3852467,0.1048171 1.240466,0.3586757 2.311268,0.4150622 3.4457761,0.1814483 0.367208,-0.075614 1.022052,0.018667 1.455208,0.209513 0.446871,0.1968889 1.837201,0.3562893 3.213997,0.3684825 l 2.426439,0.021489 z"
         id="path996" /><path
         style="fill:#99fb08"
         d="m 12.736926,-14.582894 c -1.068529,-0.536098 -2.290411,-2.439636 -1.77594,-2.76669 0.174209,-0.110747 0.70625,-0.203181 1.182312,-0.20541 0.663975,-0.0031 0.934363,0.146938 1.160949,0.644238 0.590072,1.295067 3.139575,1.37474 3.540782,0.11065 0.249328,-0.785563 -0.258185,-1.191082 -2.246468,-1.795005 -2.162705,-0.656901 -3.453123,-1.882584 -3.453123,-3.279894 0,-1.794877 1.449674,-2.82779 3.96875,-2.82779 1.990366,0 3.091814,0.530032 3.592719,1.728866 0.504659,1.207819 0.51956,1.18155 -0.670275,1.18155 -0.763283,0 -1.22523,-0.178923 -1.707765,-0.661458 -0.78775,-0.787749 -1.720814,-0.846885 -2.565848,-0.162617 -0.879133,0.711878 -0.395347,1.168714 2.127357,2.008851 2.31226,0.770054 3.142295,1.475451 3.367239,2.861616 0.198715,1.224538 -0.701676,2.748321 -1.92631,3.260006 -1.218914,0.509295 -3.481226,0.461574 -4.594379,-0.09691 z M 1.3558547,-19.411129 v -5.027083 h 1.190625 1.190625 v 1.984375 1.984375 h 1.7197918 1.7197917 v -1.984375 -1.984375 h 1.190625 1.1906251 v 5.027083 5.027084 H 8.3401627 7.1223871 l 0.093296,-2.248997 0.093296,-2.248996 H 5.4568965 3.6048131 l 0.093296,2.248996 0.093296,2.248997 H 2.5736302 1.3558547 Z"
         id="path995" /><path
         style="fill:#2c73e2"
         d="m 11.813089,-9.4823498 c -0.433156,-0.1908463 -1.088,-0.2851272 -1.455208,-0.209513 C 9.2233729,-9.4582489 8.1525709,-9.5146354 6.9121049,-9.8733111 6.075578,-10.115189 5.366193,-10.146363 4.5268582,-9.9781282 3.0219202,-9.6764819 1.3054726,-10.00456 0.66103366,-10.717033 c -0.45097023,-0.49858 -0.49580405,-1.042059 -0.49580405,-6.010184 0,-5.064542 0.0422406,-5.553497 0.58043489,-6.718807 0.5682463,-1.23038 0.6043603,-1.255801 1.7197917,-1.210547 l 1.1393569,0.04622 -1.0964812,0.09991 c -1.34698,0.122737 -1.3512979,0.138832 -1.58612052,5.912204 -0.18886131,4.643362 0.0416541,5.957804 1.09101642,6.221177 0.9170482,0.230164 1.7041117,-0.285117 1.5447689,-1.011342 -0.095113,-0.43349 -0.061217,-0.499813 0.1227935,-0.240267 0.1868792,0.263591 0.3776685,-0.03412 0.720629,-1.124479 0.3828388,-1.217145 0.5720455,-1.482987 1.0554773,-1.482987 0.4834318,0 0.6726385,0.265842 1.0554773,1.482987 0.3359811,1.068171 0.5344447,1.382706 0.7095173,1.124479 0.1816242,-0.267891 0.2250179,-0.224755 0.1716783,0.170659 -0.1073734,0.795972 0.2580509,1.190625 1.1024469,1.190625 0.4943907,0 0.9402939,-0.230565 1.2792349,-0.661459 0.6617498,-0.841278 1.1168608,-0.834622 1.9193788,0.02807 0.352788,0.379242 0.93909,0.806246 1.302892,0.948898 0.990032,0.388204 3.332698,0.289203 4.327546,-0.182884 1.043174,-0.495018 2.131246,-2.267474 1.955696,-3.185804 -0.06676,-0.349237 -0.01952,-0.572021 0.104979,-0.495077 0.527128,0.325784 -0.148965,-2.722381 -0.751512,-3.388187 -0.292746,-0.323482 -0.337777,-0.562599 -0.150215,-0.797659 0.413428,-0.518127 0.555364,-2.101473 0.263448,-2.938864 -0.144554,-0.414667 -0.634223,-0.980411 -1.088155,-1.257208 -0.453931,-0.276797 -0.692557,-0.503712 -0.530281,-0.504256 0.555295,-0.0019 1.753195,1.145578 2.125038,2.035521 0.410225,0.981809 0.82993,9.536908 0.52707,10.743598 -0.09659,0.384843 -0.659815,1.179098 -1.251614,1.765012 l -1.075997,1.0652969 -2.426439,-0.021489 C 13.65029,-9.1260605 12.25996,-9.2854609 11.813089,-9.4823498 Z m -1.45803,-8.8020572 c 0.0019,-0.692457 -0.199675,-2.354616 -0.4478414,-3.693686 l -0.451212,-2.434674 -1.0735128,-0.09879 -1.0735129,-0.09879 1.1181584,-0.04622 c 1.0353529,-0.0428 1.1543832,0.02438 1.6073177,0.907246 0.41848,0.815701 0.544832,0.90172 0.874452,0.595313 0.211911,-0.196987 0.675052,-0.596283 1.029203,-0.887325 0.616133,-0.506339 0.613615,-0.492017 -0.05836,0.331987 -1.020578,1.25148 -1.242921,3.282221 -0.600963,5.488847 0.104729,0.359992 -0.01886,0.635617 -0.386578,0.862137 -0.515365,0.317473 -0.540367,0.27437 -0.537153,-0.926041 z m -6.2238288,-2.454087 c -0.2380742,-0.385212 -0.5151771,-3.435135 -0.3121016,-3.435135 0.085536,0 0.3619404,0.654844 0.6142331,1.455209 0.3676079,1.166186 0.5708942,1.455208 1.0235348,1.455208 0.4522992,0 0.666059,-0.303078 1.0730033,-1.521354 l 0.5081826,-1.521354 0.083702,0.965813 c 0.046036,0.531197 -0.019056,1.364634 -0.1446505,1.852083 -0.2128894,0.826255 -0.3107829,0.891665 -1.4456382,0.965934 -0.6973239,0.04564 -1.2954453,-0.0468 -1.4002655,-0.216404 z m 8.9301138,-4.009345 c 0.183179,-0.11629 1.106959,-0.199448 2.052844,-0.184796 1.975369,0.0306 1.670481,0.154963 -0.729928,0.297738 -0.910783,0.05417 -1.506095,0.0033 -1.322916,-0.112942 z"
         id="path994" /><path
         style="fill:#235ab0"
         d="m 13.662395,-11.799228 c -0.58306,-0.12235 -1.41712,-0.572424 -1.86468,-1.006216 -0.987404,-0.95703 -1.349354,-0.979113 -2.0224638,-0.123393 -0.5670893,0.720938 -1.8060849,0.900658 -2.2791875,0.330604 -0.2142941,-0.258208 -0.018076,-0.310453 0.8936448,-0.237941 l 1.1682298,0.09291 0.022174,-5.252163 c 0.0213,-5.045191 0.036271,-5.189605 0.3798876,-3.664663 0.1967421,0.873125 0.3653581,2.27211 0.3747011,3.108854 0.0093,0.836745 0.13605,1.521355 0.281571,1.521355 0.145521,0 0.265028,0.446484 0.265572,0.992187 0.0023,2.323116 1.819018,3.665705 4.652434,3.438266 2.438377,-0.19573 3.025986,-0.71774 3.79588,-3.37212 0.256785,-0.885325 0.261831,-0.873692 0.114771,0.264583 -0.178933,1.384975 -0.963841,2.927868 -1.734238,3.408989 -0.798142,0.498448 -2.846884,0.75085 -4.048296,0.498745 z m -12.0100574,-0.70742 c -0.2463797,-0.15605 0.035757,-0.263037 0.8682682,-0.32925 1.0430126,-0.08295 1.1629327,-0.04667 0.7774266,0.235218 -0.5296295,0.387275 -1.1286701,0.421503 -1.6456948,0.09403 z m -0.65888644,-1.149793 c -0.22337488,-0.83352 -0.16289066,-6.672543 0.0856474,-8.268229 0.14173,-0.909947 0.2170882,0.267016 0.2414043,3.770312 0.019444,2.801277 -0.010293,5.09323 -0.066081,5.09323 -0.055788,0 -0.1732249,-0.267891 -0.26097074,-0.595313 z m 2.74365354,-1.653646 v -1.984375 h 1.7197918 1.7197917 v 1.984375 c 0,1.091407 -0.04845,1.984375 -0.1076663,1.984375 -0.059216,0 -0.31364,-0.654843 -0.5653856,-1.455208 -0.3746284,-1.191041 -0.5646454,-1.455208 -1.0467398,-1.455208 -0.4820945,0 -0.6721115,0.264167 -1.0467399,1.455208 -0.2517456,0.800365 -0.506169,1.455208 -0.5653855,1.455208 -0.059216,0 -0.1076664,-0.892968 -0.1076664,-1.984375 z m 10.5554173,-0.694298 c -0.379155,-0.137695 -0.823087,-0.543823 -0.986515,-0.902507 -0.215108,-0.472111 -0.506277,-0.652153 -1.054683,-0.652153 -0.650187,0 -0.800972,-0.144958 -1.064005,-1.022884 -0.168555,-0.562587 -0.29161,-1.544853 -0.273456,-2.182813 l 0.03301,-1.159928 0.204558,1.404521 c 0.295422,2.028403 1.159304,2.814537 4.029571,3.666915 0.727044,0.215909 1.217798,0.489233 1.090564,0.607387 -0.420682,0.390661 -1.279631,0.495461 -1.979044,0.241462 z m 3.4675,-3.93591 c -0.319292,-0.206342 -0.277448,-0.257273 0.214052,-0.260532 0.340669,-0.0023 0.53859,0.112993 0.447406,0.260532 -0.196634,0.318161 -0.169138,0.318161 -0.661458,0 z M 3.7371047,-21.13092 c 0,-0.363802 0.045651,-0.661459 0.1014473,-0.661459 0.055796,0 0.1583479,0.297657 0.2278931,0.661459 0.069545,0.363802 0.023894,0.661458 -0.1014473,0.661458 -0.1253412,0 -0.2278931,-0.297656 -0.2278931,-0.661458 z m 3.1102431,0 c 0.069545,-0.363802 0.1720971,-0.661459 0.2278931,-0.661459 0.055796,0 0.1014473,0.297657 0.1014473,0.661459 0,0.363802 -0.1025519,0.661458 -0.2278931,0.661458 -0.1253412,0 -0.1709924,-0.297656 -0.1014473,-0.661458 z m 8.3519752,0.3106 c -1.250495,-0.461887 -1.347839,-0.707475 -0.280422,-0.707475 0.796717,0 1.782788,0.522652 1.782788,0.94494 0,0.18807 -0.612316,0.09129 -1.502366,-0.237465 z"
         id="path993" /></g></g></svg>
