<?xml version="1.0" encoding="UTF-8"?>
<!-- Created with Inkscape (http://www.inkscape.org/) -->
<svg width="560" height="125" version="1.1" viewBox="0 0 148.17 33.073" xml:space="preserve" xmlns="http://www.w3.org/2000/svg" xmlns:xlink="http://www.w3.org/1999/xlink"><image x="4.0089" y="-40.848" width="147.28" height="29.179" image-rendering="optimizeQuality" preserveAspectRatio="none" xlink:href="../../../Desktop/HS/OrcaSlicer_about.png"/><g transform="translate(0 .92007)"><path d="m0.51258 15.697v-14.589h147.28v29.179h-147.28zm145.18 13.809c0-0.31164-0.0998-0.31207-71.394-0.31207-71.294 0-71.394 4.37e-4 -71.394 0.31207 0 0.31163 0.099781 0.31207 71.394 0.31207 71.294 0 71.394-4.37e-4 71.394-0.31207zm-126.55-4.8613c0.69925-0.40215 1.0906-0.92794 1.2594-1.6922 0.19382-0.87723 0.21064-13.404 0.019149-14.265-0.18836-0.84669-0.58299-1.3568-1.3624-1.761-0.65406-0.33924-0.76643-0.34475-7.1579-0.35108-4.5177-0.0044748-6.6701 0.048756-7.0741 0.17495-0.76144 0.23783-1.5189 1.021-1.7436 1.8029-0.12801 0.44543-0.18004 2.5409-0.18004 7.2511 0 5.6694 0.034607 6.7305 0.24001 7.359 0.26576 0.81311 0.94847 1.4663 1.7452 1.6697 0.26642 0.06802 3.4816 0.11161 7.1448 0.09688 5.8856-0.02367 6.7126-0.05682 7.1094-0.28502zm-4.4679-3.4128c-1.0734-0.33542-2.0428-1.5155-2.0428-2.4867 0-0.33535 0.02642-0.32321 0.33676 0.15467 0.18522 0.28521 0.6336 0.68178 0.99641 0.88127 0.55932 0.30754 0.88092 0.3627 2.1145 0.3627 1.6936 0 2.2834-0.2013 2.9665-1.0123 0.46769-0.55532 0.47072-0.55632 0.47072-0.15565 0 0.90389-0.89552 1.9587-1.913 2.2533-0.65764 0.19041-2.3236 0.19195-2.9292 0.0027zm-10.175-0.099869c-0.05488-0.05721-0.099904-0.35563-0.10005-0.66315l-2.727e-4 -0.55913 0.90901 0.05343c0.73109 0.04297 0.89227 0.09892 0.82347 0.28582-0.047047 0.12782-0.085541 0.40219-0.085541 0.60972 0 0.34703-0.058078 0.37733-0.72342 0.37733-0.39788 0-0.76832-0.04681-0.8232-0.10402zm5.1387-0.12188v-0.32022c0-0.04291-0.059284-0.236-0.13174-0.4291-0.1283-0.34191-0.10661-0.35108 0.82997-0.35108h0.96172l-0.0884 1.2483-0.78578 0.04716c-0.62987 0.037809-0.78577-8.89e-4 -0.78577-0.19504zm6.2114-3.615c-0.8232-0.28587-1.5112-0.52164-1.5289-0.52395-0.01771-0.0023-0.26956-0.22145-0.55966-0.48698-0.35222-0.3224-0.6024-0.74592-0.75306-1.2748-0.12409-0.43562-0.20708-0.81135-0.18442-0.83497 0.02266-0.02362 0.16514 0.14931 0.31663 0.3843 0.4041 0.62682 1.0644 1.0224 2.646 1.5854 0.77577 0.27612 1.4947 0.57294 1.5976 0.6596 0.20339 0.17129 0.25636 0.84097 0.07484 0.94617-0.06174 0.03578-0.78578-0.16884-1.609-0.4547zm-9.4044-0.3201c-0.05488-0.05721-0.099781-0.33808-0.099781-0.62414v-0.52012h1.5142c1.4972 0 1.5132 0.0039 1.4239 0.35108-0.049637 0.19309-0.091168 0.47396-0.092293 0.62414-0.00179 0.23929-0.16556 0.27306-1.3241 0.27306-0.72716 0-1.367-0.04681-1.4219-0.10402zm11.409-2.6518c-0.13215-0.03686-0.3278-0.2375-0.43477-0.44588-0.24698-0.4811-1.0335-0.75523-1.7864-0.62262-0.48532 0.08548-0.61058 0.05171-0.73946-0.19933-0.19708-0.3839 0.0384-0.71613 0.65644-0.92614 0.62171-0.21126 1.4401 0.09449 1.692 0.63207 0.18152 0.38748 0.26306 0.41682 1.1587 0.41682h0.96344l-0.06347 0.50712c-0.03491 0.27891-0.06802 0.55978-0.07358 0.62414-0.01049 0.12153-0.95271 0.13101-1.3729 0.01381zm30.619 8.6194c0.61717-0.26883 0.978-0.94016 0.978-1.8195 0-0.88679-0.43655-1.562-1.3422-2.0758-1.2866-0.73006-1.6512-1.1319-1.6512-1.82 0-1.4964 1.8072-1.696 2.2972-0.25374 0.16788 0.49416 0.61672 0.24687 0.66051-0.36391 0.05915-0.82496-0.10844-0.96501-1.2573-1.0507-1.2659-0.09443-2.014 0.18878-2.4449 0.92559-0.66726 1.141-0.24345 2.125 1.327 3.0812 1.1834 0.72051 1.5129 1.1135 1.5129 1.8043 0 0.6627-0.36617 1.1399-0.96444 1.2569-0.64435 0.12602-1.29-0.18702-1.5494-0.75124-0.10814-0.23522-0.29766-0.42768-0.42116-0.42768-0.17428 0-0.21433 0.1645-0.17892 0.73489 0.03925 0.63223 0.09789 0.74994 0.4198 0.84264 0.66207 0.19066 2.0901 0.14537 2.6141-0.0829zm12.317-0.08947c0.96708-0.6147 1.0826-1.0267 1.0832-3.8642 5.17e-4 -2.3436 0.02339-2.5575 0.2999-2.8043 0.16464-0.14696 0.29934-0.32182 0.29934-0.38856 0-0.06675-0.47147-0.12136-1.0477-0.12136-1.0863 0-1.2588 0.09957-0.74836 0.4319 0.28089 0.18288 0.29934 0.36388 0.29934 2.9362v2.7413l-0.45624 0.47564c-0.40127 0.41833-0.53015 0.4653-1.0697 0.38986-1.1608-0.16231-1.2361-0.36375-1.2926-3.4554-0.0471-2.5776-0.03395-2.7302 0.26193-3.0387 0.17134-0.17862 0.31152-0.35987 0.31152-0.40278s-0.50514-0.07802-1.1225-0.07802c-1.1501 0-1.3393 0.09591-0.83566 0.42378 0.26138 0.17017 0.29132 0.42664 0.33676 2.8852 0.05546 3.0002 0.18653 3.4739 1.0899 3.9387 0.66924 0.34433 1.9961 0.30892 2.5909-0.06915zm17.162-0.06356c1.9222-1.1744 2.0524-5.4265 0.20978-6.8493-0.49632-0.38322-1.7062-0.51924-2.4235-0.27245-0.65592 0.22568-1.4815 1.1937-1.7171 2.0132-0.22232 0.77358-0.22426 2.7828-0.0034 3.4706 0.24738 0.77027 0.84659 1.5451 1.3831 1.7886 0.75666 0.34332 1.848 0.27888 2.551-0.15063zm-2.0495-0.40507c-0.61924-0.5078-0.85755-1.1209-0.95609-2.4599-0.2077-2.8222 0.78922-4.4708 2.261-3.7391 0.71543 0.35567 1.0261 1.1642 1.1014 2.8668 0.0688 1.5541-0.19374 2.7578-0.70714 3.2422-0.46498 0.43869-1.2249 0.47895-1.6992 0.09002zm-50.848 0.50532c0-0.06518-0.1347-0.2062-0.29934-0.31339-0.26519-0.17265-0.29934-0.36388-0.29934-1.6759v-1.481h2.6941v1.5498c0 1.4128-0.02647 1.5586-0.29934 1.6489-0.63338 0.20957-0.25244 0.39009 0.8232 0.39009 1.1577 0 1.3398-0.09555 0.8232-0.4319-0.28228-0.18378-0.29934-0.36388-0.29934-3.1598 0-2.7718 0.01949-2.9823 0.29934-3.2321 0.16464-0.14696 0.29934-0.32182 0.29934-0.38856 0-0.06675-0.50514-0.12136-1.1225-0.12136-1.122 0-1.3895 0.15213-0.8232 0.46811 0.26315 0.14682 0.29934 0.32671 0.29934 1.4878v1.3208h-2.6941v-1.3208c0-1.1611 0.03619-1.341 0.29934-1.4878 0.56633-0.31598 0.29881-0.46811-0.8232-0.46811-0.6174 0-1.1225 0.03511-1.1225 0.07802s0.1347 0.21845 0.29934 0.39009c0.27833 0.29016 0.29934 0.52012 0.29934 3.2754 0 2.7944-0.01707 2.9745-0.29934 3.1582-0.51661 0.33635-0.3345 0.4319 0.8232 0.4319 0.6174 0 1.1225-0.05333 1.1225-0.1185zm7.1843 0c0-0.06518-0.1347-0.2062-0.29934-0.31339-0.28268-0.18404-0.29934-0.36388-0.29934-3.2308 0-2.8762 0.01575-3.0447 0.29934-3.2029 0.56633-0.31598 0.29881-0.46811-0.8232-0.46811-0.6174 0-1.1225 0.03511-1.1225 0.07802s0.1347 0.21845 0.29934 0.39009c0.27833 0.29016 0.29934 0.52012 0.29934 3.2754 0 2.7944-0.01707 2.9745-0.29934 3.1582-0.51661 0.33635-0.3345 0.4319 0.8232 0.4319 0.6174 0 1.1225-0.05333 1.1225-0.1185zm3.1431-0.02702c0-0.08004-0.1347-0.19009-0.29934-0.24457-0.28351-0.09381-0.29934-0.23609-0.29934-2.6891 0-1.4245 0.03225-2.5565 0.07167-2.5154 0.03942 0.0411 0.43373 1.1236 0.87625 2.4055 0.71267 2.0646 0.84554 2.3359 1.1631 2.3753 0.33364 0.04142 0.42492-0.13467 1.3144-2.5356 0.52573-1.419 0.96517-2.5801 0.97652-2.5801 0.01135 0-0.0053 1.2112-0.03711 2.6916-0.04472 2.0843-0.10465 2.7198-0.26558 2.8164-0.45422 0.27272-0.15796 0.42134 0.83988 0.42134 0.57624 0 1.0477-0.03511 1.0477-0.07802s-0.1347-0.21845-0.29934-0.39009c-0.27778-0.28959-0.29934-0.52012-0.29934-3.2003 0-2.6951 0.02001-2.906 0.29934-3.1554 0.46916-0.41879 0.36448-0.50992-0.58572-0.50992h-0.88507l-0.93167 2.4925c-0.51242 1.3709-0.97589 2.464-1.0299 2.4291-0.05405-0.03482-0.46542-1.1564-0.91416-2.4925l-0.81589-2.4291h-0.93607c-0.51484 0-0.93607 0.03511-0.93607 0.07802s0.1347 0.21845 0.29934 0.39009c0.27777 0.28958 0.29934 0.52012 0.29934 3.1987 0 2.6786-0.02157 2.9091-0.29934 3.1987-0.16464 0.17164-0.29934 0.34718-0.29934 0.39009s0.43779 0.07802 0.97287 0.07802c0.53508 0 0.97287-0.06548 0.97287-0.14552zm18.709-5e-3c0-0.0828-0.1347-0.2257-0.29934-0.31756-0.284-0.15845-0.29934-0.32671-0.29934-3.2822v-3.1152h0.38402c0.57983 0 0.96506 0.27902 1.2022 0.87076 0.2253 0.56214 0.60346 0.71315 0.68529 0.27366 0.02662-0.14295 0.02477-0.56424-0.0041-0.93621l-0.05249-0.67631h-5.5077v0.93621c0 0.8143 0.03687 0.93621 0.28312 0.93621 0.17793 0 0.31837-0.14641 0.37799-0.39406 0.13948-0.57934 0.62358-1.0103 1.135-1.0103h0.44902v3.1194c0 2.9504-0.01622 3.1299-0.29934 3.3143-0.51661 0.33635-0.3345 0.4319 0.8232 0.4319 0.62129 0 1.1225-0.06722 1.1225-0.15055zm13.661-0.30856c0.84154-0.53086 1.3118-1.4821 1.4094-2.8512 0.09633-1.3511-0.10783-2.2592-0.66235-2.9462-0.67896-0.8412-1.3805-1.0698-3.295-1.0737-0.9261-0.0019-1.6838 0.03168-1.6838 0.07459s0.13875 0.22266 0.30832 0.39945c0.29325 0.30572 0.30606 0.46652 0.26193 3.2896-0.04084 2.6124-0.07779 2.9921-0.30832 3.1676-0.14406 0.10966-0.26193 0.25278-0.26193 0.31804 0 0.06526 0.82507 0.08706 1.8335 0.04844 1.5721-0.06021 1.914-0.12103 2.3984-0.42655zm-2.6229-0.09796c-0.15886-0.16853-0.13567-5.8723 0.02495-6.1368 0.09906-0.1631 0.31626-0.19249 0.85832-0.11613 1.452 0.20455 2.0728 1.1459 2.0728 3.1431 0 1.4031-0.30535 2.2531-0.99914 2.7813-0.41256 0.31414-1.7576 0.53987-1.9569 0.32842zm7.3714 0.39613c0-0.08851-0.10103-0.20135-0.22451-0.25075-0.18915-0.07567-0.22451-0.5785-0.22451-3.1925 0-2.9337 0.0163-3.1133 0.29934-3.2976 0.51661-0.33635 0.3345-0.4319-0.8232-0.4319-1.1577 0-1.3398 0.09555-0.8232 0.4319 0.28261 0.184 0.29934 0.36388 0.29934 3.2172 0 2.4961-0.03909 3.0561-0.22451 3.2165-0.41166 0.35617-0.23271 0.46811 0.74836 0.46811 0.56853 0 0.97287-0.06688 0.97287-0.16093z" fill="#fcfdfc"/><path d="m2.9073 29.506c0-0.31164 0.099781-0.31207 71.394-0.31207 71.294 0 71.394 4.37e-4 71.394 0.31207 0 0.31163-0.0998 0.31207-71.394 0.31207-71.294 0-71.394-4.37e-4 -71.394-0.31207zm42.956-6.3803c-0.32191-0.0927-0.38055-0.21042-0.4198-0.84264-0.03541-0.57039 0.0046-0.73489 0.17892-0.73489 0.1235 0 0.31302 0.19246 0.42116 0.42768 0.25939 0.56421 0.90502 0.87726 1.5494 0.75124 0.59827-0.11701 0.96444-0.59423 0.96444-1.2569 0-0.69076-0.32953-1.0837-1.5129-1.8043-1.5705-0.95621-1.9943-1.9403-1.327-3.0812 0.4309-0.73681 1.179-1.02 2.4449-0.92559 1.1489 0.0857 1.3164 0.22575 1.2573 1.0507-0.04379 0.61078-0.49263 0.85806-0.66051 0.36391-0.48998-1.4422-2.2972-1.2426-2.2972 0.25374 0 0.6881 0.36458 1.09 1.6512 1.82 0.90566 0.51388 1.3422 1.189 1.3422 2.0758 0 0.87939-0.36084 1.5507-0.978 1.8195-0.52405 0.22827-1.9521 0.27356-2.6141 0.0829zm12.34-0.10322c-0.90337-0.46479-1.0344-0.93845-1.0899-3.9387-0.04545-2.4585-0.07538-2.715-0.33676-2.8852-0.5036-0.32788-0.31448-0.42378 0.83566-0.42378 0.6174 0 1.1225 0.03511 1.1225 0.07802s-0.14018 0.22416-0.31152 0.40278c-0.29588 0.30846-0.30903 0.46106-0.26193 3.0387 0.0565 3.0917 0.13185 3.2931 1.2926 3.4554 0.53952 0.07544 0.6684 0.02847 1.0697-0.38986l0.45624-0.47564v-2.7413c0-2.5723-0.01845-2.7533-0.29934-2.9362-0.51043-0.33232-0.3379-0.4319 0.74836-0.4319 0.57624 0 1.0477 0.05461 1.0477 0.12136 0 0.06675-0.1347 0.2416-0.29934 0.38856-0.27651 0.24682-0.29939 0.46069-0.2999 2.8043-6.26e-4 2.8375-0.11612 3.2495-1.0832 3.8642-0.59478 0.37806-1.9217 0.41347-2.5909 0.06915zm17.202 0.01793c-0.53653-0.24344-1.1357-1.0183-1.3831-1.7886-0.2209-0.68783-0.21896-2.697 0.0034-3.4706 0.23552-0.81951 1.0611-1.7875 1.7171-2.0132 0.71727-0.24678 1.9272-0.11076 2.4235 0.27245 1.3786 1.0645 1.74 3.9874 0.72629 5.8741-0.62921 1.171-2.2408 1.6913-3.487 1.1259zm2.2007-0.64572c0.51341-0.48438 0.77595-1.6881 0.70714-3.2422-0.07538-1.7026-0.38601-2.5111-1.1014-2.8668-1.4718-0.7317-2.4687 0.91694-2.261 3.7391 0.09854 1.3389 0.33685 1.9521 0.95609 2.4599 0.47428 0.38893 1.2343 0.34867 1.6992-0.09002zm-25.756 0.59534c0-0.06518 0.1347-0.2062 0.29934-0.31339 0.28313-0.18433 0.29934-0.36388 0.29934-3.3143v-3.1194h-0.44902c-0.51138 0-0.99548 0.43092-1.135 1.0103-0.05962 0.24765-0.20006 0.39406-0.37799 0.39406-0.24625 0-0.28312-0.12191-0.28312-0.93621v-0.93621h5.5077l0.05249 0.67631c0.02887 0.37197 0.03071 0.79326 0.0041 0.93621-0.08183 0.43949-0.45999 0.28848-0.68529-0.27366-0.23716-0.59174-0.62239-0.87076-1.2022-0.87076h-0.38402v3.1152c0 2.9555 0.01534 3.1238 0.29934 3.2822 0.56633 0.31598 0.29881 0.46811-0.8232 0.46811-0.6174 0-1.1225-0.05333-1.1225-0.1185zm11.674 0.03751c0-0.06526 0.11787-0.20838 0.26193-0.31804 0.23053-0.17548 0.26749-0.55514 0.30832-3.1676 0.04413-2.8231 0.03133-2.9839-0.26193-3.2896-0.16958-0.17679-0.30832-0.35654-0.30832-0.39945s0.75772-0.07648 1.6838-0.07459c1.9145 0.0039 2.6161 0.23251 3.295 1.0737 0.55452 0.68703 0.75868 1.5952 0.66235 2.9462-0.09761 1.3691-0.56782 2.3203-1.4094 2.8512-0.48433 0.30552-0.8263 0.36634-2.3984 0.42655-1.0084 0.03862-1.8335 0.01683-1.8335-0.04844zm3.5659-0.8045c0.69379-0.52828 0.99914-1.3783 0.99914-2.7813 0-1.9972-0.62079-2.9386-2.0728-3.1431-0.54206-0.07636-0.75926-0.04697-0.85832 0.11613-0.16062 0.26447-0.18381 5.9682-0.02495 6.1368 0.19932 0.21145 1.5443-0.01428 1.9569-0.32842zm3.4687 0.74856c0-0.07531 0.10103-0.22434 0.22451-0.33118 0.18542-0.16043 0.22451-0.72041 0.22451-3.2165 0-2.8533-0.01674-3.0332-0.29934-3.2172-0.51661-0.33635-0.3345-0.4319 0.8232-0.4319 1.1577 0 1.3398 0.09555 0.8232 0.4319-0.28304 0.18428-0.29934 0.36388-0.29934 3.2976 0 2.614 0.03536 3.1168 0.22451 3.1925 0.53062 0.21227 0.16813 0.41168-0.74836 0.41168-0.53508 0-0.97287-0.06162-0.97287-0.13693zm-56.59-3.191c-0.86425-0.4759-1.4931-1.4047-1.4445-2.1333l0.03647-0.54612 0.9232-0.04612c0.80743-0.04034 0.93489-0.0077 1.0165 0.2602 0.18848 0.6191 0.6789 1.0847 1.2482 1.1849 0.95926 0.16896 1.8105-0.34836 1.8214-1.1068 0.0066-0.46112-0.1734-0.57733-1.7799-1.1491-1.6298-0.58011-2.2325-0.95196-2.703-1.6678-0.2861-0.43529-0.32768-0.66605-0.2751-1.5269 0.05215-0.8538 0.12929-1.0874 0.488-1.4777 0.69555-0.75687 1.2499-0.94612 2.7714-0.94612 2.1002 0 3.1173 0.6241 3.378 2.0727l0.10435 0.57986h-1.0562c-0.99616 0-1.0673-0.02369-1.2515-0.41682-0.37781-0.80652-1.9918-0.9352-2.3747-0.18932-0.16844 0.32811 0.48468 1.2303 0.89065 1.2303 0.14086 0 0.32733 0.07426 0.41439 0.16502 0.08706 0.09076 0.54428 0.20655 1.0161 0.25731 0.5137 0.05527 0.8889 0.17685 0.93537 0.30309 0.04268 0.11594 0.15881 0.2108 0.25808 0.2108 0.2796 0 0.94365 0.79498 1.2014 1.4383 0.42917 1.0711 0.27786 1.8863-0.52759 2.8427-0.69335 0.82326-1.2773 1.0242-2.9765 1.0242-1.2345 0-1.5548-0.05502-2.1145-0.36323zm-9.5301 0.07704c-0.14714-0.097365-0.18058-1.1165-0.14967-4.5616l0.039795-4.4363h1.9457l0.08474 3.522 2.9087-0.0892 0.14967-3.4328h1.7961v9.0501l-0.80715 0.04794c-0.44393 0.026367-0.8614-0.008741-0.9277-0.078016-0.066302-0.069274-0.14088-0.98602-0.16572-2.0372l-0.045169-1.9112-2.8966-3.72e-4 -0.011293 1.8878c-0.00621 1.0383-0.048807 1.9511-0.094658 2.0285-0.10308 0.17388-1.5671 0.18227-1.8267 0.01046z" fill="#9df619"/><path d="m4.8925 24.833c-0.79671-0.2034-1.4794-0.85658-1.7452-1.6697-0.2054-0.62846-0.24001-1.6895-0.24001-7.359 0-4.7101 0.052031-6.8057 0.18004-7.2511 0.22471-0.78189 0.98213-1.5651 1.7436-1.8029 0.40402-0.12619 2.5564-0.17942 7.0741-0.17495 6.3914 0.00633 6.5038 0.011842 7.1579 0.35108 0.77946 0.40428 1.1741 0.91436 1.3624 1.761 0.19149 0.86074 0.17467 13.388-0.01915 14.265-0.16886 0.76427-0.56018 1.2901-1.2594 1.6922-0.39678 0.2282-1.2238 0.26135-7.1094 0.28502-3.6632 0.01473-6.8784-0.02887-7.1448-0.09688zm12.754-3.6147c0.72018-0.20844 1.6727-1.1582 1.7921-1.7869 0.04781-0.25167 0.15321-0.757 0.23422-1.123 0.20349-0.9193 0.18516-1.3566-0.08516-2.0312-0.2639-0.65861-0.92387-1.4383-1.2174-1.4383-0.10808 0-0.19651-0.07022-0.19651-0.15604 0-0.08582 0.23573-0.15604 0.52385-0.15604 0.28812 0 0.52849-0.05266 0.53416-0.11703 0.0057-0.06437 0.04905-0.32768 0.0964-0.58513 0.40012-2.1756-0.64142-3.1987-3.2564-3.1987-1.5201 0-2.076 0.18936-2.7688 0.94325-0.34707 0.37766-0.4354 0.6333-0.48982 1.4176-0.08549 1.2321 0.19228 2.5098 0.67591 3.109 0.46139 0.57164 1.0928 0.90677 2.6267 1.3941 0.63798 0.2027 1.16 0.45606 1.16 0.56303 0 0.28752-0.97448 0.57177-1.5347 0.44765-0.59729-0.13234-0.92611-0.42189-1.1667-1.0273-0.17921-0.45104-0.20921-0.46245-1.0988-0.41782l-0.91456 0.04589 0.03805 1.0053c0.06226 1.6452 0.7762 2.7182 2.0796 3.1255 0.6199 0.19371 2.2774 0.18598 2.9678-0.01385zm-1.0443-6.9588c-0.16464-0.04128-0.36333-0.13846-0.44153-0.21595-0.0782-0.07749-0.25518-0.14089-0.39327-0.14089s-0.3299-0.09901-0.42624-0.22002c-0.1426-0.17912-0.09036-0.23943 0.28102-0.32447 0.25089-0.05745 0.6612-0.0575 0.91178-1.27e-4 0.43394 0.09936 1.0411 0.61613 1.0411 0.88611 0 0.13371-0.4712 0.14115-0.97287 0.01535zm-10.485 6.3917c0.054796-0.32182 0.1361-1.2371 0.18067-2.0339l0.081044-1.4488 2.8894 0.08896 0.096682 1.4823c0.053175 0.81528 0.13221 1.6228 0.17564 1.7944 0.043426 0.17164 0.08411 0.40351 0.090408 0.51527 0.00823 0.146 0.23264 0.18992 0.79723 0.15604l0.78578-0.04716v-10.298h-1.7961l-0.14967 3.4328-2.9087 0.0892-0.08474-3.522h-1.9457v4.9151c0 2.7033 0.048401 5.038 0.10756 5.1882 0.081884 0.20789 0.28339 0.27306 0.84424 0.27306 0.73378 0 0.73707-0.0023 0.83631-0.58513zm16.696 2.3391c0-0.06518 0.1347-0.2062 0.29934-0.31339 0.28227-0.18378 0.29934-0.36388 0.29934-3.1582 0-2.7553-0.02102-2.9853-0.29934-3.2754-0.16464-0.17164-0.29934-0.34718-0.29934-0.39009s0.50514-0.07802 1.1225-0.07802c1.122 0 1.3895 0.15213 0.8232 0.46811-0.26315 0.14682-0.29934 0.32671-0.29934 1.4878v1.3208h2.6941v-1.3208c0-1.1611-0.03619-1.341-0.29934-1.4878-0.56633-0.31598-0.29881-0.46811 0.8232-0.46811 0.6174 0 1.1225 0.05461 1.1225 0.12136 0 0.06675-0.1347 0.2416-0.29934 0.38856-0.27985 0.2498-0.29934 0.4603-0.29934 3.2321 0 2.7959 0.01706 2.976 0.29934 3.1598 0.51661 0.33635 0.3345 0.4319-0.8232 0.4319-1.0756 0-1.4566-0.18052-0.8232-0.39009 0.27288-0.09029 0.29934-0.23609 0.29934-1.6489v-1.5498h-2.6941v1.481c0 1.312 0.03416 1.5033 0.29934 1.6759 0.51661 0.33635 0.3345 0.4319-0.8232 0.4319-0.6174 0-1.1225-0.05333-1.1225-0.1185zm7.1843 0c0-0.06518 0.1347-0.2062 0.29934-0.31339 0.28227-0.18378 0.29934-0.36388 0.29934-3.1582 0-2.7553-0.02102-2.9853-0.29934-3.2754-0.16464-0.17164-0.29934-0.34718-0.29934-0.39009s0.50514-0.07802 1.1225-0.07802c1.122 0 1.3895 0.15213 0.8232 0.46811-0.2836 0.15823-0.29934 0.32671-0.29934 3.2029 0 2.8669 0.01666 3.0467 0.29934 3.2308 0.51661 0.33635 0.3345 0.4319-0.8232 0.4319-0.6174 0-1.1225-0.05333-1.1225-0.1185zm3.4425 0.04048c0-0.04291 0.1347-0.21845 0.29934-0.39009 0.27777-0.28958 0.29934-0.52012 0.29934-3.1987 0-2.6786-0.02157-2.9092-0.29934-3.1987-0.16464-0.17164-0.29934-0.34718-0.29934-0.39009s0.42123-0.07802 0.93607-0.07802h0.93607l0.81589 2.4291c0.44874 1.336 0.86011 2.4576 0.91416 2.4925 0.05405 0.03482 0.51752-1.0583 1.0299-2.4291l0.93167-2.4925h0.88507c0.9502 0 1.0549 0.09113 0.58572 0.50992-0.27933 0.24934-0.29934 0.4603-0.29934 3.1554 0 2.6801 0.02156 2.9107 0.29934 3.2003 0.16464 0.17164 0.29934 0.34718 0.29934 0.39009s-0.47147 0.07802-1.0477 0.07802c-0.99784 0-1.2941-0.14862-0.83988-0.42134 0.16093-0.09662 0.22086-0.73212 0.26558-2.8164 0.03177-1.4804 0.04847-2.6916 0.03711-2.6916s-0.45079 1.161-0.97652 2.5801c-0.8895 2.4009-0.98078 2.577-1.3144 2.5356-0.31758-0.03942-0.45045-0.31077-1.1631-2.3753-0.44252-1.282-0.83683-2.3645-0.87625-2.4055-0.03942-0.04109-0.07167 1.0908-0.07167 2.5154 0 2.453 0.01584 2.5953 0.29934 2.6891 0.60312 0.19956 0.27416 0.39009-0.67352 0.39009-0.53508 0-0.97287-0.03511-0.97287-0.07802z" fill="#2573d9"/></g></svg>
