<?xml version="1.0" standalone="no"?><!DOCTYPE svg PUBLIC "-//W3C//DTD SVG 1.1//EN" "http://www.w3.org/Graphics/SVG/1.1/DTD/svg11.dtd"><svg t="1754534269630" class="icon" viewBox="0 0 1024 1024" version="1.1" xmlns="http://www.w3.org/2000/svg" p-id="7297" width="16" height="16" xmlns:xlink="http://www.w3.org/1999/xlink"><path d="M489.668923 39.384615c226.934154 0 410.899692 183.965538 410.899692 410.899693 0 119.217231-50.806154 226.579692-131.859692 301.646769l163.288615 158.365538a43.323077 43.323077 0 1 1-60.573538 61.991385l-173.134769-167.936a409.009231 409.009231 0 0 1-208.620308 56.832C262.695385 861.184 78.769231 677.218462 78.769231 450.284308S262.734769 39.384615 489.668923 39.384615z m0 86.646154a324.253538 324.253538 0 1 0 0 648.507077 324.253538 324.253538 0 0 0 0-648.507077zM543.507692 228.627692l4.253539 0.512c42.692923 7.995077 78.848 26.190769 107.638154 54.508308 28.908308 28.396308 47.300923 63.960615 54.941538 105.787077a31.507692 31.507692 0 0 1-61.991385 11.303385c-5.356308-29.262769-17.644308-53.011692-37.139692-72.152616-19.613538-19.298462-44.347077-31.744-75.067077-37.494154a31.507692 31.507692 0 0 1 7.364923-62.464z" fill="#2573D9" p-id="7298"></path></svg>