<?xml version="1.0" standalone="no"?><!DOCTYPE svg PUBLIC "-//W3C//DTD SVG 1.1//EN" "http://www.w3.org/Graphics/SVG/1.1/DTD/svg11.dtd"><svg t="1754544348480" class="icon" viewBox="0 0 1024 1024" version="1.1" xmlns="http://www.w3.org/2000/svg" p-id="22924" width="18" height="18" xmlns:xlink="http://www.w3.org/1999/xlink"><path d="M512 152c96.2 0 186.6 37.4 254.6 105.4S872 415.8 872 512s-37.4 186.6-105.4 254.6S608.2 872 512 872c-96.2 0-186.6-37.4-254.6-105.4S152 608.2 152 512s37.4-186.6 105.4-254.6S415.8 152 512 152m0-56C282.2 96 96 282.2 96 512s186.2 416 416 416 416-186.2 416-416S741.8 96 512 96z" p-id="22925" fill="#2573D9"></path><path d="M727 297c-57.4-57.4-133.8-89-215-89-81.2 0-157.6 31.6-215 89-57.4 57.4-89 133.8-89 215s31.6 157.6 89 215c57.4 57.4 133.8 89 215 89 81.2 0 157.6-31.6 215-89 57.4-57.4 89-133.8 89-215s-31.6-157.6-89-215z" p-id="22926" fill="#2573D9"></path></svg>