<svg version="1.1" id="Layer_1" xmlns="http://www.w3.org/2000/svg" xmlns:xlink="http://www.w3.org/1999/xlink" x="0px" y="0px"
	 width="10%" viewBox="0 0 399 257" enable-background="new 0 0 399 257" xml:space="preserve">
<path fill="#FCFEFE" opacity="1.000000" stroke="none" 
	d="
M295.000000,258.000000 
	C196.666702,258.000000 98.833405,258.000000 1.000079,258.000000 
	C1.000052,172.333405 1.000052,86.666801 1.000026,1.000148 
	C133.999893,1.000098 266.999786,1.000098 399.999756,1.000049 
	C399.999817,86.666527 399.999817,172.333054 399.999908,257.999786 
	C365.166656,258.000000 330.333344,258.000000 295.000000,258.000000 
M105.993019,230.454300 
	C105.993019,230.454300 106.171257,230.064377 106.876083,229.874069 
	C107.209633,228.528046 107.543182,227.182022 107.962532,225.430466 
	C107.962532,225.430466 108.142357,225.056992 108.856262,224.871964 
	C109.183479,223.513702 109.510696,222.155426 109.950706,220.411118 
	C109.950706,220.411118 110.128716,220.050247 110.845444,219.865753 
	C111.166992,218.494003 111.488541,217.122269 111.988953,215.045242 
	C112.434013,213.415604 112.879074,211.785980 113.191666,210.110931 
	C113.191666,210.110931 113.271851,210.225723 113.840866,209.818314 
	C114.328651,208.258896 114.816437,206.699478 115.165482,205.184311 
	C115.165482,205.184311 115.264633,205.290985 116.077744,205.197433 
	C116.405785,205.499832 117.040154,205.827316 117.017731,206.100998 
	C116.116211,217.101288 120.306595,228.580154 114.019470,239.886963 
	C116.148125,242.430801 125.036469,243.030563 127.415604,240.714401 
	C127.809311,240.331131 127.787186,239.520721 128.001221,238.237137 
	C127.009758,237.465057 126.018295,236.692978 124.877708,235.432571 
	C124.772491,235.298813 124.667267,235.165039 124.452576,234.220657 
	C125.006348,220.213348 121.559685,205.898315 127.058105,191.910400 
	C125.045967,191.910400 122.397491,192.086563 119.783302,191.862564 
	C116.975533,191.621979 115.444931,192.653351 114.804588,195.394989 
	C114.357994,197.307144 113.602081,199.147049 112.779953,201.200516 
	C112.779953,201.200516 112.821976,201.470474 112.277275,201.987381 
	C109.812943,208.647110 107.348610,215.306854 104.968147,221.962173 
	C104.968147,221.962173 104.916939,221.895599 104.413490,222.260147 
	C103.978065,222.957413 103.542641,223.654663 103.026062,224.065750 
	C103.026062,224.065750 102.735367,224.002731 102.607193,223.301941 
	C100.800278,218.675430 98.993362,214.048920 97.280563,209.211151 
	C97.280563,209.211151 97.127762,209.037537 97.127594,208.312393 
	C96.500687,206.807724 95.873779,205.303055 95.190117,203.919861 
	C95.190117,203.919861 95.308533,203.856979 95.263649,203.069717 
	C94.822495,201.650146 94.418648,200.217712 93.933914,198.813187 
	C91.416870,191.519699 86.538490,189.624283 80.368187,192.483673 
	C81.247360,196.259094 82.539825,199.686569 82.750610,203.179321 
	C83.129066,209.450302 82.877701,215.760590 82.852196,222.054291 
	C82.828293,227.953934 83.927246,234.118851 79.090652,239.672394 
	C80.954109,243.804642 84.758659,243.288239 87.993675,242.752365 
	C89.463882,242.508835 90.578972,240.121475 91.774414,238.209717 
	C91.514458,237.800262 91.254494,237.390793 90.711998,236.564270 
	C90.401901,236.473816 90.091805,236.383362 89.798843,236.155899 
	C89.798843,236.155899 89.718552,236.268234 89.762886,235.398636 
	C89.503731,228.380753 89.203247,221.363449 89.104347,214.343307 
	C89.099266,213.982651 90.821877,213.597626 91.877182,213.952316 
	C92.543747,215.317734 93.210312,216.683151 94.044899,218.440277 
	C94.044899,218.440277 94.122253,218.859421 94.019341,219.478775 
	C94.314812,219.994904 94.610275,220.511032 95.062943,221.404633 
	C95.062943,221.404633 95.149185,221.804321 95.030312,222.608292 
	C95.965950,224.759750 96.901588,226.911194 98.043358,229.571167 
	C98.144562,229.922256 98.245766,230.273346 98.229385,231.171509 
	C98.445465,231.459412 98.661552,231.747314 99.144478,232.545395 
	C99.424294,233.048203 99.704102,233.551010 100.108803,234.783173 
	C102.081665,236.283478 103.963806,237.375046 104.909683,233.361450 
	C104.909683,233.361450 105.092804,233.008942 105.584511,232.636536 
	C105.691544,232.049042 105.798576,231.461533 105.993019,230.454300 
M19.099606,216.069290 
	C19.099606,216.069290 19.069462,216.186768 19.995367,216.200500 
	C25.630201,216.205154 31.265034,216.209808 36.920601,217.124496 
	C36.978859,218.937561 37.176910,220.758972 37.069386,222.562149 
	C36.735432,228.162552 38.999241,234.419128 33.130058,239.466858 
	C36.628792,244.452637 45.399990,244.107361 47.950809,238.155289 
	C44.569340,235.890137 43.889053,232.684952 44.041336,228.777115 
	C44.320087,221.623871 44.074608,214.451584 44.135330,207.287979 
	C44.178848,202.153656 42.811081,196.635056 49.103367,192.416107 
	C42.995171,192.416107 38.256115,192.416107 34.816669,192.416107 
	C35.614544,196.603943 36.573776,200.473785 37.025028,204.401978 
	C37.345051,207.187775 36.978973,210.052414 35.997829,212.899750 
	C30.357166,212.892441 24.716503,212.885132 18.969538,211.965546 
	C18.909441,207.299789 18.849346,202.634033 19.003798,197.510010 
	C18.970922,197.344574 18.938046,197.179138 19.251524,196.408966 
	C20.439867,195.278351 21.628208,194.147751 23.375051,192.485779 
	C17.664358,192.485779 12.988586,192.485779 8.526841,192.485779 
	C9.855981,194.907761 10.989845,196.973923 11.979078,199.960754 
	C12.028991,210.625854 12.078902,221.290939 11.924466,232.655258 
	C10.646941,234.701080 9.369415,236.746887 8.105612,239.572693 
	C9.912931,244.827957 14.427107,242.970688 17.816908,242.726334 
	C19.580582,242.599182 21.173464,240.102829 22.701803,238.087433 
	C21.471148,237.059021 20.240492,236.030594 19.036800,234.339706 
	C18.928547,233.915375 18.820292,233.491058 18.872669,232.137161 
	C18.844555,227.077316 18.816439,222.017471 19.078775,216.584427 
	C19.078775,216.584427 19.205305,216.128769 19.099606,216.069290 
M70.688332,238.031570 
	C67.424126,236.155441 66.725960,233.239532 66.876350,229.683838 
	C67.093613,224.546875 66.544495,219.357590 67.023109,214.256363 
	C67.711365,206.920731 64.010925,198.867691 70.958504,192.389557 
	C65.664856,192.389557 61.026966,192.389557 57.633789,192.389557 
	C58.443489,196.250870 59.679852,199.840408 59.856926,203.481461 
	C60.203262,210.602829 59.909943,217.753403 59.974495,224.891022 
	C60.020004,229.923630 60.604198,235.061981 56.104668,239.580185 
	C57.917942,244.821335 62.425270,242.971344 65.813507,242.727097 
	C67.579468,242.599792 69.175140,240.110321 70.688332,238.031570 
M297.758057,15.236303 
	C257.578308,55.458828 217.398544,95.681351 176.771027,136.352112 
	C178.304138,136.875153 179.161835,137.427216 180.014786,137.419952 
	C193.491226,137.305435 206.968887,136.930527 220.441971,137.060516 
	C224.651215,137.101120 227.595352,135.828125 230.500046,132.905975 
	C253.289459,109.979622 276.251495,87.224754 299.019257,64.277046 
	C302.148285,61.123295 304.025421,61.267838 307.071869,64.420387 
	C319.912262,77.708046 333.049622,90.708145 345.993378,103.896820 
	C348.821930,106.778931 350.978241,106.174545 353.539795,103.560776 
	C358.997650,97.991692 364.624542,92.587868 370.200287,87.134834 
	C375.144714,82.299194 375.172150,81.865120 370.225586,76.935333 
	C349.489807,56.269814 328.739990,35.618385 308.004852,14.952208 
	C303.111908,10.075526 303.129028,10.058355 297.758057,15.236303 
M133.313385,62.291023 
	C127.799744,56.791531 122.141289,51.427086 116.833588,45.735546 
	C114.181190,42.891342 112.494316,42.642399 109.586365,45.563477 
	C85.516609,69.741837 61.278954,93.752960 37.120628,117.843285 
	C31.096699,123.850266 25.176399,129.961166 18.736542,136.503754 
	C20.321423,136.990021 21.063765,137.420837 21.802189,137.414230 
	C35.608353,137.290634 49.415054,136.960556 63.219196,137.050171 
	C67.063309,137.075119 69.760025,135.859177 72.383644,133.222977 
	C92.827736,112.680779 113.364716,92.231033 133.869049,71.748756 
	C138.217209,67.405258 138.204514,67.024185 133.313385,62.291023 
M195.001373,59.497944 
	C190.159790,54.739189 185.286713,50.011856 180.492340,45.206001 
	C178.609436,43.318607 176.846741,42.372478 174.585190,44.642433 
	C167.940140,51.312168 161.137100,57.831573 154.709885,64.703476 
	C153.754166,65.725334 153.658966,69.146889 154.572876,70.080063 
	C165.837372,81.581978 177.408356,92.782845 188.788620,104.172958 
	C191.387543,106.774109 193.243088,106.059059 195.463684,103.795380 
	C201.612228,97.527489 207.786819,91.280136 214.122009,85.202827 
	C216.672516,82.756134 216.509033,80.961983 214.067947,78.606171 
	C207.759079,72.517738 201.606720,66.267143 195.001373,59.497944 
M160.078293,24.425114 
	C156.325195,20.659903 152.759293,16.673496 148.715836,13.251364 
	C147.330246,12.078687 143.754242,11.255488 142.870987,12.081631 
	C135.723282,18.767048 128.934616,25.841034 122.142570,32.898632 
	C120.495651,34.609947 120.194443,36.347496 122.365379,38.414459 
	C129.107224,44.833420 135.474442,51.650127 142.314468,57.957401 
	C143.419144,58.976048 147.023895,59.061749 148.065277,58.082161 
	C154.831833,51.717197 161.119232,44.846535 167.763855,38.346210 
	C170.014069,36.144859 169.736588,34.274830 167.964294,32.338326 
	C165.611740,29.767805 163.046280,27.392159 160.078293,24.425114 
M316.106171,202.574448 
	C312.599152,199.477386 309.504913,194.579575 305.498474,193.661102 
	C297.356506,191.794586 288.721649,192.078079 280.289948,191.475494 
	C280.084717,191.977005 279.879486,192.478516 279.674286,192.980026 
	C284.322662,194.880371 284.172699,198.641907 284.132935,202.468948 
	C284.050079,210.443878 284.138916,218.420425 284.097443,226.396011 
	C284.074463,230.817062 285.105225,235.602402 279.022827,238.650055 
	C287.233917,238.650055 294.200745,239.216461 301.035156,238.507141 
	C309.641846,237.613907 315.147858,232.390625 317.200409,223.845367 
	C318.862274,216.926590 318.926422,210.049652 316.106171,202.574448 
M266.755493,234.091888 
	C267.573120,231.074127 268.925934,228.086731 269.099335,225.032379 
	C269.485748,218.224060 269.260834,211.382065 269.328278,204.554214 
	C269.370941,200.231476 268.204865,195.499939 274.830231,192.513947 
	C268.551056,192.513947 264.025848,192.513947 259.596802,192.513947 
	C260.978516,194.696686 263.090668,196.503357 263.137878,198.362473 
	C263.395508,208.510971 263.410950,218.684052 262.965912,228.824814 
	C262.715332,234.534607 258.206512,237.619858 252.540985,236.929855 
	C247.077194,236.264420 244.537354,233.173416 244.364044,226.308792 
	C244.183319,219.150574 244.288147,211.984100 244.332489,204.821640 
	C244.359985,200.381210 243.167130,195.566864 249.009033,192.396011 
	C243.141785,192.396011 238.501038,192.396011 235.161057,192.396011 
	C236.028946,196.276230 237.370392,199.938904 237.569336,203.662628 
	C237.950943,210.805084 237.622238,217.982925 237.706909,225.144684 
	C237.768341,230.340942 238.972610,235.127213 243.822479,238.046555 
	C250.338608,241.968887 260.878632,240.350311 266.755493,234.091888 
M383.394592,230.766006 
	C387.582642,221.920135 387.874390,212.782257 385.153809,203.529572 
	C382.891357,195.834991 377.550293,191.532272 370.140259,191.019516 
	C361.563354,190.426025 355.408386,193.822052 351.912811,201.292282 
	C348.304504,209.003464 348.263153,217.077469 349.961243,225.230042 
	C351.506348,232.648254 355.358307,238.285492 363.236908,239.682678 
	C371.422241,241.134247 378.444702,238.990891 383.394592,230.766006 
M206.690765,207.504684 
	C206.690720,213.834717 206.734314,220.165131 206.675781,226.494629 
	C206.634583,230.949188 207.941681,235.920502 200.505142,238.477539 
	C207.566620,238.477539 212.614151,238.477539 217.010452,238.477539 
	C215.715302,236.171631 213.544006,234.068634 213.484161,231.907181 
	C213.148666,219.791489 213.322617,207.661682 213.322617,195.602417 
	C220.557037,194.377167 221.609314,195.039124 224.311005,201.232986 
	C224.864594,202.502121 226.398117,203.343811 228.281433,205.152115 
	C228.281433,199.682800 228.281433,195.947021 228.281433,192.330261 
	C215.828827,192.330261 203.755859,192.330261 191.516479,192.330261 
	C191.516479,196.294083 191.516479,199.916840 191.516479,203.539612 
	C191.881363,203.844284 192.246246,204.148972 192.611130,204.453659 
	C193.674240,203.354309 195.176529,202.438370 195.725296,201.124222 
	C198.253311,195.070557 199.539581,194.303375 206.691086,195.643402 
	C206.691086,199.224365 206.691086,202.866135 206.690765,207.504684 
M175.832565,239.804382 
	C181.589371,238.638184 185.469040,235.588974 186.473434,229.474762 
	C187.517868,223.116760 185.031403,218.434875 179.764023,215.104340 
	C176.678024,213.153076 173.430573,211.459076 170.306747,209.565231 
	C166.385956,207.188171 164.695679,203.329880 166.268570,199.334778 
	C167.156143,197.080368 170.230972,194.875397 172.723633,194.246902 
	C176.901993,193.193375 179.912216,195.610382 181.670731,199.660355 
	C182.175888,200.823700 183.719849,201.536026 185.410156,202.991150 
	C186.544281,191.764221 186.012131,191.161240 176.196960,190.982712 
	C175.032455,190.961533 173.864120,190.937866 172.702591,191.003922 
	C166.028320,191.383514 161.351929,194.746338 159.867477,200.198914 
	C158.286285,206.006866 160.288345,210.712036 166.207977,214.535156 
	C169.273315,216.514847 172.554871,218.156540 175.667801,220.066544 
	C179.983749,222.714691 180.782623,226.836700 179.904190,231.394226 
	C179.206741,235.012787 176.468689,236.627594 173.075027,236.916122 
	C168.511490,237.304138 165.026093,235.679626 163.081940,231.148697 
	C162.606491,230.040604 160.965286,229.432678 159.154327,228.059799 
	C159.154327,232.381332 159.154327,235.173248 159.154327,238.935730 
	C164.495926,239.257278 169.731155,239.572433 175.832565,239.804382 
M328.987061,235.971375 
	C328.106445,236.706070 327.225830,237.440765 325.892761,238.552917 
	C331.415283,238.552917 336.034943,238.552917 339.444305,238.552917 
	C338.556915,235.470062 337.138519,232.617416 337.014038,229.709381 
	C336.680359,221.914474 336.843750,214.095261 336.922089,206.286835 
	C336.970978,201.415329 335.408020,196.059799 342.170288,192.321899 
	C335.950439,192.321899 331.320618,192.321899 327.736053,192.321899 
	C332.546661,206.587021 329.997772,221.063660 328.987061,235.971375 
M151.407562,222.456787 
	C151.532425,220.361160 151.696655,218.539841 148.474655,218.777802 
	C144.397598,219.078903 140.281448,218.850571 135.846817,218.850571 
	C135.941422,220.841858 136.013168,222.352127 136.103867,224.261261 
	C141.480560,223.970932 146.385544,223.706085 151.407562,222.456787 
z"/>
<path fill="#0B82EE" opacity="1.000000" stroke="none" 
	d="
M298.010803,14.971512 
	C303.129028,10.058355 303.111908,10.075526 308.004852,14.952208 
	C328.739990,35.618385 349.489807,56.269814 370.225586,76.935333 
	C375.172150,81.865120 375.144714,82.299194 370.200287,87.134834 
	C364.624542,92.587868 358.997650,97.991692 353.539795,103.560776 
	C350.978241,106.174545 348.821930,106.778931 345.993378,103.896820 
	C333.049622,90.708145 319.912262,77.708046 307.071869,64.420387 
	C304.025421,61.267838 302.148285,61.123295 299.019257,64.277046 
	C276.251495,87.224754 253.289459,109.979622 230.500046,132.905975 
	C227.595352,135.828125 224.651215,137.101120 220.441971,137.060516 
	C206.968887,136.930527 193.491226,137.305435 180.014786,137.419952 
	C179.161835,137.427216 178.304138,136.875153 176.771027,136.352112 
	C217.398544,95.681351 257.578308,55.458828 298.010803,14.971512 
z"/>
<path fill="#0B83EE" opacity="1.000000" stroke="none" 
	d="
M133.529755,62.576580 
	C138.204514,67.024185 138.217209,67.405258 133.869049,71.748756 
	C113.364716,92.231033 92.827736,112.680779 72.383644,133.222977 
	C69.760025,135.859177 67.063309,137.075119 63.219196,137.050171 
	C49.415054,136.960556 35.608353,137.290634 21.802189,137.414230 
	C21.063765,137.420837 20.321423,136.990021 18.736542,136.503754 
	C25.176399,129.961166 31.096699,123.850266 37.120628,117.843285 
	C61.278954,93.752960 85.516609,69.741837 109.586365,45.563477 
	C112.494316,42.642399 114.181190,42.891342 116.833588,45.735546 
	C122.141289,51.427086 127.799744,56.791531 133.529755,62.576580 
z"/>
<path fill="#0D84EE" opacity="1.000000" stroke="none" 
	d="
M195.196625,59.789627 
	C201.606720,66.267143 207.759079,72.517738 214.067947,78.606171 
	C216.509033,80.961983 216.672516,82.756134 214.122009,85.202827 
	C207.786819,91.280136 201.612228,97.527489 195.463684,103.795380 
	C193.243088,106.059059 191.387543,106.774109 188.788620,104.172958 
	C177.408356,92.782845 165.837372,81.581978 154.572876,70.080063 
	C153.658966,69.146889 153.754166,65.725334 154.709885,64.703476 
	C161.137100,57.831573 167.940140,51.312168 174.585190,44.642433 
	C176.846741,42.372478 178.609436,43.318607 180.492340,45.206001 
	C185.286713,50.011856 190.159790,54.739189 195.196625,59.789627 
z"/>
<path fill="#AEF00F" opacity="1.000000" stroke="none" 
	d="
M160.325287,24.678944 
	C163.046280,27.392159 165.611740,29.767805 167.964294,32.338326 
	C169.736588,34.274830 170.014069,36.144859 167.763855,38.346210 
	C161.119232,44.846535 154.831833,51.717197 148.065277,58.082161 
	C147.023895,59.061749 143.419144,58.976048 142.314468,57.957401 
	C135.474442,51.650127 129.107224,44.833420 122.365379,38.414459 
	C120.194443,36.347496 120.495651,34.609947 122.142570,32.898632 
	C128.934616,25.841034 135.723282,18.767048 142.870987,12.081631 
	C143.754242,11.255488 147.330246,12.078687 148.715836,13.251364 
	C152.759293,16.673496 156.325195,20.659903 160.325287,24.678944 
z"/>
<path fill="#565656" opacity="1.000000" stroke="none" 
	d="
M316.264160,202.926910 
	C318.926422,210.049652 318.862274,216.926590 317.200409,223.845367 
	C315.147858,232.390625 309.641846,237.613907 301.035156,238.507141 
	C294.200745,239.216461 287.233917,238.650055 279.022827,238.650055 
	C285.105225,235.602402 284.074463,230.817062 284.097443,226.396011 
	C284.138916,218.420425 284.050079,210.443878 284.132935,202.468948 
	C284.172699,198.641907 284.322662,194.880371 279.674286,192.980026 
	C279.879486,192.478516 280.084717,191.977005 280.289948,191.475494 
	C288.721649,192.078079 297.356506,191.794586 305.498474,193.661102 
	C309.504913,194.579575 312.599152,199.477386 316.264160,202.926910 
M306.243378,199.260574 
	C301.884277,195.173264 296.676727,194.592850 291.004181,195.276505 
	C291.004181,208.944260 291.004181,222.292633 291.004181,235.840683 
	C297.966522,236.150375 304.845581,236.160019 308.114410,229.171829 
	C312.699890,219.368774 313.017517,209.330444 306.243378,199.260574 
z"/>
<path fill="#535353" opacity="1.000000" stroke="none" 
	d="
M266.532745,234.393600 
	C260.878632,240.350311 250.338608,241.968887 243.822479,238.046555 
	C238.972610,235.127213 237.768341,230.340942 237.706909,225.144684 
	C237.622238,217.982925 237.950943,210.805084 237.569336,203.662628 
	C237.370392,199.938904 236.028946,196.276230 235.161057,192.396011 
	C238.501038,192.396011 243.141785,192.396011 249.009033,192.396011 
	C243.167130,195.566864 244.359985,200.381210 244.332489,204.821640 
	C244.288147,211.984100 244.183319,219.150574 244.364044,226.308792 
	C244.537354,233.173416 247.077194,236.264420 252.540985,236.929855 
	C258.206512,237.619858 262.715332,234.534607 262.965912,228.824814 
	C263.410950,218.684052 263.395508,208.510971 263.137878,198.362473 
	C263.090668,196.503357 260.978516,194.696686 259.596802,192.513947 
	C264.025848,192.513947 268.551056,192.513947 274.830231,192.513947 
	C268.204865,195.499939 269.370941,200.231476 269.328278,204.554214 
	C269.260834,211.382065 269.485748,218.224060 269.099335,225.032379 
	C268.925934,228.086731 267.573120,231.074127 266.532745,234.393600 
z"/>
<path fill="#545454" opacity="1.000000" stroke="none" 
	d="
M383.203796,231.084106 
	C378.444702,238.990891 371.422241,241.134247 363.236908,239.682678 
	C355.358307,238.285492 351.506348,232.648254 349.961243,225.230042 
	C348.263153,217.077469 348.304504,209.003464 351.912811,201.292282 
	C355.408386,193.822052 361.563354,190.426025 370.140259,191.019516 
	C377.550293,191.532272 382.891357,195.834991 385.153809,203.529572 
	C387.874390,212.782257 387.582642,221.920135 383.203796,231.084106 
M357.787781,202.667542 
	C355.390045,211.568787 355.419006,220.462616 358.334808,229.210724 
	C359.871979,233.822601 363.045746,237.024429 368.249390,236.912796 
	C373.475281,236.800674 377.176666,233.397690 377.600555,228.732376 
	C378.372040,220.241837 378.393311,211.584000 377.638672,203.092743 
	C377.216217,198.338852 373.803314,194.429352 368.328003,194.091812 
	C362.852539,193.754227 359.871643,197.209244 357.787781,202.667542 
z"/>
<path fill="#1981DF" opacity="1.000000" stroke="none" 
	d="
M18.788322,216.957626 
	C18.816439,222.017471 18.844555,227.077316 18.614492,232.777039 
	C18.574156,233.945328 18.791996,234.473755 19.009834,235.002167 
	C20.240492,236.030594 21.471148,237.059021 22.325275,238.477753 
	C17.329794,238.842941 12.710839,238.817825 8.091887,238.792694 
	C9.369415,236.746887 10.646941,234.701080 12.297127,231.996918 
	C12.780560,223.616226 12.984190,215.893539 12.955935,208.171692 
	C12.944795,205.126846 12.416509,202.083893 12.123709,199.040070 
	C10.989845,196.973923 9.855981,194.907761 8.526841,192.485779 
	C12.988586,192.485779 17.664358,192.485779 23.375051,192.485779 
	C21.628208,194.147751 20.439867,195.278351 18.927038,196.788895 
	C18.538538,197.261108 18.399658,197.390305 18.423740,197.439148 
	C18.517534,197.629349 18.663002,197.794083 18.789249,197.968277 
	C18.849346,202.634033 18.909441,207.299789 19.277443,212.748535 
	C25.363279,213.314957 31.141209,213.098404 36.919144,212.881851 
	C36.978973,210.052414 37.345051,207.187775 37.025028,204.401978 
	C36.573776,200.473785 35.614544,196.603943 34.816669,192.416107 
	C38.256115,192.416107 42.995171,192.416107 49.103367,192.416107 
	C42.811081,196.635056 44.178848,202.153656 44.135330,207.287979 
	C44.074608,214.451584 44.320087,221.623871 44.041336,228.777115 
	C43.889053,232.684952 44.569340,235.890137 47.490139,238.565430 
	C42.404922,238.879196 37.780373,238.782806 33.155827,238.686417 
	C38.999241,234.419128 36.735432,228.162552 37.069386,222.562149 
	C37.176910,220.758972 36.978859,218.937561 36.681847,216.320190 
	C30.651882,215.739517 24.860672,215.963135 19.069462,216.186768 
	C19.069462,216.186768 19.099606,216.069290 18.964703,216.108994 
	C18.725508,216.211594 18.523840,216.302017 18.532591,216.332993 
	C18.593369,216.548126 18.697859,216.750885 18.788322,216.957626 
z"/>
<path fill="#505050" opacity="1.000000" stroke="none" 
	d="
M206.690918,207.006287 
	C206.691086,202.866135 206.691086,199.224365 206.691086,195.643402 
	C199.539581,194.303375 198.253311,195.070557 195.725296,201.124222 
	C195.176529,202.438370 193.674240,203.354309 192.611130,204.453659 
	C192.246246,204.148972 191.881363,203.844284 191.516479,203.539612 
	C191.516479,199.916840 191.516479,196.294083 191.516479,192.330261 
	C203.755859,192.330261 215.828827,192.330261 228.281433,192.330261 
	C228.281433,195.947021 228.281433,199.682800 228.281433,205.152115 
	C226.398117,203.343811 224.864594,202.502121 224.311005,201.232986 
	C221.609314,195.039124 220.557037,194.377167 213.322617,195.602417 
	C213.322617,207.661682 213.148666,219.791489 213.484161,231.907181 
	C213.544006,234.068634 215.715302,236.171631 217.010452,238.477539 
	C212.614151,238.477539 207.566620,238.477539 200.505142,238.477539 
	C207.941681,235.920502 206.634583,230.949188 206.675781,226.494629 
	C206.734314,220.165131 206.690720,213.834717 206.690918,207.006287 
z"/>
<path fill="#545454" opacity="1.000000" stroke="none" 
	d="
M175.399475,239.845978 
	C169.731155,239.572433 164.495926,239.257278 159.154327,238.935730 
	C159.154327,235.173248 159.154327,232.381332 159.154327,228.059799 
	C160.965286,229.432678 162.606491,230.040604 163.081940,231.148697 
	C165.026093,235.679626 168.511490,237.304138 173.075027,236.916122 
	C176.468689,236.627594 179.206741,235.012787 179.904190,231.394226 
	C180.782623,226.836700 179.983749,222.714691 175.667801,220.066544 
	C172.554871,218.156540 169.273315,216.514847 166.207977,214.535156 
	C160.288345,210.712036 158.286285,206.006866 159.867477,200.198914 
	C161.351929,194.746338 166.028320,191.383514 172.702591,191.003922 
	C173.864120,190.937866 175.032455,190.961533 176.196960,190.982712 
	C186.012131,191.161240 186.544281,191.764221 185.410156,202.991150 
	C183.719849,201.536026 182.175888,200.823700 181.670731,199.660355 
	C179.912216,195.610382 176.901993,193.193375 172.723633,194.246902 
	C170.230972,194.875397 167.156143,197.080368 166.268570,199.334778 
	C164.695679,203.329880 166.385956,207.188171 170.306747,209.565231 
	C173.430573,211.459076 176.678024,213.153076 179.764023,215.104340 
	C185.031403,218.434875 187.517868,223.116760 186.473434,229.474762 
	C185.469040,235.588974 181.589371,238.638184 175.399475,239.845978 
z"/>
<path fill="#1181E7" opacity="1.000000" stroke="none" 
	d="
M97.127762,209.037537 
	C97.127762,209.037537 97.280563,209.211151 97.179352,209.749329 
	C98.963882,214.859253 100.849625,219.430984 102.735367,224.002731 
	C102.735367,224.002731 103.026062,224.065750 103.297424,224.378326 
	C104.018166,223.759140 104.467552,222.827377 104.916939,221.895599 
	C104.916939,221.895599 104.968147,221.962173 105.229172,221.785156 
	C107.934128,214.895569 110.378052,208.183029 112.821976,201.470474 
	C112.821976,201.470474 112.779953,201.200516 113.165222,200.974213 
	C114.352676,199.819794 115.154861,198.891693 116.079834,198.194458 
	C116.481392,198.627655 116.760155,198.830002 117.014847,199.406860 
	C116.415398,201.617920 115.840019,203.454453 115.264633,205.290985 
	C115.264633,205.290985 115.165482,205.184311 114.889008,205.292938 
	C114.165634,207.009613 113.718742,208.617676 113.271851,210.225723 
	C113.271851,210.225723 113.191666,210.110931 112.909111,210.256454 
	C112.073372,212.251740 111.520195,214.101517 110.980545,215.966629 
	C110.994080,215.981979 110.956902,215.981644 110.648331,216.159546 
	C109.884911,217.881104 109.430046,219.424759 108.989586,220.979858 
	C109.003983,220.991318 108.969086,220.986221 108.723869,221.171326 
	C108.355522,221.941544 108.232384,222.526672 108.080856,223.070923 
	C108.052460,223.030075 108.149460,223.052277 107.850784,223.224365 
	C107.371849,224.272461 107.191582,225.148453 107.003197,226.014420 
	C106.995071,226.004379 107.020218,226.001129 106.764595,226.178574 
	C106.384560,226.946136 106.260147,227.536255 106.104858,228.076584 
	C106.073982,228.026794 106.180458,228.075684 105.883476,228.226059 
	C105.343277,229.207428 105.100067,230.038406 104.550308,231.071320 
	C102.199936,232.302017 100.510544,232.712769 99.865990,229.630371 
	C99.669411,228.690292 98.568481,227.939346 97.893692,227.090118 
	C97.905670,227.078430 97.922699,227.088242 97.948853,226.737793 
	C97.611557,225.604233 97.248108,224.821136 96.902664,224.059601 
	C96.920662,224.081177 96.866127,224.100586 96.908768,223.710449 
	C95.937073,220.904297 94.922737,218.488266 93.923477,216.060242 
	C93.938553,216.048233 93.940956,216.073395 93.964851,215.725342 
	C93.632401,214.592865 93.276047,213.808426 92.956825,213.028046 
	C92.993958,213.032074 92.937424,213.080902 92.966064,212.722748 
	C92.583069,211.598282 92.171425,210.831985 91.542061,209.788116 
	C90.120216,206.435211 88.916100,203.359848 87.383255,199.444885 
	C87.383255,210.075348 87.282089,219.668015 87.454819,229.255768 
	C87.497673,231.634628 88.427567,233.997513 88.844559,236.716278 
	C86.520508,237.453140 84.301613,237.841476 83.305832,238.015747 
	C84.342140,222.845810 84.420013,208.224945 83.283119,193.454498 
	C89.742203,192.259918 89.807503,192.342773 92.496361,198.833267 
	C93.225784,200.593994 94.360069,202.186996 95.308533,203.856979 
	C95.308533,203.856979 95.190117,203.919861 95.133560,204.231674 
	C95.760590,206.041504 96.444176,207.539520 97.127762,209.037537 
z"/>
<path fill="#1D83E0" opacity="1.000000" stroke="none" 
	d="
M56.088348,238.801208 
	C60.604198,235.061981 60.020004,229.923630 59.974495,224.891022 
	C59.909943,217.753403 60.203262,210.602829 59.856926,203.481461 
	C59.679852,199.840408 58.443489,196.250870 57.633789,192.389557 
	C61.026966,192.389557 65.664856,192.389557 70.958504,192.389557 
	C64.010925,198.867691 67.711365,206.920731 67.023109,214.256363 
	C66.544495,219.357590 67.093613,224.546875 66.876350,229.683838 
	C66.725960,233.239532 67.424126,236.155441 70.320259,238.454834 
	C65.330910,238.852478 60.709629,238.826843 56.088348,238.801208 
z"/>
<path fill="#585858" opacity="1.000000" stroke="none" 
	d="
M329.280212,235.684265 
	C329.997772,221.063660 332.546661,206.587021 327.736053,192.321899 
	C331.320618,192.321899 335.950439,192.321899 342.170288,192.321899 
	C335.408020,196.059799 336.970978,201.415329 336.922089,206.286835 
	C336.843750,214.095261 336.680359,221.914474 337.014038,229.709381 
	C337.138519,232.617416 338.556915,235.470062 339.444305,238.552917 
	C336.034943,238.552917 331.415283,238.552917 325.892761,238.552917 
	C327.225830,237.440765 328.106445,236.706070 329.280212,235.684265 
z"/>
<path fill="#057FEC" opacity="1.000000" stroke="none" 
	d="
M117.038925,199.032349 
	C116.760155,198.830002 116.481392,198.627655 116.094452,197.798523 
	C117.254013,192.072037 120.609604,194.248535 123.672699,194.563232 
	C123.052658,196.893539 122.142014,198.781189 122.113121,200.682251 
	C121.964058,210.488632 121.924309,220.301163 122.152374,230.104431 
	C122.190987,231.764496 123.721046,233.389862 124.562042,235.031250 
	C124.667267,235.165039 124.772491,235.298813 124.866043,236.061218 
	C122.552338,237.254364 120.250298,237.818893 118.253578,238.308533 
	C118.528938,232.672180 118.769753,227.941208 118.988930,223.209244 
	C119.292786,216.649368 119.763794,210.087997 119.736519,203.529037 
	C119.730270,202.026428 117.984253,200.531052 117.038925,199.032349 
z"/>
<path fill="#2B84D5" opacity="1.000000" stroke="none" 
	d="
M124.507309,234.625946 
	C123.721046,233.389862 122.190987,231.764496 122.152374,230.104431 
	C121.924309,220.301163 121.964058,210.488632 122.113121,200.682251 
	C122.142014,198.781189 123.052658,196.893539 123.672699,194.563232 
	C120.609604,194.248535 117.254013,192.072037 115.971672,197.567657 
	C115.154861,198.891693 114.352676,199.819794 113.267410,200.883560 
	C113.602081,199.147049 114.357994,197.307144 114.804588,195.394989 
	C115.444931,192.653351 116.975533,191.621979 119.783302,191.862564 
	C122.397491,192.086563 125.045967,191.910400 127.058105,191.910400 
	C121.559685,205.898315 125.006348,220.213348 124.507309,234.625946 
z"/>
<path fill="#2B84D5" opacity="1.000000" stroke="none" 
	d="
M117.014847,199.406860 
	C117.984253,200.531052 119.730270,202.026428 119.736519,203.529037 
	C119.763794,210.087997 119.292786,216.649368 118.988930,223.209244 
	C118.769753,227.941208 118.528938,232.672180 118.253578,238.308533 
	C120.250298,237.818893 122.552338,237.254364 124.940605,236.305374 
	C126.018295,236.692978 127.009758,237.465057 127.518898,238.617462 
	C122.680397,239.022110 118.324219,239.046448 113.968040,239.070801 
	C120.306595,228.580154 116.116211,217.101288 117.017731,206.100998 
	C117.040154,205.827316 116.405785,205.499832 115.671188,205.244202 
	C115.840019,203.454453 116.415398,201.617920 117.014847,199.406860 
z"/>
<path fill="#2B84D5" opacity="1.000000" stroke="none" 
	d="
M95.286087,203.463348 
	C94.360069,202.186996 93.225784,200.593994 92.496361,198.833267 
	C89.807503,192.342773 89.742203,192.259918 83.283119,193.454498 
	C84.420013,208.224945 84.342140,222.845810 83.305832,238.015747 
	C84.301613,237.841476 86.520508,237.453140 89.037041,236.692444 
	C89.334679,236.320084 89.718552,236.268234 89.718552,236.268234 
	C89.718552,236.268234 89.798843,236.155899 89.916702,236.445251 
	C90.354553,236.816849 90.674545,236.899094 90.994530,236.981339 
	C91.254494,237.390793 91.514458,237.800262 91.369858,238.555206 
	C86.988396,238.907410 83.011497,238.914124 79.034599,238.920837 
	C83.927246,234.118851 82.828293,227.953934 82.852196,222.054291 
	C82.877701,215.760590 83.129066,209.450302 82.750610,203.179321 
	C82.539825,199.686569 81.247360,196.259094 80.368187,192.483673 
	C86.538490,189.624283 91.416870,191.519699 93.933914,198.813187 
	C94.418648,200.217712 94.822495,201.650146 95.286087,203.463348 
z"/>
<path fill="#BADFFA" opacity="1.000000" stroke="none" 
	d="
M89.740723,235.833435 
	C89.718552,236.268234 89.334679,236.320084 89.142197,236.343918 
	C88.427567,233.997513 87.497673,231.634628 87.454819,229.255768 
	C87.282089,219.668015 87.383255,210.075348 87.383255,199.444885 
	C88.916100,203.359848 90.120216,206.435211 91.587570,210.137146 
	C91.955956,211.457886 92.061096,212.152023 92.060745,212.941803 
	C91.955254,213.037415 91.740105,213.223953 91.740105,213.223953 
	C90.821877,213.597626 89.099266,213.982651 89.104347,214.343307 
	C89.203247,221.363449 89.503731,228.380753 89.740723,235.833435 
z"/>
<path fill="#000000" opacity="1.000000" stroke="none" 
	d="
M151.349045,222.949005 
	C146.385544,223.706085 141.480560,223.970932 136.103867,224.261261 
	C136.013168,222.352127 135.941422,220.841858 135.846817,218.850571 
	C140.281448,218.850571 144.397598,219.078903 148.474655,218.777802 
	C151.696655,218.539841 151.532425,220.361160 151.349045,222.949005 
z"/>
<path fill="#DEE8EF" opacity="1.000000" stroke="none" 
	d="
M56.096508,239.190704 
	C60.709629,238.826843 65.330910,238.852478 70.399956,238.782959 
	C69.175140,240.110321 67.579468,242.599792 65.813507,242.727097 
	C62.425270,242.971344 57.917942,244.821335 56.096508,239.190704 
z"/>
<path fill="#DEE8EF" opacity="1.000000" stroke="none" 
	d="
M8.098747,239.182693 
	C12.710839,238.817825 17.329794,238.842941 22.396122,238.772369 
	C21.173464,240.102829 19.580582,242.599182 17.816908,242.726334 
	C14.427107,242.970688 9.912931,244.827957 8.098747,239.182693 
z"/>
<path fill="#DCE7EE" opacity="1.000000" stroke="none" 
	d="
M33.142944,239.076630 
	C37.780373,238.782806 42.404922,238.879196 47.490204,238.929504 
	C45.399990,244.107361 36.628792,244.452637 33.142944,239.076630 
z"/>
<path fill="#DEE8EF" opacity="1.000000" stroke="none" 
	d="
M79.062622,239.296616 
	C83.011497,238.914124 86.988396,238.907410 91.410217,238.803650 
	C90.578972,240.121475 89.463882,242.508835 87.993675,242.752365 
	C84.758659,243.288239 80.954109,243.804642 79.062622,239.296616 
z"/>
<path fill="#D7E3ED" opacity="1.000000" stroke="none" 
	d="
M113.993759,239.478882 
	C118.324219,239.046448 122.680397,239.022110 127.496902,238.952728 
	C127.787186,239.520721 127.809311,240.331131 127.415604,240.714401 
	C125.036469,243.030563 116.148125,242.430801 113.993759,239.478882 
z"/>
<path fill="#1C83E0" opacity="1.000000" stroke="none" 
	d="
M12.051394,199.500412 
	C12.416509,202.083893 12.944795,205.126846 12.955935,208.171692 
	C12.984190,215.893539 12.780560,223.616226 12.399300,231.647308 
	C12.078902,221.290939 12.028991,210.625854 12.051394,199.500412 
z"/>
<path fill="#2B84D5" opacity="1.000000" stroke="none" 
	d="
M112.549622,201.728928 
	C110.378052,208.183029 107.934128,214.895569 105.187241,221.787354 
	C107.348610,215.306854 109.812943,208.647110 112.549622,201.728928 
z"/>
<path fill="#2B84D5" opacity="1.000000" stroke="none" 
	d="
M102.671280,223.652344 
	C100.849625,219.430984 98.963882,214.859253 97.132286,209.854950 
	C98.993362,214.048920 100.800278,218.675430 102.671280,223.652344 
z"/>
<path fill="#2B84D5" opacity="1.000000" stroke="none" 
	d="
M97.881714,227.101791 
	C98.568481,227.939346 99.669411,228.690292 99.865990,229.630371 
	C100.510544,232.712769 102.199936,232.302017 104.606689,231.121948 
	C104.969612,230.970657 105.078857,231.071198 105.064156,231.395554 
	C105.063904,232.149582 105.078354,232.579269 105.092804,233.008942 
	C105.092804,233.008942 104.909683,233.361450 104.457047,233.613968 
	C102.664238,233.928925 101.324081,233.991379 99.983917,234.053818 
	C99.704102,233.551010 99.424294,233.048203 99.044891,232.020569 
	C98.745865,231.205307 98.546417,230.914871 98.346970,230.624435 
	C98.245766,230.273346 98.144562,229.922256 97.997696,228.992935 
	C97.928589,227.977066 97.905151,227.539429 97.881714,227.101791 
z"/>
<path fill="#1D79CD" opacity="1.000000" stroke="none" 
	d="
M19.532413,216.193634 
	C24.860672,215.963135 30.651882,215.739517 36.671478,215.865173 
	C31.265034,216.209808 25.630201,216.205154 19.532413,216.193634 
z"/>
<path fill="#1D79CD" opacity="1.000000" stroke="none" 
	d="
M36.458485,212.890808 
	C31.141209,213.098404 25.363279,213.314957 19.330593,213.204666 
	C24.716503,212.885132 30.357166,212.892441 36.458485,212.890808 
z"/>
<path fill="#2B84D5" opacity="1.000000" stroke="none" 
	d="
M93.908401,216.072235 
	C94.922737,218.488266 95.937073,220.904297 96.677612,223.525238 
	C95.985611,223.088211 95.567398,222.446259 95.149185,221.804321 
	C95.149185,221.804321 95.062943,221.404633 95.037827,220.906937 
	C94.715897,219.892639 94.419075,219.376022 94.122253,218.859421 
	C94.122253,218.859421 94.044899,218.440277 94.014374,217.917236 
	C93.958694,216.953552 93.933540,216.512894 93.908401,216.072235 
z"/>
<path fill="#BADFFA" opacity="1.000000" stroke="none" 
	d="
M95.089752,222.206299 
	C95.567398,222.446259 95.985611,223.088211 96.634972,223.915375 
	C96.866127,224.100586 96.920662,224.081177 96.901749,224.397736 
	C97.229454,225.505615 97.576073,226.296936 97.922699,227.088242 
	C97.922699,227.088242 97.905670,227.078430 97.893692,227.090118 
	C97.905151,227.539429 97.928589,227.977066 97.894623,228.738678 
	C96.901588,226.911194 95.965950,224.759750 95.089752,222.206299 
z"/>
<path fill="#BADFFA" opacity="1.000000" stroke="none" 
	d="
M100.046356,234.418488 
	C101.324081,233.991379 102.664238,233.928925 104.400894,233.804489 
	C103.963806,237.375046 102.081665,236.283478 100.046356,234.418488 
z"/>
<path fill="#2B84D5" opacity="1.000000" stroke="none" 
	d="
M110.967010,215.951279 
	C111.520195,214.101517 112.073372,212.251740 112.975342,210.279160 
	C112.879074,211.785980 112.434013,213.415604 111.684204,215.428314 
	C111.379456,215.811371 110.967010,215.951279 110.967010,215.951279 
z"/>
<path fill="#BADFFA" opacity="1.000000" stroke="none" 
	d="
M93.923477,216.060242 
	C93.933540,216.512894 93.958694,216.953552 93.930359,217.721390 
	C93.210312,216.683151 92.543747,215.317734 91.808640,213.588135 
	C91.740105,213.223953 91.955254,213.037415 92.249588,213.013199 
	C92.543922,212.988983 92.937424,213.080902 92.937424,213.080902 
	C92.937424,213.080902 92.993958,213.032074 92.956787,213.363953 
	C93.260056,214.488358 93.600510,215.280884 93.940956,216.073395 
	C93.940956,216.073395 93.938553,216.048233 93.923477,216.060242 
z"/>
<path fill="#2B84D5" opacity="1.000000" stroke="none" 
	d="
M113.556351,210.022018 
	C113.718742,208.617676 114.165634,207.009613 114.958374,205.270813 
	C114.816437,206.699478 114.328651,208.258896 113.556351,210.022018 
z"/>
<path fill="#2B84D5" opacity="1.000000" stroke="none" 
	d="
M97.127678,208.674957 
	C96.444176,207.539520 95.760590,206.041504 95.161942,204.170929 
	C95.873779,205.303055 96.500687,206.807724 97.127678,208.674957 
z"/>
<path fill="#BADFFA" opacity="1.000000" stroke="none" 
	d="
M109.837921,220.797165 
	C109.510696,222.155426 109.183479,223.513702 108.455338,224.631516 
	C108.086090,223.944809 108.117775,223.498535 108.149460,223.052277 
	C108.149460,223.052277 108.052460,223.030075 108.319695,222.884369 
	C108.714317,222.154510 108.841705,221.570358 108.969086,220.986221 
	C108.969086,220.986221 109.003983,220.991318 109.201035,220.915588 
	C109.398094,220.839859 109.837914,220.797165 109.837921,220.797165 
z"/>
<path fill="#BADFFA" opacity="1.000000" stroke="none" 
	d="
M110.980545,215.966629 
	C110.967010,215.951279 111.379456,215.811371 111.594772,215.780945 
	C111.488541,217.122269 111.166992,218.494003 110.454193,219.607788 
	C110.360924,218.227112 110.658913,217.104370 110.956894,215.981644 
	C110.956902,215.981644 110.994080,215.981979 110.980545,215.966629 
z"/>
<path fill="#BADFFA" opacity="1.000000" stroke="none" 
	d="
M107.876740,225.835999 
	C107.543182,227.182022 107.209633,228.528046 106.478096,229.638885 
	C106.113556,228.961044 106.147003,228.518356 106.180458,228.075684 
	C106.180458,228.075684 106.073982,228.026794 106.342834,227.888062 
	C106.747864,227.166611 106.884041,226.583862 107.020218,226.001129 
	C107.020218,226.001129 106.995071,226.004379 107.215088,225.946777 
	C107.435112,225.889175 107.876740,225.835999 107.876740,225.835999 
z"/>
<path fill="#2B84D5" opacity="1.000000" stroke="none" 
	d="
M110.648331,216.159546 
	C110.658913,217.104370 110.360924,218.227112 110.095825,219.700043 
	C110.128716,220.050247 109.950706,220.411118 109.894310,220.604141 
	C109.837914,220.797165 109.398094,220.839859 109.186646,220.904129 
	C109.430046,219.424759 109.884911,217.881104 110.648331,216.159546 
z"/>
<path fill="#2B84D5" opacity="1.000000" stroke="none" 
	d="
M104.665215,222.077881 
	C104.467552,222.827377 104.018166,223.759140 103.337997,224.521423 
	C103.542641,223.654663 103.978065,222.957413 104.665215,222.077881 
z"/>
<path fill="#2B84D5" opacity="1.000000" stroke="none" 
	d="
M107.919632,225.633240 
	C107.876740,225.835999 107.435112,225.889175 107.223221,225.956818 
	C107.191582,225.148453 107.371849,224.272461 107.850784,223.224365 
	C108.117775,223.498535 108.086090,223.944809 108.098381,224.724030 
	C108.142357,225.056992 107.962532,225.430466 107.919632,225.633240 
z"/>
<path fill="#2B84D5" opacity="1.000000" stroke="none" 
	d="
M105.883476,228.226059 
	C106.147003,228.518356 106.113556,228.961044 106.125687,229.734039 
	C106.171257,230.064377 105.993019,230.454300 105.736328,230.686676 
	C105.479630,230.919037 105.078857,231.071198 105.078857,231.071198 
	C105.078857,231.071198 104.969612,230.970657 104.913231,230.920029 
	C105.100067,230.038406 105.343277,229.207428 105.883476,228.226059 
z"/>
<path fill="#1C83E0" opacity="1.000000" stroke="none" 
	d="
M19.023319,234.670929 
	C18.791996,234.473755 18.574156,233.945328 18.534176,233.241821 
	C18.820292,233.491058 18.928547,233.915375 19.023319,234.670929 
z"/>
<path fill="#BADFFA" opacity="1.000000" stroke="none" 
	d="
M105.064156,231.395554 
	C105.078857,231.071198 105.479630,230.919037 105.692612,230.896545 
	C105.798576,231.461533 105.691544,232.049042 105.338654,232.822739 
	C105.078354,232.579269 105.063904,232.149582 105.064156,231.395554 
z"/>
<path fill="#BADFFA" opacity="1.000000" stroke="none" 
	d="
M94.070801,219.169098 
	C94.419075,219.376022 94.715897,219.892639 94.959229,220.718201 
	C94.610275,220.511032 94.314812,219.994904 94.070801,219.169098 
z"/>
<path fill="#BADFFA" opacity="1.000000" stroke="none" 
	d="
M90.853264,236.772797 
	C90.674545,236.899094 90.354553,236.816849 89.908142,236.513763 
	C90.091805,236.383362 90.401901,236.473816 90.853264,236.772797 
z"/>
<path fill="#BADFFA" opacity="1.000000" stroke="none" 
	d="
M98.288177,230.897980 
	C98.546417,230.914871 98.745865,231.205307 98.911476,231.765472 
	C98.661552,231.747314 98.445465,231.459412 98.288177,230.897980 
z"/>
<path fill="#1C83E0" opacity="1.000000" stroke="none" 
	d="
M18.933550,216.771027 
	C18.697859,216.750885 18.593369,216.548126 18.532591,216.332993 
	C18.523840,216.302017 18.725508,216.211594 19.017551,216.138733 
	C19.205305,216.128769 19.078775,216.584427 18.933550,216.771027 
z"/>
<path fill="#1C83E0" opacity="1.000000" stroke="none" 
	d="
M18.896523,197.739136 
	C18.663002,197.794083 18.517534,197.629349 18.423740,197.439148 
	C18.399658,197.390305 18.538538,197.261108 18.753860,197.091263 
	C18.938046,197.179138 18.970922,197.344574 18.896523,197.739136 
z"/>
<path fill="#FDFDFD" opacity="1.000000" stroke="none" 
	d="
M306.504395,199.537048 
	C313.017517,209.330444 312.699890,219.368774 308.114410,229.171829 
	C304.845581,236.160019 297.966522,236.150375 291.004181,235.840683 
	C291.004181,222.292633 291.004181,208.944260 291.004181,195.276505 
	C296.676727,194.592850 301.884277,195.173264 306.504395,199.537048 
z"/>
<path fill="#FCFCFC" opacity="1.000000" stroke="none" 
	d="
M357.897583,202.284546 
	C359.871643,197.209244 362.852539,193.754227 368.328003,194.091812 
	C373.803314,194.429352 377.216217,198.338852 377.638672,203.092743 
	C378.393311,211.584000 378.372040,220.241837 377.600555,228.732376 
	C377.176666,233.397690 373.475281,236.800674 368.249390,236.912796 
	C363.045746,237.024429 359.871979,233.822601 358.334808,229.210724 
	C355.419006,220.462616 355.390045,211.568787 357.897583,202.284546 
z"/>
<path fill="#2B84D5" opacity="1.000000" stroke="none" 
	d="
M97.948853,226.737793 
	C97.576073,226.296936 97.229454,225.505615 96.883743,224.376160 
	C97.248108,224.821136 97.611557,225.604233 97.948853,226.737793 
z"/>
<path fill="#2B84D5" opacity="1.000000" stroke="none" 
	d="
M92.966064,212.722748 
	C92.937424,213.080902 92.543922,212.988983 92.355087,212.917572 
	C92.061096,212.152023 91.955956,211.457886 91.805298,210.414703 
	C92.171425,210.831985 92.583069,211.598282 92.966064,212.722748 
z"/>
<path fill="#2B84D5" opacity="1.000000" stroke="none" 
	d="
M93.964851,215.725342 
	C93.600510,215.280884 93.260056,214.488358 92.919647,213.359924 
	C93.276047,213.808426 93.632401,214.592865 93.964851,215.725342 
z"/>
<path fill="#2B84D5" opacity="1.000000" stroke="none" 
	d="
M106.764595,226.178574 
	C106.884041,226.583862 106.747864,227.166611 106.373703,227.937866 
	C106.260147,227.536255 106.384560,226.946136 106.764595,226.178574 
z"/>
<path fill="#2B84D5" opacity="1.000000" stroke="none" 
	d="
M108.723877,221.171326 
	C108.841705,221.570358 108.714317,222.154510 108.348091,222.925217 
	C108.232384,222.526672 108.355522,221.941544 108.723877,221.171326 
z"/>
</svg>