<?xml version="1.0" encoding="UTF-8"?>
<!-- Created with Inkscape (http://www.inkscape.org/) -->
<svg width="480" height="480" version="1.1" viewBox="0 0 127 127" xml:space="preserve" xmlns="http://www.w3.org/2000/svg"><g transform="translate(1.8401 -.73606)"><path d="m17.913 42.429v-23.947h89.216v47.894h-89.216zm7.3746 22.51 0.38334-0.26348-0.89514-0.84142 0.0064-2.639 0.18215-0.27035 0.18215-0.27035 2.4976-0.17898 0.87503 0.4402v2.9185l-0.89514 0.84142 0.76667 0.52696h1.7127l0.80737-0.58645-0.83185-0.60364v-7.175l0.72787-0.75566v-0.45792h-3.1195v0.24708l0.85227 1.2962-0.1244 2.4641-3.2913 0.11534-0.34169-0.5063-0.0018-1.0752-0.0018-1.0752 0.82637-1.1729 0.0028-0.29323h-3.1195v0.18344l0.85958 1.5502-0.06585 3.3281-0.06585 3.3281-0.83185 0.60249 0.80737 0.58645h1.7127zm9.9822 0 0.38334-0.26348-0.89514-0.84142v-6.7892l0.83185-0.99407v-0.42704h-3.1194v0.18344l0.42979 0.77509 0.42979 0.77509-0.06585 3.3281-0.06585 3.3281-0.83185 0.60249 0.80737 0.58645h1.7127zm4.3876-0.02007 0.40368-0.28355-0.93584-0.62797v-5.5296l0.4137 0.38887 1.839 4.7561 0.26742 0.40673h0.75638l0.42329-0.48871 1.9749-4.7894h0.35623v5.2559l-0.93584 0.62797 0.80737 0.5671h1.7127l0.80737-0.58645-0.83185-0.60364v-7.175l0.36394-0.37783 0.36394-0.37783v-0.47658l-2.5529 0.1164-2.4765 5.9623-0.27368-0.0022-2.2292-6.0578h-2.6579v0.31624l0.61066 0.75892 0.0132 7.3853-0.72787 0.53181 0.80737 0.58645h1.2968zm18.83-0.35892 0.70664-0.44698 0.54502-1.5496-0.24401-1.231-0.83215-0.99443-2.3803-1.255-0.93584-0.79067v-1.4673l1.1372-0.84087 1.2147 0.22836 0.30144 0.23516 0.30144 0.23516 0.3623 0.89574h0.84215v-1.9092l-0.93584-0.23574-2.746-0.0054-1.4072 0.89141-0.54319 0.96568 0.09205 0.87255 0.09205 0.87255 1.3928 1.1313 2.2826 1.23 0.58117 1.1398-0.3682 1.3965-1.1698 0.52563-1.5337-0.33196-0.62389-1.2565-0.95862-0.0084 0.06339 0.92068 0.06338 0.92068 1.0398 0.26999 2.954 0.03898zm16.824 0.10458 0.72787-0.34179 0.72722-1.3684 3.23e-4 -3.1785 3.24e-4 -3.1785 0.83185-0.66951v-0.30408h-2.9115v0.37721l0.86506 0.43519-0.0686 3.4984-0.0686 3.4984-0.94758 0.88974-1.8436-0.03712-0.6331-0.4939-0.21036-0.71191-0.21036-0.71191-0.0024-5.7668 0.83185-0.78194v-0.19548h-3.1195v0.37721l0.83185 0.41848v6.2338l0.68681 1.6135 1.2888 0.73876 2.4956 8.54e-4zm23.636 0.02166 0.71905-0.32074 0.50855-0.62674 0.50856-0.62674 0.69744-2.6566-0.2181-1.4231-0.21811-1.4231-0.92781-1.4111-1.6052-0.76978-2.2002 0.0064-1.6543 0.88074-1.2027 2.2106v3.5474l1.0763 2.0678 1.5728 0.85682 2.2247 9e-3zm-2.4038-0.51295-0.49986-0.24147-0.76633-0.97742-0.2314-1.1729-0.2314-1.1729 0.12954-1.3346 0.12954-1.3346 0.28771-0.52299 0.28771-0.52299 0.89512-0.76146h1.4237l1.0587 0.93492 0.61638 1.951v2.5949l-0.64577 2.0441-1.3299 0.76222-0.62389-0.0044zm-30.383 0.44272v-0.19548h-0.38622l-0.6536-0.61438v-7.5959h1.2667l1.0209 0.95965v0.79971h1.0398v-2.3458h-7.9026v2.3458h0.7996l0.24075-0.68569 0.24075-0.68569 0.7712-0.38797h1.0672v7.816l-0.83185 0.48833v0.29692h3.3274zm18.429-0.1785 0.856-0.3654 1.044-1.3132 0.25842-0.75752 0.25842-0.75752-0.18116-3.2446-1.0789-1.5325-1.5968-0.7453-5.3031-0.12882v0.39569l0.78232 0.2334 0.25749 1.2102v5.5713l-0.25749 1.2102-0.78232 0.2334v0.36462l4.8871-0.0086zm-3.2476-4.1947v-4.0326h0.85564l1.8537 0.43876 1.0037 1.1212 0.49356 2.2348-0.44002 2.4961-0.65287 0.93662-0.93004 0.56852-2.1836 0.26923zm10.398 4.4202v-0.14846l-0.83185-0.48833v-7.6068l0.83185-0.41848v-0.37721h-3.1194v0.19548l0.83185 0.78194v7.2329l-0.83185 0.78194v0.19548h3.1194zm-39.343-3.3214-0.0658-0.53758h-3.3274l-0.06581 0.53758-0.0658 0.53758h3.5906zm-12.389-20.329 8.2675-7.7696v-0.38807l-6.1316-5.7733-22.775 21.406v0.29456h12.372zm38.107-0.63545 8.9503-8.405 10.806 10.164h0.42413l6.2302-5.8661-17.256-16.224h-0.36113l-30.315 28.419v0.3172h12.571zm15.081 6.9389v-1.2706h2.9115v2.5413h1.0398v-5.669h-1.0398v2.3458h-2.9115v-2.3458h-0.83185v5.669h0.83185zm6.1926-1.515-0.0577-2.7856-0.93584-0.12494v5.6962h1.0512zm2.1394 0.87968 0.0135-1.906 0.42759 1.0752 0.42758 1.0752 0.31506 0.83081 0.31505 0.83081h0.88261l1.4525-4.0074 0.0593 2.0037 0.0593 2.0037h0.81731v-5.669h-1.1596l-1.5874 4.4961h-0.1238l-0.77665-2.2585-0.77664-2.2585-1.295 0.11854-0.1154 5.5713h1.0512zm-37.55-7.4777 3.1147-2.9327-9.7659-9.1861-6.3479 5.9576 9.6679 9.0939h0.21648zm-11.022-10.361 3.1151-2.9331-6.3394-5.959-6.3394 5.959 6.2302 5.8662h0.21836zm51.608-3.5376 0.70689-0.41067 0.43202-0.79602 0.43203-0.79602-0.11132-0.7801-0.11131-0.7801-0.39202-0.49356-0.39201-0.49356-1.1497-0.80609-1.0893 0.0096-1.0893 0.0097-1.3315 0.8912-0.61762 1.1227 0.001554 1.681 0.82649 1.2742 0.67779 0.38845 0.67778 0.38845 1.8226 0.001462zm-2.962-0.53292-0.64047-0.37856-0.54006-1.2256 0.12174-0.70521 0.12175-0.70521 0.37282-0.3937 0.37283-0.3937 1.3259-0.52758 1.2986 0.24414 1.1658 1.0958 0.12986 0.61036 0.12987 0.61036-0.56126 1.2463-0.87238 0.73043-1.7846 0.17068zm0.53648-0.91351v-0.68419h0.62007l0.93965 1.3635 0.72788 0.0048v-0.25632l-0.50124-0.61772-0.50123-0.61772 0.7945-0.4664v-0.75645l-0.9244-0.60862h-1.7791v3.3232h0.62389zm0-1.6746v-0.40395l1.1402 0.12371 0.138 0.68419h-1.2783z" fill="#fcfdfd"/><path d="m22.904 65.007-0.31194-0.1895h2.9115l-0.62389 0.37899h-1.6637zm5.1991 0-0.31194-0.1895h2.9115l-0.62389 0.37899h-1.6637zm4.7832 0-0.31194-0.1895h2.9115l-0.62389 0.37899h-1.6637zm4.7832 0-0.31194-0.1895h2.4956l-0.62389 0.37899h-1.2478zm6.9549-0.08176-0.40336-0.27724 0.31129-0.29261v0.45613l2.8075 6e-3 -0.62389 0.37899-1.6882 6e-3zm10.098-0.01598v-0.09774h0.20796v0.19548h-0.20796zm2.9115 0v-0.09774h0.20796v0.19548h-0.20796zm14.349 0v-0.09774h0.20796v0.19548h-0.20796zm23.916 0v-0.09774h0.20796v0.19548h-0.20796zm-17.053-0.29323v-0.26064l0.27728 0.26064-0.27728 0.26064zm4.7832 0.09774v-0.09774h0.20796v0.19548h-0.20796zm15.181 0v-0.09774h0.20796v0.19548h-0.20796zm-73.411-0.19548v-0.09774h0.20796v0.19548h-0.20796zm2.2876 0v-0.09774h0.20796v0.19548h-0.20796zm7.6946 0v-0.09774h0.20796v0.19548h-0.20796zm4.3672 0v-0.09774h0.20796v0.19548h-0.20796zm13.993-0.78194 0.0028-0.97742 0.17382 1.0805-0.1795 0.8743zm21.777 0.78194v-0.09774h0.20796v0.19548h-0.20796zm-52.823-0.19548v-0.09774h0.20796v0.19548h-0.20796zm7.6946 0v-0.09774h0.20796v0.19548h-0.20796zm2.2876 0v-0.09774h0.20796v0.19548h-0.20796zm4.7832 0v-0.09774h0.20796v0.19548h-0.20796zm7.3827-0.09774 0.12853-0.19548h0.20796l-0.12853 0.19548-0.12853 0.19548h-0.20796zm2.1836 0.09774v-0.09774h0.20796v0.19548h-0.20796zm8.9424 0v-0.09774h0.20796v0.19548h-0.20796zm9.5663 0v-0.09774h0.20796v0.19548h-0.20796zm7.4867 0v-0.09774h0.20796v0.19548h-0.20796zm1.0398 0v-0.09774h0.20796v0.19548h-0.20796zm5.1991 0v-0.09774h0.20796v0.19548h-0.20796zm17.469 0v-0.09774h0.20796v0.19548h-0.20796zm-71.955-0.29323v-0.26064l0.27728 0.26064-0.27728 0.26064zm3.5354 0v-0.26064l0.27728 0.26064-0.13864 0.13032-0.13864 0.13032zm6.4469 0v-0.26064l0.27728 0.26064-0.13864 0.13032-0.13864 0.13032zm4.3672 0.09774v-0.09774h0.20796v0.19548h-0.20796zm43.534-0.03258 0.13864-0.13032 0.27728 0.26064h-0.55457zm2.4262 0.03258v-0.09774h0.20796v0.19548h-0.20796zm5.823 0v-0.09774h0.20796v0.19548h-0.20796zm3.5354 0v-0.09774h0.20796v0.19548h-0.20796zm3.7433 0v-0.09774h0.20796v0.19548h-0.20796zm-75.075-0.29322v-0.26064l0.27728 0.26064-0.27728 0.26065zm6.8628 0v-0.26064l0.27728 0.26064-0.13864 0.13032-0.13864 0.13032zm3.1195 0v-0.26064l0.27728 0.26064-0.27728 0.26065zm8.4411 0.02824-0.10996-0.16724 1.0272 0.18458v0.1499h-0.80731zm5.0765-0.02824v-0.26064l0.27728 0.26064-0.27728 0.26065zm29.531 0.09774v-0.09774h0.20796v0.19548h-0.20796zm5.0785-3.7142-3.34e-4 -3.9097 0.1357 3.7911-0.13504 4.0282zm8.0232 3.7142v-0.09774h0.20796v0.19548h-0.20796zm-51.32-3.6262-0.047-3.6262-0.49218-0.46264 0.12526-0.11774 0.12526-0.11774 0.45905 0.80626-0.12338 7.1443zm41.754 3.333v-0.26065l0.27728 0.26065-0.27728 0.26064zm-36.898-0.39097 0.13907-0.48871 0.38548-0.58645-0.13907 0.48871-0.13907 0.48871-0.38548 0.58645zm28.996 0.29323v-0.09774h0.20796v0.19548h-0.20796zm4.5752 0v-0.09774h0.20796v0.19548h-0.20796zm-35.146-0.29323v-0.26064l0.13864 0.13032 0.13864 0.13032-0.27728 0.26064zm3.9513-2.1503v-2.3458h-0.35949l-0.66895 1.4661 0.12704-0.48871 0.12704-0.48871 0.47412-0.97742 0.47412-0.97742 0.03408 6.1577h-0.20796zm12.894 2.2481v-0.09774h0.20796v0.19548h-0.20796zm42.425-0.19548v-0.09774h0.20797v0.19548h-0.20797zm-25.164-0.19548v-0.09774h0.20796v0.19548h-0.20796zm-34.499-0.70591-0.23295-0.62813 0.16174-0.15204 0.46589 1.2563-0.08087 0.07602-0.08088 0.07602zm18.734 0.11946 0.0077-0.58645 0.19174 0.69163-0.10357 0.24064-0.10358 0.24063zm10.566 0.39097v-0.09774h0.20796v0.19548h-0.20796zm1.4557 0v-0.09774h0.20796v0.19548h-0.20796zm14.765 0v-0.09774h0.20796v0.19548h-0.20796zm-28.283-0.58645v-0.09774h0.20796v0.19548h-0.20796zm35.354 0v-0.09774h0.20796v0.19548h-0.20796zm-51.263-0.29323-0.12853-0.19548h0.44047v0.39097h-0.18342zm1.1502 0.09774v-0.19548l0.20159-0.29323 0.2016-0.29323v0.39097l-0.40319 0.58645zm56.144 0v-0.09774h0.20796v0.19548h-0.20796zm-47.184-0.52936-0.02412-0.52936-3.2234-0.13325 3.2365-0.07868 0.11504 0.28181 0.11504 0.28181-0.1949 0.70703zm34.498 0.13839v-0.09774h0.20796v0.19548h-0.20796zm8.1106-0.09774v-0.26064l0.13864 0.13032 0.13864 0.13032-0.13864 0.13032-0.13864 0.13032zm-52.407-0.09774v-0.09774h0.20796v0.19548h-0.20796zm-2.0796-0.29323v-0.26064l0.27728 0.26064-0.13864 0.13032-0.13864 0.13032zm1.4557 0.09774v-0.09774h0.20796v0.19548h-0.20796zm43.464-0.09774v-0.26064l0.27728 0.26064-0.13864 0.13032-0.13864 0.13032zm-60.514-0.3421-0.0032-0.43984h3.7433v0.60021l-0.87503-0.4402-2.4976 0.17898-0.3643 0.54069zm17.882 0.24435v-0.09774h0.20796v0.19548h-0.20796zm1.0462 0v-0.19548l0.40319-0.58645v0.39097l-0.40319 0.58645zm15.383 0v-0.09774h0.20796v0.19548h-0.20796zm42.009-0.09774v-0.26065l0.13864 0.13032 0.13865 0.13032-0.13865 0.13032-0.13864 0.13032zm-60.933-0.39097v-0.26064l0.13864 0.13032 0.13864 0.13032-0.27728 0.26064zm1.4557 0.09774v-0.09774h0.20796v0.19548h-0.20796zm51.608-0.29322v-0.48871l0.20979 0.48871-0.10489 0.24436-0.10489 0.24435zm-50.36 0.09774v-0.09774h0.20796v0.19548h-0.20796zm15.389-0.19548v-0.09774h0.20796v0.19548h-0.20796zm-18.571-0.89468-0.33479-0.80114-0.35983 0.20904 0.18986-1.2159 0.98777 2.4699-0.14822 0.13932zm1.7257 0.6992v-0.09774h0.20796v0.19548h-0.20796zm13.726 0v-0.09774h0.20796v0.19548h-0.20796zm-30.363-0.48871v-0.26064l0.27728 0.26064-0.27728 0.26065zm3.5354 0.09774v-0.09774h0.20796v0.19548h-0.20796zm28.907 0v-0.09774h0.20796v0.19548h-0.20796zm-16.013-0.19548v-0.09774h0.20796v0.19548h-0.20796zm2.0796 0v-0.09774h0.20796v0.19548h-0.20796zm13.518 0v-0.09774h0.20796v0.19548h-0.20796zm44.296-0.09774v-0.26064l0.13864 0.13032 0.13865 0.13032-0.13865 0.13032-0.13864 0.13032zm-15.805-0.09774v-0.09774h0.20796v0.19548h-0.20796zm-31.195-0.19548v-0.09774h0.20796v0.19548h-0.20796zm-13.102-0.19548v-0.09774h0.20796v0.19548h-0.20796zm2.4956 0v-0.09774h0.20796v0.19548h-0.20796zm51.367 0v-0.09774h0.20796v0.19548h-0.20796zm4.5752-0.19548v-0.09774h0.20796v0.19548h-0.20796zm-58.646-0.19548v-0.09774h0.20796v0.19548h-0.20796zm2.9115 0v-0.09774h0.20796v0.19548h-0.20796zm49.703 0v-0.09774h0.20796v0.19548h-0.20796zm7.4867-0.39097v-0.09774h0.20796v0.19548h-0.20796zm-60.309-0.19548v-0.09774h0.20796v0.19548h-0.20796zm3.3274 0v-0.09774h0.20796v0.19548h-0.20796zm23.5 0v-0.09774h0.20796v0.19548h-0.20796zm0.89842-1.0752v-1.2706l0.16776 1.2706-0.08388 0.63532-0.08388 0.63532zm18.234 1.0752v-0.09774h0.20796v0.19548h-0.20796zm7.0708 0v-0.09774h0.20796v0.19548h-0.20796zm5.615 0v-0.09774h0.20796v0.19548h-0.20796zm-55.11-0.39097v-0.09774h0.20796v0.19548h-0.20796zm42.217 0v-0.09774h0.20796v0.19548h-0.20796zm14.349 0v-0.09774h0.20796v0.19548h-0.20796zm-70.683-0.42588-0.02412-0.42588 0.6536-0.61438h0.24272l-0.64541 0.68419-0.10133 0.39097-0.10133 0.39097zm8.9183 0.23039v-0.09774h0.20796v0.19548h-0.20796zm1.4557 0v-0.09774h0.20796v0.19548h-0.20796zm6.263-0.23039-0.02412-0.42588 0.6536-0.61438h0.24272l-0.64541 0.68419-0.20266 0.78194zm48.639 0.23039v-0.09774h0.20796v0.19548h-0.20796zm-72.224-0.39097-0.1477-0.39097-0.12878-0.29322-0.12878-0.29323 0.71372 0.63798-0.16076 0.7304zm9.9822 0-0.1477-0.39097-0.25756-0.58645 0.71372 0.63798-0.16076 0.7304zm67.441 0.19548v-0.09774h0.20797v0.19548h-0.20797zm-75.699-0.32967v-0.30665l0.62389-0.48671-0.0132 0.3411-0.61066 0.75892zm3.3643-0.17615-0.27368-0.41193 0.17752-0.16686 0.51452 0.58275-0.14468 0.40797zm6.6179 0.16044v-0.29095l0.63394-0.49455 0.1621 0.15346-0.79605 0.92299zm9.5663 0.14989v-0.09774h0.20796v0.19548h-0.20796zm35.354-0.09774v-0.26064l0.27728 0.26064-0.13864 0.13032-0.13864 0.13032zm6.0044-0.14661-0.28542-0.3421 0.72787 0.53658v0.14762h-0.15704zm-45.517 0.04887v-0.09774h0.20796v0.19548h-0.20796zm13.934 0v-0.09774h0.20796v0.19548h-0.20796zm41.697-0.09774 0.12853-0.19548h0.20796l-0.25706 0.39097h-0.20796zm2.6837-0.0302-0.14839-0.22569 0.48019 0.27896v0.1724h-0.18342zm-42.821-0.16528 0.12853-0.19548h0.20796l-0.12853 0.19548-0.12853 0.19548h-0.20796zm27.763 0.09774v-0.09774h0.20796v0.19548h-0.20796zm5.823 0v-0.09774h0.20796v0.19548h-0.20796zm5.1991 0.02394v-0.07381l0.72787-0.53658-0.28542 0.3421-0.28542 0.3421h-0.15704zm5.3805-0.26829-0.28542-0.3421 0.72787 0.53658v0.14762h-0.157zm-33.456 0.04887v-0.09774h0.20796v0.19548h-0.20796zm16.221 0v-0.09774h0.20796v0.19548h-0.20796zm-42.632-0.19549v-0.09774h0.20796v0.19548h-0.20796zm17.261 0v-0.09774h0.20796v0.19548h-0.20796zm22.044 0v-0.09774h0.20796v0.19548h-0.20796zm5.615 0v-0.09774h0.20796v0.19548h-0.20796zm11.854 0v-0.09774h0.20796v0.19548h-0.20796zm0.83185 0v-0.09774h0.20796v0.19548h-0.20796zm-52.823-0.19548v-0.09774h0.20796v0.19548h-0.20796zm34.106-0.09774v-0.26065l0.27728 0.26064-0.27728 0.26064zm-39.097-0.09774v-0.09774h0.20796v0.19548h-0.20796zm19.549 0v-0.09774h0.20796v0.19548h-0.20796zm-3.5354-0.19548v-0.09774h0.20796v0.19548h-0.20796zm2.9115 0v-0.09774h0.20796v0.19548h-0.20796zm-33.17-6.8901 6.2389-0.05418 16.637-15.536-16.635 15.736-12.48-0.0917zm31.091-0.0013v-0.14723l25.891-24.239-25.78 24.332 12.47 0.10974-12.582 0.0917zm21.523-8.405 8.9412-8.4544 10.92 10.26v0.19732l-10.917-10.262-17.886 16.713zm21.192 5.6199v-2.8345l0.14354 2.8345-0.14354 2.8345zm1.997 2.639v-0.09774h0.20796v0.19548h-0.20796zm2.4956 0v-0.09774h0.20796v0.19548h-0.20796zm0.20796-0.58645v-0.09774h0.20796v0.19548h-0.20796zm-1.6637-0.78194v-0.09774h0.20797v0.19548h-0.20797zm0.41593-1.3684v-0.09774h0.20796v0.19548h-0.20796zm1.2478 0v-0.09774h0.20796v0.19548h-0.20796zm-2.2876-0.39097v-0.09774h0.20797v0.19548h-0.20797zm0.83186-0.19548v-0.09774h0.20796v0.19548h-0.20796zm2.4956 0v-0.09774h0.20796v0.19548h-0.20796zm-3.5354-0.39097v-0.09774h0.20796v0.19548h-0.20796zm3.7433-0.19548v-0.09774h0.20796v0.19548h-0.20796zm-0.62389-0.39097v-0.09774h0.20796v0.19548h-0.20796zm-2.7035-0.78194v-0.09774h0.20796v0.19548h-0.20796zm-5.823-0.39097v-0.09774h0.20796v0.19548h-0.20796zm0.83185 0v-0.09774h0.20796v0.19548h-0.20796zm4.7832 0v-0.09774h0.20797v0.19548h-0.20797zm3.3274 0v-0.09774h0.20796v0.19548h-0.20796zm-3.8482-3.7638 3.1168-2.9819-17.257-16.321 17.467 16.322-6.4439 5.9628zm-39.096-7.4761-4.7794-4.4958-6.451 5.9616 6.4427-6.1586 9.6744 9.0877v0.10086h-0.10738zm-17.053-1.7597-3.1142-2.9323h0.20796l6.2285 5.8645h-0.20796zm58.75-4.3984v-0.09774h0.20796v0.19548h-0.20796zm-0.20797-0.58645v-0.09774h0.20797v0.19548h-0.20797zm1.6637-0.39097v-0.09774h0.20796v0.19548h-0.20796zm-3.7433-0.19548v-0.09774h0.20796v0.19548h-0.20796zm2.0796 0v-0.09774h0.20797v0.19548h-0.20797zm0.62389-0.09774v-0.26065l0.13864 0.13032 0.13865 0.13032-0.13865 0.13032-0.13864 0.13032zm-21.628-0.29325v-0.09774h0.20796v0.19548h-0.20796zm20.588-0.19548v-0.09774h0.20796v0.19548h-0.20796zm-20.172-0.17155v-0.07381l0.72787-0.53658-0.57084 0.68419h-0.15704zm20.796-0.02394v-0.09774h0.20796v0.19548h-0.20796zm2.0796-0.19548v-0.09774h0.20796v0.19548h-0.20796zm-0.62389-0.19548v-0.09774h0.20796v0.19548h-0.20796zm-21.316-0.48871 0.12853-0.19548h0.20796l-0.25706 0.39097h-0.20796zm20.068-0.29323v-0.09774h0.20796v0.19548h-0.20796zm1.2478 0v-0.09774h0.20796v0.19548h-0.20796zm-20.588-0.39096v-0.09774h0.20796v0.19548h-0.20796zm15.805 0v-0.09774h0.20797v0.19548h-0.20797zm-0.62389-0.19548v-0.09774h0.20796v0.19548h-0.20796zm3.3274 0v-0.09774h0.20796v0.19548h-0.20796zm1.6637-0.39097v-0.09774h0.20797v0.19548h-0.20797zm-19.237-0.29323 0.12853-0.19548h0.20796l-0.25706 0.39097h-0.20796zm14.661-0.09774v-0.09774h0.20796v0.19548h-0.20796zm3.9513-0.19548v-0.09774h0.20797v0.19548h-0.20797zm-17.781-0.48871 0.12853-0.19548h0.20796l-0.12853 0.19548-0.12853 0.19548h-0.20796zm14.453 0.09774v-0.09774h0.20796v0.19548h-0.20796zm1.4557 0v-0.09774h0.20797v0.19548h-0.20797zm0.83186 0v-0.09774h0.20796v0.19548h-0.20796zm-1.6637-0.39097v-0.09774h0.20796v0.19548h-0.20796zm0.83185-0.19548v-0.09774h0.20797v0.19548h-0.20797zm1.0398 0v-0.09774h0.20796v0.19548h-0.20796z" fill="#a3d1f4"/><path d="m55 64.877 0.13864-0.13032 0.27728 0.26065h-0.55457zm2.4262 0.03258v-0.09774h0.20796v0.19548h-0.20796zm14.765 0v-0.09774h0.20796v0.19548h-0.20796zm2.2876 0v-0.09774h0.20796v0.19548h-0.20796zm21.628 0v-0.09774h0.20796v0.19548h-0.20796zm1.941-0.03258 0.13864-0.13032 0.27728 0.26065h-0.55457zm-72.649-0.1629v-0.09774h0.20796v0.19548h-0.20796zm2.2876 0v-0.09774h0.20796v0.19548h-0.20796zm7.6946 0v-0.09774h0.20796v0.19548h-0.20796zm18.509 0v-0.09774h0.20796v0.19548h-0.20796zm4.1593 0v-0.09774h0.20796v0.19548h-0.20796zm7.9026-0.09774v-0.26064l0.13864 0.13032 0.13864 0.13032-0.27728 0.26064zm5.615 0.09774v-0.09774h0.20796v0.19548h-0.20796zm3.5354 0v-0.09774h0.20796v0.19548h-0.20796zm8.1799-0.03258 0.13864-0.13032 0.13864 0.13032 0.13864 0.13032h-0.55457zm8.2492-0.06516v-0.26064l0.13864 0.13032 0.13864 0.13032-0.27728 0.26064zm3.9513 0.09774v-0.09774h0.20796v0.19548h-0.20796zm-37.017-0.19548v-0.09774h0.20796v0.19548h-0.20796zm12.451-0.24436-0.28542-0.3421 0.72787 0.53658v0.14762h-0.15704zm13.336 0.24436v-0.09774h0.20796v0.19548h-0.20796zm10.814 0v-0.09774h0.20796v0.19548h-0.20796zm-39.305-0.19548v-0.09774h0.20796v0.19548h-0.20796zm1.2478 0v-0.09774h0.20796v0.19548h-0.20796zm6.3429-0.09774 0.12853-0.19548h0.20796l-0.12853 0.19548-0.12853 0.19548h-0.20796zm9.4623 0.09774v-0.09774h0.20796v0.19548h-0.20796zm1.4557 0v-0.09774h0.20796v0.19548h-0.20796zm1.5597-0.09774 0.12853-0.19548h0.20796l-0.12853 0.19548-0.12853 0.19548h-0.20796zm8.8384 0.09774v-0.09774h0.20796v0.19548h-0.20796zm4.4712-0.09774 0.12853-0.19548h0.20796l-0.25706 0.39097h-0.20796zm1.9757 0.09774v-0.09774h0.20796v0.19548h-0.20796zm5.407 0v-0.09774h0.20796v0.19548h-0.20796zm1.2478 0v-0.09774h0.20796v0.19548h-0.20796zm1.9757-0.29323 0.37641-0.39097h0.20796l-0.75282 0.78194h-0.20796zm-40.761 0 0.12853-0.19548h0.20796l-0.12853 0.19548-0.12853 0.19548h-0.20796zm22.148 0.09774v-0.09774h0.20796v0.19548h-0.20796zm1.8717 0v-0.09774h0.20796v0.19548h-0.20796zm12.77-0.3421-0.39617-0.43984 0.93584 0.74479v0.13488h-0.1435zm-30.655 0.14661v-0.09774h0.20796v0.19548h-0.20796zm14.557 0v-0.09774h0.20796v0.19548h-0.20796zm3.9513 0v-0.09774h0.20796v0.19548h-0.20796zm1.6637 0v-0.09774h0.20796v0.19548h-0.20796zm-30.571-0.39096v-0.09774h0.20796v0.19548h-0.20796zm3.3274 0v-0.09774h0.20796v0.19548h-0.20796zm1.2478 0v-0.09774h0.20796v0.19548h-0.20796zm4.4543-3.6165v-3.8119l0.06799 1.906 0.06799 1.906-0.06799 1.906-0.06799 1.906zm20.605 3.5187 0.12853-0.19548h0.20796l-0.12853 0.19548-0.12853 0.19548h-0.20796zm1.4557 0 0.12853-0.19548h0.20796l-0.25706 0.39097h-0.20796zm4.9727-3.1277v-3.421l0.13862 3.421-0.06931 1.7105-0.06931 1.7105zm3.2419 3.2255v-0.09774h0.20796v0.19548h-0.20796zm-23.708-0.19548v-0.09774h0.20796v0.19548h-0.20796zm28.699 0v-0.09774h0.20796v0.19548h-0.20796zm-27.451-0.29323v-0.26064l0.13864 0.13032 0.13864 0.13032-0.13864 0.13032-0.13864 0.13032zm3.7433 0.09774v-0.09774h0.20796v0.19548h-0.20796zm18.509 0v-0.09774h0.20796v0.19548h-0.20796zm1.4557 0v-0.09774h0.20796v0.19548h-0.20796zm-40.761-0.19548v-0.09774h0.20796v0.19548h-0.20796zm22.044-0.09774v-0.26064l0.27728 0.26064-0.27728 0.26064zm8.3185-0.09774v-0.09774h0.20796v0.19548h-0.20796zm8.7345 0v-0.09774h0.20796v0.19548h-0.20796zm5.615 0v-0.09774h0.20796v0.19548h-0.20796zm-29.031-3.03v-3.03l0.14176 3.03-0.14176 3.03zm24.872 2.8345v-0.09774h0.20796v0.19548h-0.20796zm5.615 0v-0.09774h0.20796v0.19548h-0.20796zm-15.597-0.39097v-0.09774h0.20796v0.19548h-0.20796zm1.4557 0v-0.09774h0.20796v0.19548h-0.20796zm12.894 0v-0.09774h0.20796v0.19548h-0.20796zm-41.385-0.19548v-0.09774h0.20796v0.19548h-0.20796zm35.354 0v-0.09774h0.20796v0.19548h-0.20796zm7.4867 0v-0.09774h0.20796v0.19548h-0.20796zm-51.95-0.58645 0.0077-0.58645 0.19174 0.69164-0.10357 0.24063-0.10358 0.24064zm45.919 0.39097v-0.09774h0.20796v0.19548h-0.20796zm-9.5663-0.29323v-0.26064l0.13864 0.13032 0.13864 0.13032-0.13864 0.13032-0.13864 0.13032zm-25.995-0.09774v-0.09774h0.20796v0.19548h-0.20796zm27.451-0.09774v-0.26064l0.27728 0.26064-0.13864 0.13032-0.13864 0.13032zm-29.739-0.29323v-0.09774h0.20796v0.19548h-0.20796zm1.6372-0.43984-0.28542-0.3421 0.72787 0.53658v0.14762h-0.15704zm42.499-0.43984v-0.68419l0.1902 0.68419-0.0951 0.3421-0.0951 0.3421zm-45.176 0.29323v-0.09774h0.20796v0.19548h-0.20796zm-0.41593-0.19548v-0.097742h0.20796v0.19548h-0.20796zm2.2876-0.19548v-0.09774h0.20796v0.19548h-0.20796zm-2.9115-0.19548v-0.09774h0.20796v0.19548h-0.20796zm-0.62389-0.58645v-0.09774h0.20796v0.19548h-0.20796zm2.0796 0v-0.09774h0.20796v0.19548h-0.20796zm28.907-0.29323v-0.26064l0.13864 0.13032 0.13864 0.13032-0.27728 0.26064zm-29.655-0.22569-0.14839-0.22569 0.48019 0.27897v0.1724h-0.18342zm31.11 0.0302v-0.26064l0.13864 0.13032 0.13864 0.13032-0.27728 0.26064zm6.6548 0v-0.26064l0.27728 0.26064-0.27728 0.26064zm1.4557-0.19548v-0.26064l0.13864 0.13032 0.13864 0.13032-0.13864 0.13032-0.13864 0.13032zm-40.969-0.09774v-0.09774h0.20796v0.19548h-0.20796zm45.544 0v-0.09774h0.20796v0.19548h-0.20796zm-14.349-0.19548v-0.09774h0.20796v0.19548h-0.20796zm15.805 0v-0.09774h0.20796v0.19548h-0.20796zm-14.349-0.19548v-0.09774h0.20796v0.19548h-0.20796zm-31.362-0.58645 0.0077-0.58645 0.09587 0.34582 0.09587 0.34582-0.10357 0.24063-0.10358 0.24063zm12.229 0.19548v-0.09774h0.20796v0.19548h-0.20796zm17.469 0v-0.09774h0.20796v0.19548h-0.20796zm10.19 0v-0.09774h0.20796v0.19548h-0.20796zm4.1593 0v-0.09774h0.20796v0.19548h-0.20796zm1.4557 0v-0.09774h0.20796v0.19548h-0.20796zm-46.792-0.29323v-0.26064l0.13864 0.13032 0.13864 0.13032-0.27728 0.26064zm5.4665-0.68419 0.0028-0.97742 0.08691 0.54027 0.08691 0.54027-0.1795 0.8743zm2.0202 0.78194v-0.09774h0.20796v0.19548h-0.20796zm32.442 0v-0.09774h0.20796v0.19548h-0.20796zm-35.354-0.19548v-0.09774h0.20796v0.19548h-0.20796zm40.553 0v-0.09774h0.20796v0.19548h-0.20796zm-31.818-0.19548v-0.09774h0.20796v0.19548h-0.20796zm26.827 0v-0.09774h0.20796v0.19548h-0.20796zm-32.442-0.19548v-0.09774h0.20796v0.19548h-0.20796zm33.898 0v-0.09774h0.20796v0.19548h-0.20796zm3.3274 0v-0.09774h0.20796v0.19548h-0.20796zm-43.464-0.19548v-0.09774h0.20796v0.19548h-0.20796zm11.522-0.12795-0.14839-0.22569 0.48019 0.27896v0.1724h-0.18342zm-8.9424-0.19548-0.14839-0.22569 0.48019 0.27896v0.1724h-0.18342zm13.641 0.12794v-0.09774h0.20796v0.19548h-0.20796zm5.1991 0v-0.09774h0.20796v0.19548h-0.20796zm2.9115 0v-0.09774h0.20796v0.19548h-0.20796zm-17.469-0.19548v-0.09774h0.20796v0.19548h-0.20796zm7.6946 0v-0.09774h0.20796v0.19548h-0.20796zm11.23 0v-0.09774h0.20796v0.19548h-0.20796zm1.733-0.03258 0.13864-0.13032 0.27728 0.26065h-0.55457zm2.2183 0.03258v-0.09774h0.20796v0.19548h-0.20796zm5.823 0v-0.09774h0.20796v0.19548h-0.20796zm5.1991 0v-0.09774h0.20796v0.19548h-0.20796zm2.0796 0v-0.09774h0.20796v0.19548h-0.20796zm-42.009-0.19548v-0.09774h0.20796v0.19548h-0.20796zm1.2478 0v-0.09774h0.20796v0.19548h-0.20796zm11.949-0.11075-0.13708-0.20849 0.19822-0.18634 0.24629 0.60331h-0.17036zm5.5196 0.11075v-0.09774h0.20796v0.19548h-0.20796zm2.2876 0v-0.09774h0.20796v0.19548h-0.20796zm14.259-0.15504 0.14199-0.35053 0.11642 0.10943 0.11642 0.10943-0.51682 0.48219zm5.0817 0.15504v-0.09774h0.20796v0.19548h-0.20796zm1.2478 0v-0.09774h0.20796v0.19548h-0.20796zm-42.84-0.19548v-0.09774h0.20796v0.19548h-0.20796zm29.323 0v-0.09774h0.20796v0.19548h-0.20796zm11.022 0v-0.09774h0.20796v0.19548h-0.20796zm3.9513 0v-0.09774h0.20796v0.19548h-0.20796zm-43.88-0.19548v-0.09774h0.20796v0.19548h-0.20796zm28.144-0.03258 0.13864-0.13032 0.13864 0.13032 0.13864 0.13032h-0.55457zm12.201 0.03258v-0.09774h0.20796v0.19548h-0.20796zm-39.721-0.19548v-0.09774h0.20796v0.19548h-0.20796zm2.3569-0.03258 0.13864-0.13032 0.13864 0.13032 0.13864 0.13032h-0.55457zm37.849 0 0.13864-0.13032 0.13864 0.13032 0.13864 0.13032h-0.55457zm2.0796 0 0.13864-0.13032 0.13864 0.13032 0.13864 0.13032h-0.55457zm-78.887-7.0048v-0.09774h0.20796v0.19548h-0.20796zm76.807-1.1729 0.0017-1.3684 0.08185 0.73742 0.08185 0.73742-0.16706 1.2619zm0.80923-1.4173-0.04562-2.7856h-0.60313l-0.15008 2.2481-0.03932-1.1302-0.03932-1.1302 0.65185-0.23513 0.40017 0.37616-0.06446 2.7213-0.06447 2.7213zm3.5852-0.14661 9e-3 -2.7368 1.0398-0.03772-0.92458 0.16042-0.0662 2.6754-0.0662 2.6754zm0.73644 0.48871v-2.2155l0.12976 0.12198 0.12977 0.12198-0.0368 2.0061-0.0368 2.0061-0.186 0.17484zm2.4956 2.0526v-0.09774h0.20796v0.19548h-0.20796zm-1.0398-0.19548v-0.097742h0.20796v0.19548h-0.20796zm-0.20796-0.58645v-0.09774h0.20796v0.19548h-0.20796zm0.83185 0v-0.09774h0.20796v0.19548h-0.20796zm0.83185-0.29323v-0.26064l0.13864 0.13032 0.13865 0.13032-0.13865 0.13032-0.13864 0.13032zm-1.0398-0.09774v-0.09774h0.20796v0.19548h-0.20796zm0.41592 0v-0.09774h0.20797v0.19548h-0.20797zm-1.2478-0.19548v-0.09774h0.20797v0.19548h-0.20797zm2.0796-0.19548v-0.09774h0.20796v0.19548h-0.20796zm-1.4558-0.19548v-0.09774h0.20797v0.19548h-0.20797zm0.83186 0v-0.09774h0.20796v0.19548h-0.20796zm-1.6637-0.19548v-0.09774h0.20796v0.19548h-0.20796zm2.4956-0.19548v-0.09774h0.20796v0.19548h-0.20796zm-1.8717-0.19548v-0.09774h0.20796v0.19548h-0.20796zm1.2478 0v-0.09774h0.20796v0.19548h-0.20796zm-2.0796-0.19548v-0.09774h0.20796v0.19548h-0.20796zm2.9115-0.19548v-0.09774h0.20797v0.19548h-0.20797zm-2.2876-0.19548v-0.09774h0.20796v0.19548h-0.20796zm1.6637 0v-0.09774h0.20797v0.19548h-0.20797zm-2.4956-0.19548v-0.09774h0.20797v0.19548h-0.20797zm3.3274-0.19548v-0.09774h0.20796v0.19548h-0.20796zm-2.7035-0.19548v-0.09774h0.20797v0.19548h-0.20797zm2.0796 0v-0.09774h0.20796v0.19548h-0.20796zm0.83185-0.39097v-0.09774h0.20796v0.19548h-0.20796zm-3.1194-0.19548v-0.09774h0.20796v0.19548h-0.20796zm2.7035-0.48871v-0.26065l0.13864 0.13032 0.13865 0.13032-0.13865 0.13032-0.13864 0.13032zm-2.9115-0.09774v-0.09774h0.20796v0.19548h-0.20796zm-9.4103-0.61818 0.25995-0.0986 0.51991 0.1972h-1.0398zm6.0309 0 0.25995-0.0986 0.51991 0.1972h-1.0398zm6.9707-6e-3 0.3679-0.09012 0.51199 0.19472-1.2478-0.0144zm-44.976-0.9397v-0.097742h0.20796v0.19548h-0.20796zm-11.125-10.456-0.12706-0.19324 0.54208 0.19554 6.025-5.6736-6.025-5.6736-0.62446 0.22318 0.52945-0.5013 6.3299 5.95-6.2302 5.8662h-0.2926zm-0.52138-0.49095v-0.09774h0.20796v0.19548h-0.20796zm-0.41593-0.39097v-0.09774h0.20796v0.19548h-0.20796zm-0.41593-0.39097v-0.09774h0.20796v0.19548h-0.20796zm-0.41593-0.39097v-0.09774h0.20796v0.19548h-0.20796zm-0.41593-0.39097v-0.09774h0.20796v0.19548h-0.20796zm-0.41593-0.39097v-0.09774h0.20796v0.19548h-0.20796zm-0.41593-0.39097v-0.09774h0.20796v0.19548h-0.20796zm-0.41593-0.39097v-0.09774h0.20796v0.19548h-0.20796zm-0.41593-0.39097v-0.09774h0.20796v0.19548h-0.20796zm-0.41593-0.39097v-0.09774h0.20796v0.19548h-0.20796zm-0.41593-0.39097v-0.09774h0.20796v0.19548h-0.20796zm-0.41593-0.39097v-0.09774h0.20796v0.19548h-0.20796zm-0.41593-0.39097v-0.09774h0.20796v0.19548h-0.20796zm-0.41593-0.48871v-0.26064l0.27728 0.26064-0.13864 0.13032-0.13864 0.13032zm58.507-0.32581 0.13864-0.13032 0.27728 0.26065h-0.55457zm1.5944 0.03258v-0.09774h0.20797v0.19548h-0.20797zm-59.685-0.19548v-0.09774h0.20796v0.19548h-0.20796zm57.606 0v-0.09774h0.20796v0.19548h-0.20796zm2.7035 0v-0.09774h0.20797v0.19548h-0.20797zm-3.1194-0.19548v-0.09774h0.20797v0.19548h-0.20797zm-56.774-0.19548v-0.09774h0.20796v0.19548h-0.20796zm57.606 0v-0.09774h0.20796v0.19548h-0.20796zm3.0155-0.09774 0.12853-0.19548h0.20797l-0.25706 0.39097h-0.20796zm-3.4314-0.09774v-0.09774h0.20796v0.19548h-0.20796zm-56.774-0.19549v-0.09774h0.20796v0.19548h-0.20796zm59.685 0.02394v-0.07381l0.36393-0.26829 0.36394-0.26829-0.57084 0.68419h-0.157zm-4.1593-0.21942v-0.09774h0.20796v0.19548h-0.20796zm1.5251-0.03258 0.13865-0.13032 0.27728 0.26064h-0.55457zm2.0796 0 0.13864-0.13032 0.27728 0.26064h-0.55457zm-58.715-0.16291v-0.09774h0.20796v0.19548h-0.20796zm60.309 0v-0.09774h0.20797v0.19548h-0.20797zm-5.407-0.19548v-0.09774h0.20797v0.19548h-0.20797zm0.6239 0v-0.09774h0.20796v0.19548h-0.20796zm2.7035 0v-0.09774h0.20796v0.19548h-0.20796zm0.62389 0v-0.09774h0.20796v0.19548h-0.20796zm-58.438-0.19548v-0.09774h0.20796v0.19548h-0.20796zm59.478 0v-0.09774h0.20796v0.19548h-0.20796zm0.62389 0v-0.09774h0.20796v0.19548h-0.20796zm-5.823-0.29323v-0.26064l0.27729 0.26064-0.27729 0.26064zm0.62389 0.09774v-0.09774h0.20797v0.19548h-0.20797zm-54.486-0.19548v-0.09774h0.20796v0.19548h-0.20796zm56.858-0.12795-0.14839-0.22569 0.4802 0.27896v0.1724h-0.1834zm0.74773 0.12795v-0.09774h0.20797v0.19548h-0.20797zm1.6637 0v-0.09774h0.20796v0.19548h-0.20796zm0.67214-0.68419v-0.68419l0.1902 0.68419-0.1902 0.68419zm-59.526 0.29322v-0.09774h0.20796v0.19548h-0.20796zm53.863-0.29322v-0.26065l0.27728 0.26065-0.27728 0.26064zm3.3274 0.09774v-0.09774h0.20797v0.19548h-0.20797zm-56.774-0.19548v-0.09774h0.20796v0.19548h-0.20796zm0.41593-0.39097v-0.09774h0.20796v0.19548h-0.20796zm56.15-0.09774v-0.26064l0.13864 0.13032 0.13864 0.13032-0.13864 0.13032-0.13864 0.13032zm0.62389 0.09774v-0.09774h0.20796v0.19548h-0.20796zm1.2478 0v-0.09774h0.20796v0.19548h-0.20796zm-5.407-0.19548v-0.09774h0.20796v0.19548h-0.20796zm-51.783-0.58645 0.48843-0.48871h0.20796l-0.97686 0.97742h-0.20796zm52.407 0.39097v-0.09774h0.20797v0.19548h-0.20797zm3.5354 0v-0.09774h0.20796v0.19548h-0.20796zm1.0398-0.19548v-0.09774h0.20796v0.19548h-0.20796zm0.62389 0v-0.09774h0.20796v0.19548h-0.20796zm-5.615-0.19548v-0.09774h0.20797v0.19548h-0.20797zm0.83186-0.17155v-0.07381l0.36393-0.26829 0.36394-0.26829-0.57084 0.68419h-0.157zm1.0947-0.06647 0.57475-0.0817 0.46506 0.08436 0.46506 0.08437-2.0796-0.0054zm3.4805 0.04253v-0.09774h0.20797v0.19548h-0.20797zm-4.8871-0.48871 0.12853-0.19548h0.20797l-0.25706 0.39097h-0.20797zm-51.679-0.09774v-0.09774h0.20796v0.19548h-0.20796zm52.823 0v-0.09774h0.20797v0.19548h-0.20797zm2.2876 0v-0.09774h0.20796v0.19548h-0.20796zm-1.8717-0.19548v-0.09774h0.20796v0.19548h-0.20796zm1.2478 0v-0.09774h0.20796v0.19548h-0.20796zm-2.0796-0.19548v-0.09774h0.20796v0.19548h-0.20796zm3.1194 0v-0.09774h0.20796v0.19548h-0.20796zm-2.7035-0.19548v-0.09774h0.20797v0.19548h-0.20797zm2.2876 0v-0.09774h0.20796v0.19548h-0.20796zm-1.2998-0.22721 0.25995-0.0986 0.25996 0.0986 0.25995 0.0986h-1.0398z" fill="#99999a"/><path d="m22.488 64.663v-0.14846l0.93584-0.54782-0.57084 0.64926h2.3631l-0.14839-0.22569-0.14839-0.22569 0.48019 0.27897v0.36789h-2.9115zm5.407-0.03549v-0.18395l0.48019-0.27897-0.29678 0.45138h2.3631l-0.57084-0.64926 0.93584 0.54782v0.29692h-2.9115zm4.5752 0.03549v-0.14846l0.93584-0.54782-0.28542 0.32463-0.28542 0.32463h2.3631l-0.29677-0.45138 0.48019 0.27897v0.36789h-2.9115zm4.9324 0.0018-0.08327-0.14661 0.76588-0.68419v0.31278l-0.49911 0.46916h1.9794l-0.31235-0.48871 0.70373 0.53658v0.14762h-2.471zm7.1295-0.02796v-0.17457l0.64549-0.23284-0.25411 0.38649h2.1551l-0.28542-0.32463-0.28542-0.32463 0.93584 0.54782v0.29692h-2.9115zm-19.889-2.4645 9.85e-4 -1.9548 0.15324 2.0657-0.07761 0.922-0.07761 0.922zm3.9513 0 9.85e-4 -1.9548 0.15324 2.0657-0.07761 0.922-0.07761 0.922zm6.0022-1.882-0.04723-3.8369 0.72787-0.53658-0.51067 0.61605-0.12274 7.5943zm4.4021 1.1001 5.9e-4 -2.7368 0.07195 1.4258 0.07195 1.4258-0.07254 1.311-0.07254 1.311zm6.1733 2.3295 0.01642-0.37468 0.10923 0.25657 0.10923 0.25657-0.12564 0.1181-0.12564 0.1181zm-3.6643-0.09446-0.13708-0.20849 0.09911-0.09317 0.09912-0.09317 0.24629 0.60331h-0.17036zm0.8404 0.01301 0.12853-0.19548h0.18342v0.39097h-0.44047zm-18.944-3.421-4.35e-4 -3.3232 0.1398 3.2063-0.13892 3.4402zm9.9822 0-4.35e-4 -3.3232 0.1398 3.2063-0.13892 3.4402zm4.7832 0-4.34e-4 -3.3232 0.1398 3.2063-0.13892 3.4402zm4.4901 2.8345v-0.26064l0.13864 0.13032 0.13864 0.13032-0.13864 0.13032-0.13864 0.13032zm-1.4557-0.19548v-0.26064l0.13864 0.13032 0.13864 0.13032-0.13864 0.13032-0.13864 0.13032zm1.6637-0.29323v-0.09774h0.20796v0.19548h-0.20796zm-1.8717-0.29323v-0.26064l0.27728 0.26064-0.27728 0.26065zm2.0796-0.19548v-0.26065l0.27728 0.26065-0.27728 0.26064zm-1.0398-0.09774v-0.09774h0.20796v0.19548h-0.20796zm-1.2478-0.19548v-0.09774h0.20796v0.19548h-0.20796zm1.6637-0.09774v-0.26064l0.13864 0.13032 0.13864 0.13032-0.27728 0.26064zm0.83822-0.09774v-0.19548l0.20159-0.29323 0.2016-0.29323v0.39097l-0.40319 0.58645zm-2.7099-0.29323v-0.26064l0.27728 0.26064-0.27728 0.26064zm1.2478 0.09774v-0.09774h0.20796v0.19548h-0.20796zm0.83185-0.19548v-0.09774h0.20796v0.19548h-0.20796zm-1.0398-0.29318v-0.26064l0.27728 0.26064-0.27728 0.26065zm-1.2478-0.19548v-0.26065l0.27728 0.26065-0.27728 0.26064zm2.4956 0v-0.26065l0.27728 0.26065-0.27728 0.26064zm0.83822-0.09774v-0.19548l0.40319-0.58645v0.39097l-0.40319 0.58645zm-2.294-0.29323v-0.26064l0.13864 0.13032 0.13864 0.13032-0.27728 0.26064zm-1.2478-0.19549v-0.26064l0.13864 0.13032 0.13864 0.13032-0.13864 0.13032-0.13864 0.13032zm2.9115 0v-0.26064l0.13864 0.13032 0.13864 0.13032-0.13864 0.13032-0.13864 0.13032zm-17.307-0.33887 0.88934-0.07508 1.5487 0.15274-3.3274-0.0026zm15.436-0.0521v-0.26064l0.27728 0.26064-0.13864 0.13032-0.13864 0.13032zm-16.595-1.5888-0.04233-1.6865 0.72787-0.53658-0.50174 0.60594-0.14146 3.3037zm3.9513 0.01516-0.04233-1.6714-0.41444-0.47056 0.64038 0.52096-0.14128 3.2924zm11.396 1.3782v-0.26064l0.27728 0.26064-0.27728 0.26065zm3.3274 0.09774v-0.09774h0.20796v0.19548h-0.20796zm0.83185-0.09774v-0.26064l0.27728 0.26064-0.13864 0.13032-0.13864 0.13032zm-3.1194-0.39097v-0.26065l0.27728 0.26065-0.27728 0.26064zm2.4956 0v-0.26065l0.13864 0.13032 0.13864 0.13032-0.27728 0.26064zm-3.8216-0.30078-0.12967-0.31764 0.0126-0.26125 0.4414 0.71352-0.1947 0.18302zm4.6535 0.20304v-0.09774h0.20796v0.19548h-0.20796zm-3.5354-0.39097v-0.09774h0.20796v0.19548h-0.20796zm2.9115 0v-0.09774h0.20796v0.19548h-0.20796zm0.83185-0.09774v-0.26064l0.27728 0.26064-0.27728 0.26064zm-5.615-0.58645v-0.58645h0.34389l-0.18314 1.1729h-0.16076zm4.9911 0.19548v-0.26064l0.27728 0.26064-0.27728 0.26064zm-4.5752-0.19548v-0.26064l0.27728 0.26064-0.27728 0.26065zm1.2478 0.09774v-0.09774h0.20796v0.19548h-0.20796zm4.1593 0v-0.09774h0.20796v0.19548h-0.20796zm-4.3672-0.4887v-0.26064l0.13864 0.13032 0.13864 0.13032-0.27728 0.26064zm3.7433 0.09774v-0.09774h0.20796v0.19548h-0.20796zm0.83185-0.0862v-0.18395l0.41116-0.23886-0.2477 0.60676h-0.16346zm-0.62389-0.4025v-0.26064l0.13864 0.13032 0.13864 0.13032-0.13864 0.13032-0.13864 0.13032zm-5.407-0.097745v-0.09774h0.20796v0.19548h-0.20796zm1.2478-0.09774v-0.26064l0.27728 0.26064-0.13864 0.13032-0.13864 0.13032zm4.3736-0.29323v-0.19548l0.40319-0.58645v0.39097l-0.40319 0.58645zm-14.564-0.2517v-0.15013l0.83185-0.66951v0.30025l-0.83185 0.66951zm7.812-0.17971-0.14199-0.35053 0.51682 0.48219-0.23283 0.21886zm2.1702 0.13818v-0.26065l0.27728 0.26065-0.27728 0.26064zm6.6548 0.04153v-0.15013l0.83185-0.66951v0.30025l-0.83185 0.66951zm-23.624-0.26722-0.14839-0.22569 0.48019 0.27896v0.17241h-0.18342zm9.9822 0-0.14839-0.22569 0.48019 0.27896v0.17241h-0.18342zm-10.482-0.36076v-0.26064l0.13864 0.13032 0.13864 0.13032-0.27728 0.26064zm2.8075 0-0.12853-0.19548h0.44047v0.39097h-0.18342zm2.3916 0v-0.19548h0.44047l-0.25706 0.39097h-0.18342zm4.7832 0v-0.26064l0.13864 0.13032 0.13864 0.13032-0.27728 0.26064zm2.8075 0-0.12853-0.19548h0.44047v0.39097h-0.18342zm1.9757 0v-0.26064l0.27728 0.26064-0.27728 0.26064zm2.4956 0.09774v-0.09774h0.20796v0.19548h-0.20796zm5.1991-0.19548v-0.09774h0.20796v0.19548h-0.20796zm-25.372-7.3276v-0.10219l22.46-21.109 6.2671 5.891-0.61923 0.48307 0.19108-0.70654-5.8432-5.4725-22.456 21.119zm17.053-4.597 5.0919-4.7894h0.20796l-10.184 9.5787h-0.20796zm35.25-9.4808 15.18-14.27 17.158 16.125v0.20834l-16.942-15.943h-0.42669l-29.936 28.15h-0.21371zm6.0311 5.8643 8.9406-8.4058h0.20796l-17.881 16.812h-0.20796zm-14.295-0.83325 2.9608-2.7881v-0.3794l-4.2632-4.1118 4.6802 4.2949-6.1307 5.7725h-0.20778zm28.955-2.4411-5.5096-5.2292 11.126 10.358v0.1005h-0.10692zm-36.804 0.6394-4.6714-4.3943 0.5688-0.49686-0.16128 0.26643-0.16128 0.26643 9.3045 8.7526h-0.20796zm-12.69 0.19141 1.1296-1.0752h0.20796l-2.2592 2.1503h-0.20796zm1.4557-1.3445v-0.07381l0.72787-0.53658-0.57084 0.68419h-0.15704zm0.83185-0.78194v-0.07381l0.72787-0.53658-0.57084 0.68419h-0.15704zm0.83185-0.78194v-0.07381l0.72787-0.53658-0.28542 0.3421-0.28542 0.3421h-0.15704zm0.93584-0.90361 0.12853-0.19548h0.20796l-0.12853 0.19548-0.12853 0.19548h-0.20796zm4.6792-1.4661v-0.09774h0.20796v0.19548h-0.20796zm0.41593-0.39097v-0.09774h0.20796v0.19548h-0.20796zm7.3827-2.4435-2.4891-2.3458h0.20796l4.9781 4.6916h-0.20796zm-6.9668 2.0526v-0.09774h0.20796v0.19548h-0.20796zm0.41593-0.39097v-0.09774h0.20796v0.19548h-0.20796zm0.41593-0.39097v-0.09774h0.20796v0.19548h-0.20796zm0.41593-0.39097v-0.09774h0.20796v0.19548h-0.20796zm0.41593-0.39097v-0.09774h0.20796v0.19548h-0.20796zm0.41593-0.39097v-0.09774h0.20796v0.19548h-0.20796zm0.41593-0.39097v-0.09774h0.20796v0.19548h-0.20796zm0.41593-0.39097v-0.09774h0.20796v0.19548h-0.20796zm0.41593-0.39097v-0.09774h0.20796v0.19548h-0.20796zm0.41593-0.39097v-0.09774h0.20796v0.19548h-0.20796zm0.41593-0.39097v-0.09774h0.20796v0.19548h-0.20796z" fill="#4e95d4"/><path d="m46.618 28.848-2.9168-2.7318v-0.41836l5.8711-5.4561h0.26918l6.0202 5.669-6.0202 5.669h-0.30672z" fill="#aaeb0b"/><path d="m23.139 64.293 0.28542-0.32327v-7.5953l-0.72787-0.50029v-0.25012h2.4262l0.27464 0.25816-0.82921 0.54595v3.2592l0.65791 0.23731 2.5655-0.0054 0.93584-0.23574v-3.2555l-0.82921-0.54595 0.27464-0.25816h2.4262v0.34914l-0.62389 0.22504v7.9489l0.49911 0.46916h-2.4352l0.68835-0.71498v-3.5857h-4.1593v3.5857l0.68835 0.71498h-2.403zm9.9822 0 0.28542-0.32327v-7.5953l-0.72787-0.50029v-0.25012h2.4262l0.13732 0.12908 0.13732 0.12908-0.82921 0.54595v7.4732l0.68835 0.71498h-2.403zm4.7832 0 0.28542-0.32327v-7.5953l-0.72787-0.50029v-0.25012h2.2399l2.4168 6.458 0.37805-0.11846 2.6006-6.2418 2.1389-0.11818v0.36957l-0.62389 0.22504v7.9489l0.49911 0.46916h-2.1775l0.43056-0.75623v-6.7503l-0.36216 0.37142-2.4064 5.8645-0.55588 0.5697-0.40771-0.38324-2.2358-5.8821-0.46627-0.75529-0.0126 7.0066 0.68835 0.71498h-1.9871zm-18.119-15.854v-0.1473l22.25-20.912 5.8338 5.4702-0.11278 0.53499-16.221 15.197-11.75 0.0048zm37.433 1.72e-4v-0.14712l29.636-27.855h0.41677l16.739 15.738v0.39442l-5.8243 5.4643-10.92-10.259h-0.41485l-17.881 16.812h-11.752zm-1.1975-10.85-4.6255-4.3511v-0.28007l5.8664-5.5344 4.9726 4.6448 4.2383 4.0273 0.1546 0.41613-5.764 5.4285h-0.217z" fill="#047deb"/><path d="m55.416 64.877 0.13864-0.13032 0.27728 0.26065h-0.55457zm1.6637 0 0.13864-0.13032 0.27728 0.26065h-0.55457zm15.389 0 0.13864-0.13032 0.27728 0.26065h-0.55457zm1.6637 0 0.13864-0.13032 0.27728 0.26065h-0.55457zm22.252 0 0.13864-0.13032 0.27728 0.26065h-0.55457zm1.3864 0.03258v-0.09774h0.20796v0.19548h-0.20796zm-60.517-0.19548v-0.09774h0.20796v0.19548h-0.20796zm16.914-0.03258 0.13864-0.13032 0.13864 0.13032 0.13864 0.13032h-0.55457zm20.727 0.03258v-0.09774h0.20796v0.19548h-0.20796zm7.8636-0.0358 0.27295-0.10267 0.12564 0.1181 0.12564 0.1181-0.79719-0.03086zm5.862-0.06195v-0.26064l0.13864 0.13032 0.13864 0.13032-0.27728 0.26064zm9.9822 0.09774v-0.09774h0.20796v0.19548h-0.20796zm-35.77-0.19547v-0.09774h0.20796v0.19548h-0.20796zm12.478 0v-0.09774h0.20796v0.19548h-0.20796zm8.7345 0v-0.09774h0.20796v0.19548h-0.20796zm14.973 0v-0.09774h0.20796v0.19548h-0.20796zm-43.464-0.19548v-0.09774h0.20796v0.19548h-0.20796zm1.6637 0v-0.09774h0.20796v0.19548h-0.20796zm1.4557 0v-0.09774h0.20796v0.19548h-0.20796zm6.6548 0v-0.09774h0.20796v0.19548h-0.20796zm7.2787 0v-0.09774h0.20796v0.19548h-0.20796zm6.9668-0.09774 0.12853-0.19548h0.20796l-0.25706 0.39097h-0.20796zm15.285 0.09774v-0.09774h0.20796v0.19548h-0.20796zm3.1194 0v-0.09774h0.20796v0.19548h-0.20796zm-42.964-0.32343-0.14839-0.22569 0.2401 0.13948 0.2401 0.13948v0.17241h-0.18342zm2.7234 0.0302 0.12853-0.19548h0.20796l-0.12853 0.19548-0.12853 0.19548h-0.20796zm14.219-0.14661-0.28542-0.3421 0.72787 0.53658v0.14762h-0.15704zm2.7301 0.26829v-0.07381l0.72787-0.53658-0.57084 0.68419h-0.15704zm8.5265-0.02394v-0.09774h0.20796v0.19548h-0.20796zm15.181 0.02394v-0.07381l0.72787-0.53658-0.57084 0.68419h-0.15704zm-34.73-0.4149v-0.09774h0.20796v0.19548h-0.20796zm6.8628 0v-0.09774h0.20796v0.19548h-0.20796zm5.615 0v-0.09774h0.20796v0.19548h-0.20796zm7.9026 0v-0.09774h0.20796v0.19548h-0.20796zm1.4557 0v-0.09774h0.20796v0.19548h-0.20796zm5.1991 0v-0.09774h0.20796v0.19548h-0.20796zm3.5354 0v-0.09774h0.20796v0.19548h-0.20796zm-34.938-0.39097v-0.09774h0.20796v0.19548h-0.20796zm12.27 0v-0.09774h0.20796v0.19548h-0.20796zm3.7433 0v-0.09774h0.20796v0.19548h-0.20796zm1.0398 0v-0.09774h0.20796v0.19548h-0.20796zm13.187-3.1277-4.35e-4 -3.3232 0.1398 3.2063-0.13892 3.4402zm10.729 3.1277v-0.09774h0.20796v0.19548h-0.20796zm-45.752-0.19548v-0.09774h0.20796v0.19548h-0.20796zm15.805 0v-0.09774h0.20796v0.19548h-0.20796zm14.349 0v-0.09774h0.20796v0.19548h-0.20796zm1.4557-0.19548v-0.09774h0.20796v0.19548h-0.20796zm13.102 0v-0.09774h0.20796v0.19548h-0.20796zm1.2478 0v-0.09774h0.20797v0.19548h-0.20797zm-5.407-0.19548v-0.09774h0.20796v0.19548h-0.20796zm-18.509-0.29323v-0.26064l0.27728 0.26064-0.27728 0.26064zm9.7743 0.09774v-0.09774h0.20796v0.19548h-0.20796zm7.2787 0v-0.09774h0.20796v0.19548h-0.20796zm-18.009-3.03v-3.03l0.14176 3.03-0.14176 3.03zm9.4826 2.8345v-0.09774h0.20796v0.19548h-0.20796zm14.349 0v-0.09774h0.20796v0.19548h-0.20796zm-4.5752-0.29322v-0.26065l0.27728 0.26065-0.27728 0.26064zm-8.3185-0.09774v-0.09774h0.20796v0.19548h-0.20796zm-1.2478-0.19548v-0.09774h0.20796v0.19548h-0.20796zm8.1106-0.09774v-0.26064l0.27728 0.26064-0.27728 0.26064zm7.4867 0v-0.26064l0.13864 0.13032 0.13864 0.13032-0.27728 0.26064zm-43.283-0.3421-0.28542-0.3421 0.72787 0.53658v0.14762h-0.15704zm1.6902 0.24436v-0.09774h0.20796v0.19548h-0.20796zm-0.20796-0.39097v-0.09774h0.20796v0.19548h-0.20796zm40.615-0.87968v-1.0752l0.08664 0.53758 0.08664 0.53758-0.17328 1.0752zm-12.956 0.58645v-0.26064l0.27728 0.26064-0.13864 0.13032-0.13864 0.13032zm-29.947-0.09774v-0.09774h0.20796v0.19548h-0.20796zm-0.41593-0.19548v-0.09774h0.20796v0.19548h-0.20796zm1.6637-0.39097v-0.097742h0.20796v0.19548h-0.20796zm36.602-0.097742v-0.26064l0.13864 0.13032 0.13864 0.13032-0.13864 0.13032-0.13864 0.13032zm-39.305-0.097742v-0.09774h0.20796v0.19548h-0.20796zm2.0796-0.19548v-0.09774h0.20796v0.19548h-0.20796zm-2.8274-0.32343-0.14839-0.22569 0.48019 0.27896v0.1724h-0.18342zm2.4114 0.12795v-0.09774h0.20796v0.19548h-0.20796zm-0.41593-0.19548v-0.09774h0.20796v0.19548h-0.20796zm30.155-0.29322v-0.26065l0.13864 0.13032 0.13864 0.13032-0.27728 0.26064zm-30.779-0.09774v-0.09774h0.20796v0.19548h-0.20796zm37.433 0v-0.09774h0.20796v0.19548h-0.20796zm-39.305-0.19549v-0.09774h0.20796v0.19548h-0.20796zm31.195-0.19548v-0.09774h0.20796v0.19548h-0.20796zm15.597-0.09774v-0.26064l0.13864 0.13032 0.13864 0.13032-0.13864 0.13032-0.13864 0.13032zm-45.544-0.097744v-0.09774h0.20796v0.19548h-0.20796zm-1.4229-0.48871v-0.48871l0.20979 0.48871-0.20979 0.48871zm40.936 0.29323v-0.09774h0.20796v0.19548h-0.20796zm4.5752 0v-0.09774h0.20796v0.19548h-0.20796zm-44.296-0.19548v-0.09774h0.20796v0.19548h-0.20796zm29.947 0v-0.09774h0.20796v0.19548h-0.20796zm8.5265 0v-0.09774h0.20796v0.19548h-0.20796zm-33-1.2706v-1.2706l0.16776 1.2706-0.08388 0.63532-0.08388 0.63532zm0.55733 1.0752v-0.09774h0.20796v0.19548h-0.20796zm25.164-0.19548v-0.09774h0.20796v0.19548h-0.20796zm-18.925-0.19548v-0.09774h0.20796v0.19548h-0.20796zm27.659 0v-0.09774h0.20796v0.19548h-0.20796zm-33.69-0.19548v-0.09774h0.20796v0.19548h-0.20796zm22.96-0.3421-0.39617-0.43984 0.93584 0.74479v0.13488h-0.1435zm1.7874 0.3421v-0.09774h0.20796v0.19548h-0.20796zm14.349 0v-0.09774h0.20797v0.19548h-0.20797zm-42.009-0.19548v-0.09774h0.20796v0.19548h-0.20796zm36.81 0v-0.09774h0.20796v0.19548h-0.20796zm3.7433 0v-0.09774h0.20796v0.19548h-0.20796zm-44.92-0.19548v-0.09774h0.20796v0.19548h-0.20796zm36.602-0.09774v-0.26064l0.27728 0.26064-0.13864 0.13032-0.13864 0.13032zm3.5354 0.09774v-0.09774h0.20796v0.19548h-0.20796zm6.0309 0v-0.09774h0.20796v0.19548h-0.20796zm-42.009-0.19548v-0.09774h0.20796v0.19548h-0.20796zm11.854 0v-0.09774h0.20796v0.19548h-0.20796zm-15.805-0.17155v-0.07381l0.72787-0.53658-0.57084 0.68419h-0.15704zm7.5907-0.12168 0.12853-0.19548h0.20796l-0.12853 0.19548-0.12853 0.19548h-0.20796zm21.732 0.09774v-0.09774h0.20796v0.19548h-0.20796zm-17.053-0.19548v-0.09774h0.20796v0.19548h-0.20796zm5.0951-0.09774 0.12853-0.19548h0.20796l-0.25706 0.39097h-0.20796zm3.5155-0.0302-0.14839-0.22569 0.48019 0.27896v0.17241h-0.18342zm4.3672 0-0.14839-0.22569 0.48019 0.27896v0.17241h-0.18342zm3.6592 0.12795v-0.09774h0.20796v0.19548h-0.20796zm5.9071-0.12795-0.14839-0.22569 0.48019 0.27896v0.17241h-0.18342zm-33.15-0.06754v-0.09774h0.20796v0.19548h-0.20796zm1.6637 0v-0.09774h0.20796v0.19548h-0.20796zm12.062 0v-0.09774h0.20796v0.19548h-0.20796zm14.973 0v-0.09774h0.20796v0.19548h-0.20796zm6.4469 0v-0.09774h0.20796v0.19548h-0.20796zm3.9513 0v-0.09774h0.20796v0.19548h-0.20796zm1.2478 0v-0.09774h0.20796v0.19548h-0.20796zm-24.124-0.19549v-0.09774h0.20796v0.19548h-0.20796zm2.4956-0.09774v-0.26065l0.13864 0.13032 0.13864 0.13032-0.27728 0.26064zm13.934 0v-0.26065l0.13864 0.13032 0.13864 0.13032-0.27728 0.26064zm-29.531-0.09774v-0.09774h0.20796v0.19548h-0.20796zm23.985-0.03258 0.13864-0.13032 0.13864 0.13032 0.13864 0.13032h-0.55457zm15.736 0.03258v-0.09774h0.20796v0.19548h-0.20796zm-42.563-0.22806 0.13864-0.13032 0.13864 0.13032 0.13864 0.13032h-0.55457zm1.6637 0 0.13864-0.13032 0.27728 0.26064h-0.55457zm38.612 0.03258v-0.09774h0.20796v0.19548h-0.20796zm1.3171-0.03258 0.13864-0.13032 0.13864 0.13032 0.13864 0.13032h-0.55457zm-4.7627-8.2755 0.01422-1.2706 3.2248-0.02642-3.1022 0.14028-0.15104 2.4274zm5.3999-1.3684v-2.8345l0.14354 2.8345-0.14354 2.8345zm0.54125 2.639v-0.09774h0.20796v0.19548h-0.20796zm3.9513 0v-0.09774h0.20797v0.19548h-0.20797zm2.4562-2.1507-0.0646-2.2484 0.31195 7.68e-4v4.4961h-0.1828zm0.74535-0.39058 5.9e-4 -2.7368 0.072 1.4258 0.072 1.4258-0.145 2.6219zm-2.3696 2.1503v-0.097746h0.20796v0.19548h-0.20796zm-1.0398-0.19548v-0.09774h0.20796v0.19548h-0.20796zm0.51136-0.30623-0.13708-0.20849 0.1982-0.18634 0.12314 0.30166 0.12315 0.30166h-0.1704zm0.73642 0.01301v-0.26065l0.27728 0.26065-0.27728 0.26064zm-1.4557-0.29323v-0.09774h0.20796v0.19548h-0.20796zm1.0398 0v-0.09774h0.20797v0.19548h-0.20797zm0.62389-0.39097v-0.09774h0.20797v0.19548h-0.20797zm-1.8717-0.19548v-0.09774h0.20797v0.19548h-0.20797zm0.62389 0v-0.09774h0.20797v0.19548h-0.20797zm0.83186 0v-0.09774h0.20796v0.19548h-0.20796zm0.62389-0.19548v-0.09774h0.20796v0.19548h-0.20796zm-2.2876-0.39097v-0.09774h0.20796v0.19548h-0.20796zm0.62389 0v-0.09774h0.20796v0.19548h-0.20796zm1.2478 0v-0.09774h0.20796v0.19548h-0.20796zm0.62389-0.19548v-0.09774h0.20796v0.19548h-0.20796zm-2.7035-0.39097v-0.09774h0.20796v0.19548h-0.20796zm0.62389 0v-0.09774h0.20796v0.19548h-0.20796zm1.6637 0v-0.09774h0.20797v0.19548h-0.20797zm-11.145-0.36694-0.10989-0.26919 0.15788-1.9052 0.03748 1.1158 0.03749 1.1158 3.2234 0.13326-3.2365 0.07868zm11.769 0.17145v-0.09774h0.20797v0.19548h-0.20797zm-3.1194-0.39098v-0.09774h0.20797v0.19548h-0.20797zm0.62389 0v-0.09774h0.20797v0.19548h-0.20797zm2.0796 0v-0.09774h0.20796v0.19548h-0.20796zm0.62389-0.19548v-0.09774h0.20796v0.19548h-0.20796zm-3.5354-0.39097v-0.09774h0.20796v0.19548h-0.20796zm0.62389 0v-0.09774h0.20796v0.19548h-0.20796zm2.4956 0v-0.09774h0.20796v0.19548h-0.20796zm-3.3274-0.39097v-0.09774h0.20796v0.19548h-0.20796zm3.5354 0v-0.09774h0.20797v0.19548h-0.20797zm-2.9115-0.19548v-0.09774h0.20796v0.19548h-0.20796zm3.1194-0.48871v-0.26065l0.27728 0.26065-0.27728 0.26064zm-3.3274-0.09774v-0.09774h0.20797v0.19548h-0.20797zm0.88385-17.631 0.36393-0.0894 0.36394 0.0894 0.36393 0.0894h-1.4557zm-0.88385-0.15847v-0.09774h0.20797v0.19548h-0.20797zm2.2876 0v-0.09774h0.20796v0.19548h-0.20796zm-1.3998-0.23321 0.3679-0.09012 0.51199 0.19472-1.2478-0.0144zm1.8157 0.03773v-0.09774h0.20796v0.19548h-0.20796zm-3.7699-0.43984-0.28542-0.3421 0.36394 0.26829 0.36393 0.26829v0.14762h-0.157zm1.0663 0.24436v-0.09774h0.20797v0.19548h-0.20797zm2.0796 0v-0.09774h0.20796v0.19548h-0.20796zm-2.8273-0.53758-0.39617-0.43984 0.93584 0.74479v0.13488h-0.1435zm3.2432 0.3421v-0.09774h0.20797v0.19548h-0.20797zm1.0398-0.39097v-0.09774h0.20796v0.19548h-0.20796zm-3.672-1.5639 1e-3 -1.5639 0.0799 0.83597 0.0799 0.83597-0.1624 1.4558zm3.4641 1.1729v-0.09774h0.20796v0.19548h-0.20796zm-4.9911-0.19548v-0.09774h0.20797v0.19548h-0.20797zm0.41593 0v-0.09774h0.20797v0.19548h-0.20797zm3.3274 0v-0.09774h0.20796v0.19548h-0.20796zm-0.62389-0.19548v-0.09774h0.20796v0.19548h-0.20796zm2.0796 0v-0.09774h0.20796v0.19548h-0.20796zm0.41593 0v-0.09774h0.20796v0.19548h-0.20796zm-5.823-0.48871v-0.26064l0.27729 0.26064-0.27729 0.26065zm0.41593 0v-0.26064l0.27728 0.26064-0.27728 0.26065zm2.9956-0.0302-0.14839-0.22569 0.2401 0.13948 0.24009 0.13948v0.17241h-0.1834zm-0.95497-0.10333 0.27295-0.10267 0.12565 0.1181 0.12564 0.1181-0.79719-0.03086zm-2.4402-0.56695 0.01642-0.37468 0.10923 0.25657 0.10922 0.25657-0.12564 0.1181-0.12564 0.1181zm2.5351 0.17405 0.36789-0.09012 0.512 0.19472-1.2478-0.0144zm1.3998 0.03773v-0.09774h0.20796v0.19548h-0.20796zm-3.5354-0.29323v-0.26064l0.13864 0.13032 0.13864 0.13032-0.27728 0.26064zm3.1194 0.09774v-0.09774h0.20796v0.19548h-0.20796zm0.62389-0.39097v-0.09774h0.20796v0.19548h-0.20796zm1.2478 0v-0.09774h0.20796v0.19548h-0.20796zm0.41593-0.09774v-0.26064l0.27728 0.26064-0.13864 0.13032-0.13864 0.13032zm-2.2876-0.09774v-0.09774h0.20796v0.19548h-0.20796zm-3.3274-0.19548v-0.09774h0.20797v0.19548h-0.20797zm2.3436-0.03773 0.36789-0.09012 0.512 0.19472-1.2478-0.0144zm1.276-0.09022-0.14839-0.22569 0.48019 0.27896v0.1724h-0.1834zm-2.9956-0.06754v-0.09774h0.20796v0.19548h-0.20796zm4.7832 0v-0.09774h0.20797v0.19548h-0.20797zm-5.1991-0.19548v-0.09774h0.20796v0.19548h-0.20796zm4.3407-0.24436-0.28542-0.3421 0.72788 0.53658v0.14762h-0.157zm0.31872-0.29323-0.39617-0.43984 0.46792 0.3724 0.46791 0.37239v0.13488h-0.1434zm-3.4116-0.04887v-0.09774h0.20796v0.19548h-0.20796zm-0.41593-0.19548v-0.09774h0.20797v0.19548h-0.20797zm0.83186 0v-0.09774h0.20796v0.19548h-0.20796zm1.6637 0v-0.09774h0.20797v0.19548h-0.20797zm0.62389-0.19548v-0.09774h0.20797v0.19548h-0.20797zm-2.2876-0.19548v-0.09774h0.20796v0.19548h-0.20796zm1.8717 0v-0.09774h0.20796v0.19548h-0.20796z" fill="#555"/><path d="m55.659 64.92-0.20796-0.07592-1.5597-0.24522v-1.7416h0.57343l0.52343 1.1878 0.74747 0.37603h1.691l0.83185-0.78194v-1.5896l-0.42293-0.74283-2.8753-1.5785-0.861-1.0289v-1.7457l1.3623-1.2805 2.0691-0.23318 1.6637 0.28696 0.06338 0.92614 0.06339 0.92614h-0.64668v-0.53373l-0.86204-1.0301h-1.8113l-0.86204 1.0301v1.0332l0.32103 0.43083 0.32103 0.43083 2.9201 1.6031 0.80352 1.2387-0.0023 0.68419-0.0023 0.68419-0.25689 0.46986-0.25689 0.46986-1.0398 0.70722-2.0796 0.19852zm16.586-0.09315-0.6746-0.1604-0.69088-0.53858-0.55946-1.2581v-6.268l-0.83185-0.78194v-0.19548l3.0155 0.0205-0.93584 0.61363v7.203l1.0209 0.95965h1.8445l0.89846-0.68419 0.19274-0.78194 0.19274-0.78194 5e-3 -2.7856 5e-3 -2.7856-0.83185-0.78194v-0.19548h2.7035v0.29692l-0.78946 0.46344-0.15864 6.5703-0.72265 1.264-1.2336 0.59963-1.7749 0.16862zm23.962-9.45e-4 -0.62824-0.14163-1.1147-0.68653-0.95626-1.8247v-3.7142l0.98622-1.8829 1.6795-1.0447 2.3807 0.0304 1.4004 0.76688 1.0398 1.7394-8e-3 4.1052-0.88438 1.5639-0.42429 0.36068-0.42429 0.36068-1.5873 0.53212-0.83185-0.02286zm2.3323-0.6977 0.44487-0.2929 0.75612-1.8578 0.0064-3.1277-0.57708-1.8676-1.2225-0.96695h-1.554l-1.1258 1.1046-0.21242 0.66948-0.21242 0.66948-0.0074 3.5511 0.6966 1.6365 1.0476 0.77462h1.5151zm-35.217 0.20449 0.55028-0.47938v-7.6425h-1.8951l-0.82793 1.7594h-0.39646v-2.3458h7.4867v2.3458l-0.51991-0.0142-0.83185-1.6474-1.7677-0.12022v7.6144l0.25246 0.61843h0.57939v0.39097h-3.1802zm15.732 0.33574v-0.20173l0.83185-0.20448v-8.088l-0.83185-0.20448v-0.39904l4.9356 0.19108 1.818 0.94267 1.0242 1.7453-0.0079 1.5684-0.0079 1.5684-0.35561 0.77927-0.35561 0.77927-0.91598 0.9354-1.4294 0.57181-4.7055 0.21784zm4.9512-0.83855 0.68797-0.39428 0.79854-1.6535v-3.1277l-0.79854-1.6535-1.3759-0.78855-2.1836-0.001461v8.0148l2.1836-0.001461zm4.8231 0.85713v-0.12506l0.72787-0.50029v-7.6869l-0.72787-0.50029v-0.25012h2.7035v0.19548l-0.41593 0.39097-0.41593 0.39097v7.2329l0.83185 0.78194v0.19548h-2.7035zm-39.721-3.2959v-0.48871h3.1195v0.97742h-3.1195zm43.256-15.541v-2.7368h0.60313l0.12474 2.2481 3.2234 0.11418v-2.3622h0.62389v5.4735h-0.62389v-2.7532l-3.2234 0.11418-0.12298 2.639h-0.60489zm6.2389 0.01629v-2.7531h0.63563l-0.11572 5.3438-0.51991 0.16236zm2.0796-0.02927v-2.7498l1.1243 0.12372 1.52 4.4079 0.2257 0.21215 0.25676-0.74616 0.25675-0.74616 1.231-3.2255 0.8965-6.33e-4 -0.126 5.4742h-0.394v-4.4961l-0.15598 1.27e-4 -0.15597 1.26e-4 -1.6595 4.5065-0.2968-0.05417-0.29679-0.05417-0.84909-2.3458-0.84908-2.3458-0.0584 2.3947-0.0584 2.3947h-0.61108zm0.93583-20.504-0.41593-0.16172-0.89596-0.92243-0.19051-0.68419-0.1905-0.68419 0.14324-0.63043 0.14324-0.63043 0.6474-0.92877 0.72288-0.32245 0.72289-0.32245 1.3929 0.001461 0.66459 0.3809 0.66458 0.3809 0.68394 0.98119 0.10875 0.76216 0.10876 0.76216-0.74158 1.469-1.2811 0.73432-1.8717-0.02332zm2.2594-0.27852 0.68627-0.26954 0.90169-1.0775v-1.5306l-0.31546-0.57344-0.31547-0.57344-1.2201-0.59307h-1.6283l-1.1042 0.81646-0.65956 1.1989 0.11647 0.67461 0.11646 0.67461 0.33715 0.48367 0.33714 0.48367 0.66019 0.26993 0.66018 0.26993 0.74123 0.0154zm-2.1554-2.174v-1.4661h1.7885l0.49911 0.46916v0.70043l-0.7945 0.4664 1.0518 1.2963-0.56928-0.015-0.83742-1.2512-0.7223-0.13076v1.3971h-0.41593zm1.5427-0.2164 0.32895-0.11866v-0.69828l-0.65791-0.23731h-0.79783v1.1729h0.79783z" fill="#030303"/></g></svg>
